<svg width="122" height="62" viewBox="0 0 122 62" fill="none" xmlns="http://www.w3.org/2000/svg">
<path d="M44.9991 31.994C43.7551 32.818 42.5801 33.4577 41.4742 33.9131C40.3683 34.3685 39.0733 34.7623 37.5893 35.0945C37.2526 32.5464 36.7846 29.5861 36.1854 26.2137C35.5863 22.8412 34.9181 19.2765 34.1809 15.5194C33.609 17.2579 33.1101 19.032 32.6841 20.8416C32.258 22.6514 31.9048 24.4967 31.6246 26.3777C31.0698 26.6837 30.3808 26.9418 29.5577 27.1521C28.7346 27.3623 27.9231 27.479 27.1231 27.5023C26.0458 26.0552 24.926 24.65 23.7636 23.2868C22.6013 21.9236 21.3992 20.6148 20.1573 19.3603C20.8273 22.3533 21.6574 25.2779 22.6475 28.1342C23.6376 30.9905 24.6359 33.332 25.6423 35.1587C25.0187 35.5061 24.0433 35.9062 22.7161 36.3592C21.389 36.8123 20.1442 37.1689 18.9816 37.4291C17.7863 34.2941 16.4643 30.2458 15.0158 25.2842C13.5673 20.3226 12.4139 15.9249 11.5557 12.0909C12.4532 11.1108 13.4807 10.2185 14.6382 9.41391C15.7958 8.60924 16.9145 8.00813 17.9943 7.61057C20.2902 9.51215 22.2512 11.2809 23.8773 12.9169C25.5032 14.553 26.9389 16.1797 28.1841 17.797C28.6368 15.41 29.2029 13.0949 29.8826 10.8517C30.5622 8.60857 31.3389 6.48011 32.2128 4.46635C33.2354 4.39318 34.2733 4.38806 35.3264 4.45101C36.3794 4.51395 37.3983 4.65603 38.3829 4.87723C39.3147 8.22708 40.3693 12.3287 41.5467 17.1821C42.7242 22.0356 43.875 26.9728 44.9991 31.994ZM53.7702 31.7696C51.0867 31.9038 49.0038 31.107 47.5215 29.3792C46.0393 27.6515 45.214 25.1041 45.0456 21.7372C44.9532 19.8891 45.0529 17.949 45.3446 15.9168C45.6363 13.8846 45.9538 12.4919 46.2968 11.7387C46.8714 11.5578 47.4543 11.4144 48.0455 11.3086C48.6366 11.203 49.1853 11.1375 49.6916 11.1122C50.4763 11.0729 51.1561 11.0896 51.7308 11.1625C52.3055 11.2352 52.7491 11.3526 53.0617 11.5147C52.9022 12.893 52.7946 14.2942 52.739 15.7182C52.6834 17.1423 52.6884 18.5125 52.7542 19.8288C52.8706 22.1579 53.1007 23.9673 53.4444 25.2572C53.7881 26.547 54.2131 27.1793 54.7194 27.154C55.2003 27.1299 55.5427 26.3641 55.7465 24.8565C55.9503 23.349 55.992 21.3927 55.8718 18.9877C55.8149 17.8485 55.7051 16.6676 55.5423 15.4449C55.3797 14.2221 55.2357 13.3727 55.1104 12.8968C56.0522 12.4437 57.2258 12.0614 58.6314 11.75C60.0371 11.4386 61.4108 11.2493 62.7525 11.1824C62.9082 11.7582 63.0404 12.5002 63.1494 13.4084C63.2582 14.3166 63.3392 15.3023 63.3925 16.3656C63.6355 21.2262 62.9469 24.966 61.3268 27.5849C59.7066 30.2038 57.1877 31.5987 53.7702 31.7696ZM85.9993 12.8577C84.9574 15.8474 83.6027 18.9251 81.9352 22.0908C80.2678 25.2563 78.4681 28.1817 76.536 30.867C75.8832 31.0661 75.0274 31.1843 73.9686 31.2218C72.9097 31.2592 71.5468 31.2073 69.8799 31.066C69.5186 27.5248 68.9258 24.015 68.1015 20.5364C67.277 17.0579 66.2337 13.6116 64.9714 10.1976C66.1507 9.78876 67.4593 9.50541 68.8973 9.34749C70.3352 9.18956 71.8129 9.16225 73.3304 9.26554C73.8266 11.2155 74.2354 13.5204 74.5568 16.1805C74.8782 18.8405 75.0863 21.561 75.1813 24.3417C75.9964 22.5285 76.7794 20.4199 77.5301 18.016C78.2808 15.6121 78.923 13.2118 79.4568 10.815C80.5617 10.985 81.6781 11.245 82.8059 11.5949C83.9336 11.9449 84.9981 12.3659 85.9993 12.8577ZM94.912 5.6592C95.6589 5.80206 96.3441 5.99758 96.9676 6.24576C97.5912 6.49405 98.1056 6.77302 98.5108 7.08268C98.1869 7.56274 97.7915 8.28075 97.3249 9.23671C96.8583 10.1926 96.489 11.0445 96.217 11.7925C95.342 11.78 94.3757 11.705 93.3181 11.5674C92.2605 11.4297 91.0744 11.2223 89.7596 10.9451C89.69 10.3641 89.6641 9.79146 89.6817 9.2271C89.6993 8.66274 89.758 8.11912 89.8579 7.59624C89.9341 7.19789 90.0194 6.85294 90.1138 6.56137C90.2083 6.26969 90.3166 6.00651 90.4389 5.77182C91.0734 5.5577 91.7597 5.44378 92.4978 5.43007C93.236 5.41624 94.0407 5.49262 94.912 5.6592ZM87.9221 14.0777C88.6704 13.8078 89.5118 13.659 90.4462 13.6313C91.3805 13.6034 92.3706 13.6894 93.4162 13.8894C93.9141 13.9846 94.4011 14.1035 94.877 14.246C95.353 14.3886 95.8079 14.5401 96.2416 14.7005C95.3846 16.214 94.4128 18.6991 93.3262 22.1558C92.2395 25.6126 91.2193 29.4305 90.2656 33.6095C89.6904 33.7834 88.9828 33.8739 88.1427 33.8809C87.3027 33.8881 86.4469 33.8084 85.5755 33.6419C85.2021 33.5705 84.8809 33.4961 84.6118 33.4188C84.3427 33.3416 84.1133 33.259 83.9235 33.1711C84.2307 29.5396 84.7221 26.0917 85.3978 22.8274C86.0735 19.563 86.9149 16.6465 87.9221 14.0777ZM106.067 28.9664C106.868 29.2992 107.653 29.7592 108.422 30.3462C109.191 30.9332 109.84 31.5918 110.371 32.3221C109.873 34.0777 108.902 35.4095 107.459 36.3174C106.015 37.2252 104.318 37.4024 102.368 36.8488C99.9048 36.15 98.2441 34.7368 97.3856 32.6092C96.5269 30.4817 96.5681 27.7598 97.5091 24.4436C97.7306 23.6633 97.9728 22.856 98.2358 22.0216C98.4989 21.1873 98.7985 20.3172 99.1346 19.4114C98.6677 19.1998 98.2286 18.983 97.8173 18.7609C97.4062 18.5388 97.0437 18.3305 96.73 18.1361C96.9515 17.3558 97.2356 16.6328 97.5825 15.9672C97.9295 15.3016 98.2925 14.8117 98.6715 14.4977C98.8945 14.6401 99.1707 14.8041 99.5001 14.9897C99.8295 15.1754 100.24 15.3774 100.731 15.596C101.161 14.6377 101.561 13.8093 101.93 13.1105C102.3 12.4117 102.653 11.7939 102.99 11.2572C104.453 11.6723 105.847 12.1668 107.173 12.7406C108.499 13.3144 109.547 13.8687 110.317 14.4034C110.005 14.9472 109.662 15.5546 109.287 16.2255C108.912 16.8964 108.556 17.5925 108.22 18.3138C109.237 18.6287 110.22 18.9011 111.17 19.131C112.119 19.3608 112.961 19.5273 113.696 19.6304C113.536 20.1913 113.296 20.8079 112.973 21.4804C112.65 22.153 112.296 22.7508 111.911 23.2738C111.267 23.2227 110.46 23.0927 109.492 22.8838C108.524 22.6749 107.519 22.4095 106.477 22.0875C106.092 22.9797 105.732 23.8786 105.396 24.7845C105.06 25.6903 104.774 26.5577 104.539 27.3868C103.958 29.4351 103.638 30.8397 103.58 31.6006C103.522 32.3615 103.664 32.7903 104.006 32.8872C104.225 32.9495 104.526 32.633 104.907 31.9377C105.289 31.2423 105.676 30.2519 106.067 28.9664Z" fill="black" stroke="black" stroke-width="3.22042" stroke-linecap="round" stroke-linejoin="round"/>
<path d="M40.8302 29.5866C39.5861 30.4106 38.4111 31.0503 37.3052 31.5058C36.1993 31.9611 34.9044 32.3549 33.4204 32.6872C33.0836 30.1391 32.6156 27.1788 32.0164 23.8063C31.4173 20.4339 30.7492 16.8691 30.012 13.1121C29.4401 14.8506 28.9411 16.6246 28.5151 18.4343C28.089 20.244 27.7359 22.0894 27.4556 23.9704C26.9008 24.2763 26.2119 24.5345 25.3888 24.7448C24.5657 24.955 23.7542 25.0717 22.9542 25.0949C21.8768 23.6478 20.757 22.2426 19.5947 20.8795C18.4324 19.5163 17.2302 18.2074 15.9883 16.9529C16.6584 19.9459 17.4884 22.8706 18.4786 25.7269C19.4687 28.5832 20.467 30.9247 21.4734 32.7514C20.8498 33.0987 19.8744 33.4989 18.5472 33.9518C17.2201 34.4049 15.9752 34.7616 14.8127 35.0218C13.6173 31.8867 12.2954 27.8384 10.8469 22.8769C9.39839 17.9153 8.245 13.5175 7.38672 9.68359C8.28423 8.70346 9.31173 7.81112 10.4692 7.00656C11.6268 6.20189 12.7455 5.60078 13.8254 5.20322C16.1213 7.1048 18.0822 8.87358 19.7083 10.5096C21.3343 12.1456 22.7699 13.7724 24.0152 15.3897C24.4678 13.0026 25.034 10.6875 25.7137 8.44438C26.3932 6.20122 27.17 4.07276 28.0439 2.059C29.0665 1.98583 30.1043 1.98072 31.1574 2.04366C32.2105 2.1066 33.2293 2.24868 34.214 2.46988C35.1458 5.81973 36.2003 9.92137 37.3777 14.7748C38.5552 19.6282 39.706 24.5655 40.8302 29.5866ZM49.6012 29.3622C46.9178 29.4964 44.8349 28.6996 43.3526 26.9718C41.8704 25.2441 41.0451 22.6968 40.8767 19.3298C40.7843 17.4818 40.8839 15.5416 41.1756 13.5095C41.4674 11.4773 41.7848 10.0846 42.1279 9.33138C42.7025 9.15042 43.2854 9.00705 43.8766 8.90129C44.4677 8.79563 45.0164 8.73016 45.5226 8.70487C46.3074 8.66553 46.9871 8.68227 47.5618 8.75511C48.1365 8.82783 48.5802 8.94524 48.8928 9.10732C48.7333 10.4857 48.6257 11.8869 48.5701 13.3108C48.5144 14.735 48.5195 16.1052 48.5852 17.4215C48.7017 19.7505 48.9318 21.56 49.2755 22.8499C49.6192 24.1397 50.0442 24.7719 50.5504 24.7466C51.0314 24.7226 51.3738 23.9567 51.5775 22.4491C51.7813 20.9416 51.8231 18.9853 51.7028 16.5803C51.6459 15.4412 51.5361 14.2602 51.3734 13.0375C51.2107 11.8147 51.0667 10.9654 50.9414 10.4895C51.8832 10.0363 53.0569 9.65403 54.4625 9.34268C55.8681 9.03122 57.2418 8.842 58.5835 8.77501C58.7392 9.35083 58.8715 10.0928 58.9804 11.001C59.0892 11.9092 59.1703 12.895 59.2235 13.9583C59.4665 18.8189 58.778 22.5586 57.1579 25.1776C55.5376 27.7965 53.0187 29.1914 49.6012 29.3622ZM81.8304 10.4504C80.7884 13.4401 79.4338 16.5178 77.7663 19.6834C76.0989 22.8489 74.2991 25.7743 72.3671 28.4597C71.7142 28.6587 70.8584 28.777 69.7996 28.8144C68.7407 28.8519 67.3778 28.7999 65.7109 28.6586C65.3497 25.1175 64.7569 21.6076 63.9325 18.1291C63.1081 14.6505 62.0647 11.2042 60.8025 7.79021C61.9818 7.38142 63.2904 7.09806 64.7283 6.94014C66.1663 6.78221 67.644 6.7549 69.1615 6.85819C69.6576 8.8081 70.0664 11.1131 70.3879 13.7731C70.7092 16.4332 70.9174 19.1536 71.0124 21.9344C71.8275 20.1211 72.6104 18.0126 73.3611 15.6087C74.1118 13.2048 74.7541 10.8044 75.2879 8.40762C76.3928 8.57769 77.5091 8.83767 78.6369 9.18757C79.7647 9.53758 80.8291 9.95852 81.8304 10.4504ZM90.7431 3.25185C91.49 3.39471 92.1752 3.59023 92.7986 3.83841C93.4222 4.0867 93.9366 4.36567 94.3419 4.67533C94.0179 5.15539 93.6226 5.8734 93.1559 6.82936C92.6893 7.78521 92.3201 8.63715 92.048 9.38517C91.173 9.37269 90.2067 9.29766 89.1491 9.16009C88.0916 9.0224 86.9054 8.81496 85.5907 8.53778C85.5211 7.95679 85.4951 7.38411 85.5128 6.81975C85.5303 6.25539 85.589 5.71177 85.689 5.18889C85.7652 4.79054 85.8505 4.44559 85.9449 4.15402C86.0393 3.86234 86.1477 3.59916 86.27 3.36447C86.9045 3.15035 87.5908 3.03643 88.3289 3.02272C89.067 3.00889 89.8718 3.08527 90.7431 3.25185ZM83.7531 11.6704C84.5015 11.4005 85.3428 11.2517 86.2772 11.2239C87.2116 11.196 88.2016 11.2821 89.2473 11.482C89.7452 11.5772 90.2321 11.6961 90.708 11.8386C91.184 11.9813 91.6389 12.1328 92.0727 12.2932C91.2156 13.8066 90.2438 16.2917 89.1572 19.7485C88.0706 23.2052 87.0504 27.0231 86.0966 31.2021C85.5215 31.376 84.8139 31.4665 83.9738 31.4736C83.1337 31.4808 82.278 31.4011 81.4065 31.2345C81.0331 31.1631 80.7119 31.0888 80.4428 31.0114C80.1737 30.9342 79.9443 30.8517 79.7546 30.7638C80.0618 27.1322 80.5532 23.6843 81.2288 20.42C81.9046 17.1557 82.746 14.2392 83.7531 11.6704ZM101.898 26.5591C102.699 26.8919 103.484 27.3518 104.253 27.9389C105.022 28.5258 105.671 29.1844 106.202 29.9147C105.704 31.6704 104.733 33.0022 103.29 33.91C101.846 34.8179 100.149 34.995 98.1987 34.4414C95.7358 33.7426 94.0751 32.3294 93.2166 30.2018C92.358 28.0743 92.3992 25.3525 93.3402 22.0362C93.5616 21.2559 93.8038 20.4486 94.0669 19.6143C94.33 18.7799 94.6296 17.9098 94.9657 17.004C94.4987 16.7925 94.0597 16.5757 93.6484 16.3536C93.2372 16.1315 92.8748 15.9232 92.5611 15.7287C92.7825 14.9485 93.0667 14.2255 93.4135 13.5599C93.7605 12.8942 94.1235 12.4044 94.5025 12.0904C94.7255 12.2328 95.0017 12.3968 95.3312 12.5823C95.6605 12.768 96.0708 12.9701 96.5621 13.1886C96.9922 12.2304 97.3919 11.4019 97.7614 10.7031C98.131 10.0043 98.4841 9.38657 98.8209 8.84986C100.284 9.26496 101.678 9.7594 103.004 10.3332C104.33 10.907 105.378 11.4613 106.149 11.9961C105.836 12.5399 105.493 13.1472 105.118 13.8182C104.743 14.4891 104.387 15.1852 104.051 15.9064C105.068 16.2214 106.051 16.4938 107.001 16.7236C107.95 16.9535 108.792 17.12 109.527 17.223C109.367 17.7839 109.127 18.4006 108.804 19.0731C108.481 19.7457 108.127 20.3435 107.742 20.8665C107.098 20.8153 106.291 20.6853 105.323 20.4765C104.355 20.2675 103.35 20.0021 102.308 19.6802C101.923 20.5723 101.563 21.4713 101.227 22.3771C100.891 23.283 100.605 24.1504 100.37 24.9795C99.7886 27.0277 99.4691 28.4323 99.4113 29.1933C99.3535 29.9541 99.4953 30.383 99.8367 30.4799C100.056 30.5421 100.357 30.2256 100.738 29.5303C101.12 28.835 101.507 27.8446 101.898 26.5591Z" fill="black" stroke="black" stroke-width="3.22042" stroke-linecap="round" stroke-linejoin="round"/>
<path d="M40.8302 29.5866C39.5861 30.4106 38.4111 31.0503 37.3052 31.5058C36.1993 31.9611 34.9044 32.3549 33.4204 32.6872C33.0836 30.1391 32.6156 27.1788 32.0164 23.8063C31.4173 20.4339 30.7492 16.8691 30.012 13.1121C29.4401 14.8506 28.9411 16.6246 28.5151 18.4343C28.089 20.244 27.7359 22.0894 27.4556 23.9704C26.9008 24.2763 26.2119 24.5345 25.3888 24.7448C24.5657 24.955 23.7542 25.0717 22.9542 25.0949C21.8768 23.6478 20.757 22.2426 19.5947 20.8795C18.4324 19.5163 17.2302 18.2074 15.9883 16.9529C16.6584 19.9459 17.4884 22.8706 18.4786 25.7269C19.4687 28.5832 20.467 30.9247 21.4734 32.7514C20.8498 33.0987 19.8744 33.4989 18.5472 33.9518C17.2201 34.4049 15.9752 34.7616 14.8127 35.0218C13.6173 31.8867 12.2954 27.8384 10.8469 22.8769C9.39839 17.9153 8.245 13.5175 7.38672 9.68359C8.28423 8.70346 9.31173 7.81112 10.4692 7.00656C11.6268 6.20189 12.7455 5.60078 13.8254 5.20322C16.1213 7.1048 18.0822 8.87358 19.7083 10.5096C21.3343 12.1456 22.7699 13.7724 24.0152 15.3897C24.4678 13.0026 25.034 10.6875 25.7137 8.44438C26.3932 6.20122 27.17 4.07276 28.0439 2.059C29.0665 1.98583 30.1043 1.98072 31.1574 2.04366C32.2105 2.1066 33.2293 2.24868 34.214 2.46988C35.1458 5.81973 36.2003 9.92137 37.3777 14.7748C38.5552 19.6282 39.706 24.5655 40.8302 29.5866ZM49.6012 29.3622C46.9178 29.4964 44.8349 28.6996 43.3526 26.9718C41.8704 25.2441 41.0451 22.6968 40.8767 19.3298C40.7843 17.4818 40.8839 15.5416 41.1756 13.5095C41.4674 11.4773 41.7848 10.0846 42.1279 9.33138C42.7025 9.15042 43.2854 9.00705 43.8766 8.90129C44.4677 8.79563 45.0164 8.73016 45.5226 8.70487C46.3074 8.66553 46.9871 8.68227 47.5618 8.75511C48.1365 8.82783 48.5802 8.94524 48.8928 9.10732C48.7333 10.4857 48.6257 11.8869 48.5701 13.3108C48.5144 14.735 48.5195 16.1052 48.5852 17.4215C48.7017 19.7505 48.9318 21.56 49.2755 22.8499C49.6192 24.1397 50.0442 24.7719 50.5504 24.7466C51.0314 24.7226 51.3738 23.9567 51.5775 22.4491C51.7813 20.9416 51.8231 18.9853 51.7028 16.5803C51.6459 15.4412 51.5361 14.2602 51.3734 13.0375C51.2107 11.8147 51.0667 10.9654 50.9414 10.4895C51.8832 10.0363 53.0569 9.65403 54.4625 9.34268C55.8681 9.03122 57.2418 8.842 58.5835 8.77501C58.7392 9.35083 58.8715 10.0928 58.9804 11.001C59.0892 11.9092 59.1703 12.895 59.2235 13.9583C59.4665 18.8189 58.778 22.5586 57.1579 25.1776C55.5376 27.7965 53.0187 29.1914 49.6012 29.3622ZM81.8304 10.4504C80.7884 13.4401 79.4338 16.5178 77.7663 19.6834C76.0989 22.8489 74.2991 25.7743 72.3671 28.4597C71.7142 28.6587 70.8584 28.777 69.7996 28.8144C68.7407 28.8519 67.3778 28.7999 65.7109 28.6586C65.3497 25.1175 64.7569 21.6076 63.9325 18.1291C63.1081 14.6505 62.0647 11.2042 60.8025 7.79021C61.9818 7.38142 63.2904 7.09806 64.7283 6.94014C66.1663 6.78221 67.644 6.7549 69.1615 6.85819C69.6576 8.8081 70.0664 11.1131 70.3879 13.7731C70.7092 16.4332 70.9174 19.1536 71.0124 21.9344C71.8275 20.1211 72.6104 18.0126 73.3611 15.6087C74.1118 13.2048 74.7541 10.8044 75.2879 8.40762C76.3928 8.57769 77.5091 8.83767 78.6369 9.18757C79.7647 9.53758 80.8291 9.95852 81.8304 10.4504ZM90.7431 3.25185C91.49 3.39471 92.1752 3.59023 92.7986 3.83841C93.4222 4.0867 93.9366 4.36567 94.3419 4.67533C94.0179 5.15539 93.6226 5.8734 93.1559 6.82936C92.6893 7.78521 92.3201 8.63715 92.048 9.38517C91.173 9.37269 90.2067 9.29766 89.1491 9.16009C88.0916 9.0224 86.9054 8.81496 85.5907 8.53778C85.5211 7.95679 85.4951 7.38411 85.5128 6.81975C85.5303 6.25539 85.589 5.71177 85.689 5.18889C85.7652 4.79054 85.8505 4.44559 85.9449 4.15402C86.0393 3.86234 86.1477 3.59916 86.27 3.36447C86.9045 3.15035 87.5908 3.03643 88.3289 3.02272C89.067 3.00889 89.8718 3.08527 90.7431 3.25185ZM83.7531 11.6704C84.5015 11.4005 85.3428 11.2517 86.2772 11.2239C87.2116 11.196 88.2016 11.2821 89.2473 11.482C89.7452 11.5772 90.2321 11.6961 90.708 11.8386C91.184 11.9813 91.6389 12.1328 92.0727 12.2932C91.2156 13.8066 90.2438 16.2917 89.1572 19.7485C88.0706 23.2052 87.0504 27.0231 86.0966 31.2021C85.5215 31.376 84.8139 31.4665 83.9738 31.4736C83.1337 31.4808 82.278 31.4011 81.4065 31.2345C81.0331 31.1631 80.7119 31.0888 80.4428 31.0114C80.1737 30.9342 79.9443 30.8517 79.7546 30.7638C80.0618 27.1322 80.5532 23.6843 81.2288 20.42C81.9046 17.1557 82.746 14.2392 83.7531 11.6704ZM101.898 26.5591C102.699 26.8919 103.484 27.3518 104.253 27.9389C105.022 28.5258 105.671 29.1844 106.202 29.9147C105.704 31.6704 104.733 33.0022 103.29 33.91C101.846 34.8179 100.149 34.995 98.1987 34.4414C95.7358 33.7426 94.0751 32.3294 93.2166 30.2018C92.358 28.0743 92.3992 25.3525 93.3402 22.0362C93.5616 21.2559 93.8038 20.4486 94.0669 19.6143C94.33 18.7799 94.6296 17.9098 94.9657 17.004C94.4987 16.7925 94.0597 16.5757 93.6484 16.3536C93.2372 16.1315 92.8748 15.9232 92.5611 15.7287C92.7825 14.9485 93.0667 14.2255 93.4135 13.5599C93.7605 12.8942 94.1235 12.4044 94.5025 12.0904C94.7255 12.2328 95.0017 12.3968 95.3312 12.5823C95.6605 12.768 96.0708 12.9701 96.5621 13.1886C96.9922 12.2304 97.3919 11.4019 97.7614 10.7031C98.131 10.0043 98.4841 9.38657 98.8209 8.84986C100.284 9.26496 101.678 9.7594 103.004 10.3332C104.33 10.907 105.378 11.4613 106.149 11.9961C105.836 12.5399 105.493 13.1472 105.118 13.8182C104.743 14.4891 104.387 15.1852 104.051 15.9064C105.068 16.2214 106.051 16.4938 107.001 16.7236C107.95 16.9535 108.792 17.12 109.527 17.223C109.367 17.7839 109.127 18.4006 108.804 19.0731C108.481 19.7457 108.127 20.3435 107.742 20.8665C107.098 20.8153 106.291 20.6853 105.323 20.4765C104.355 20.2675 103.35 20.0021 102.308 19.6802C101.923 20.5723 101.563 21.4713 101.227 22.3771C100.891 23.283 100.605 24.1504 100.37 24.9795C99.7886 27.0277 99.4691 28.4323 99.4113 29.1933C99.3535 29.9541 99.4953 30.383 99.8367 30.4799C100.056 30.5421 100.357 30.2256 100.738 29.5303C101.12 28.835 101.507 27.8446 101.898 26.5591Z" fill="#FFBF00"/>
<path d="M1.17247 58.562L0.572423 58.099C0.44676 58.0304 0.358191 57.9676 0.306712 57.9103C0.255233 57.8532 0.229492 57.7789 0.229492 57.6875C0.229492 57.5733 0.278106 57.4104 0.375332 57.1988C0.472445 56.9874 0.641045 56.6531 0.881131 56.1959C0.949695 56.0473 1.08109 55.7844 1.27532 55.4073C1.76684 54.47 2.0126 53.7785 2.0126 53.3327C2.00114 53.3099 1.99541 53.2756 1.99541 53.2298C1.99541 53.1155 2.0869 53.0126 2.26989 52.9211C2.30417 52.8869 2.42702 52.7897 2.63844 52.6298C2.84987 52.4697 3.01847 52.2869 3.14424 52.0812C3.29284 51.7382 3.48144 51.3582 3.71006 50.9409C3.93857 50.5238 4.33287 49.8409 4.89296 48.8921C5.44158 47.8862 6.02455 46.9775 6.64185 46.166C6.75604 46.0061 6.88463 45.8804 7.0276 45.7889C7.17046 45.6975 7.29331 45.6518 7.39616 45.6518C7.75044 45.6518 8.11333 45.7889 8.48481 46.0632C8.85629 46.3375 9.09918 46.6119 9.21349 46.8861C9.25924 46.9661 9.28212 47.1376 9.28212 47.4005C9.28212 47.7549 9.2421 48.355 9.16207 49.2008C9.13926 49.3494 9.11638 49.5837 9.09345 49.9037C9.05917 50.4181 9.00775 50.9667 8.93918 51.5496C8.81352 52.8298 8.72208 53.8299 8.66487 54.55C8.60777 55.2701 8.57922 55.9445 8.57922 56.5732C8.57922 56.8932 8.5849 57.1275 8.59625 57.2761V57.3961L8.57922 57.7905C8.51055 57.859 8.37336 57.8933 8.16767 57.8933C7.93905 57.8933 7.71043 57.8562 7.48181 57.7819C7.2533 57.7076 7.12758 57.619 7.10465 57.5162C7.0933 57.5047 7.07616 57.4932 7.05323 57.4818C7.03041 57.4703 7.019 57.4189 7.019 57.3275L7.03603 56.9503L7.08762 55.9902L7.17327 53.3669L6.95038 53.3841C6.72176 53.3841 6.23884 53.4299 5.50161 53.5213C4.76438 53.6127 4.29859 53.687 4.10425 53.7442C4.0014 53.7442 3.87568 53.8128 3.72709 53.9499C3.5785 54.0871 3.44705 54.2642 3.33274 54.4814C3.29846 54.5957 3.21848 54.7586 3.09282 54.9701C2.96705 55.1816 2.90416 55.3044 2.90416 55.3387C2.83559 55.3844 2.77557 55.4445 2.72409 55.5188C2.67273 55.5931 2.64131 55.6416 2.62985 55.6644C2.62985 55.7902 2.5184 56.1131 2.29551 56.633C2.07262 57.1531 1.8526 57.5789 1.63545 57.9103L1.17247 58.562ZM4.67007 52.201C4.7501 52.1897 4.91016 52.164 5.15024 52.124C5.39022 52.084 5.60164 52.0582 5.78451 52.0468C6.33314 51.9097 6.71035 51.8411 6.91616 51.8411C7.03047 51.8411 7.11044 51.8525 7.15608 51.8753C7.19036 51.9211 7.2275 51.9525 7.26752 51.9697C7.30753 51.9868 7.33327 51.9954 7.34474 51.9954C7.36755 51.904 7.45899 51.2811 7.61905 50.1266C7.7791 48.9721 7.85914 48.2635 7.85914 48.0006C7.85914 47.8177 7.8534 47.6605 7.84194 47.5292C7.83047 47.3976 7.81906 47.3147 7.80771 47.2805C7.70475 47.2805 7.4704 47.552 7.10465 48.095C6.7389 48.6379 6.38456 49.2522 6.04163 49.9379C5.77884 50.4066 5.59596 50.641 5.49301 50.641C5.41298 50.7209 5.24157 50.9895 4.97878 51.4467C4.71588 51.904 4.61297 52.1554 4.67007 52.201ZM12.0939 57.7218C12.0596 57.7333 12.0139 57.739 11.9568 57.739C11.7167 57.739 11.5166 57.6019 11.3566 57.3275C11.1966 57.0531 11.1166 56.7045 11.1166 56.2817C11.1166 56.053 11.1395 55.8302 11.1853 55.613C11.3109 55.2815 11.3738 55.0415 11.3738 54.8929C11.408 54.6758 11.5252 54.2843 11.7253 53.7184C11.9253 53.1526 12.0538 52.8126 12.111 52.6984C12.1568 52.6984 12.1968 52.6613 12.2311 52.587C12.2654 52.5127 12.2825 52.4298 12.2825 52.3383C12.2825 52.2354 12.3025 52.1297 12.3425 52.0212C12.3826 51.9126 12.4254 51.8354 12.471 51.7897C12.471 51.7554 12.4853 51.6925 12.514 51.601C12.5426 51.5096 12.5568 51.4468 12.5568 51.4125C12.5568 51.3896 12.5711 51.3467 12.5997 51.2839C12.6282 51.221 12.6425 51.1725 12.6425 51.1382C12.8254 50.7838 13.1454 49.9865 13.6027 48.7464C14.0599 47.5062 14.2885 46.8176 14.2885 46.6804C14.2885 46.589 14.3228 46.5033 14.3914 46.4233C14.4599 46.3433 14.5399 46.3033 14.6313 46.3033C14.6656 46.269 14.7399 46.2432 14.8542 46.226C14.9685 46.209 15.0599 46.2004 15.1285 46.2004L15.4028 46.4747C15.5286 46.589 15.6257 46.6919 15.6943 46.7833C15.7629 46.8748 15.7971 46.9833 15.7971 47.109C15.7971 47.3148 15.76 47.5177 15.6857 47.7176C15.6114 47.9177 15.3971 48.3892 15.0428 49.1322C15.02 49.1893 14.9286 49.395 14.7685 49.7494C14.6542 49.9781 14.5971 50.1095 14.5971 50.1438C14.5971 50.1781 14.5742 50.2495 14.5284 50.3581C14.4827 50.4667 14.4427 50.5781 14.4084 50.6924C14.317 50.8753 14.1713 51.1982 13.9712 51.661C13.7713 52.124 13.6713 52.3783 13.6713 52.4239C13.6713 52.5497 13.6427 52.6412 13.5855 52.6984C13.5512 52.6984 13.5283 52.7241 13.5168 52.7755C13.5055 52.827 13.4998 52.8641 13.4998 52.8869C13.4998 53.0012 13.4084 53.3041 13.2255 53.7957L13.0712 54.2929C12.854 55.0358 12.7025 55.5787 12.6168 55.9215C12.5311 56.2645 12.4882 56.556 12.4882 56.7961C12.4882 57.0475 12.4482 57.2532 12.3682 57.4131C12.2881 57.5732 12.1967 57.6761 12.0939 57.7218ZM16.6887 57.7218C16.6544 57.7333 16.6087 57.739 16.5516 57.739C16.3115 57.739 16.1115 57.6019 15.9516 57.3275C15.7915 57.0531 15.7115 56.7045 15.7115 56.2817C15.7115 56.053 15.7344 55.8302 15.7801 55.613C15.9058 55.2815 15.9686 55.0415 15.9686 54.8929C16.0029 54.6758 16.1201 54.2843 16.3201 53.7184C16.5201 53.1526 16.6487 52.8126 16.7059 52.6984C16.7516 52.6984 16.7917 52.6613 16.8259 52.587C16.8602 52.5127 16.8774 52.4298 16.8774 52.3383C16.8774 52.2354 16.8974 52.1297 16.9374 52.0212C16.9774 51.9126 17.0202 51.8354 17.0659 51.7897C17.0659 51.7554 17.0802 51.6925 17.1089 51.601C17.1374 51.5096 17.1517 51.4468 17.1517 51.4125C17.1517 51.3896 17.166 51.3467 17.1945 51.2839C17.223 51.221 17.2373 51.1725 17.2373 51.1382C17.4202 50.7838 17.7403 49.9865 18.1975 48.7464C18.6547 47.5062 18.8834 46.8176 18.8834 46.6804C18.8834 46.589 18.9176 46.5033 18.9862 46.4233C19.0548 46.3433 19.1347 46.3033 19.2261 46.3033C19.2604 46.269 19.3347 46.2432 19.449 46.226C19.5633 46.209 19.6548 46.2004 19.7233 46.2004L19.9976 46.4747C20.1234 46.589 20.2206 46.6919 20.2891 46.7833C20.3577 46.8748 20.392 46.9833 20.392 47.109C20.392 47.3148 20.3548 47.5177 20.2805 47.7176C20.2062 47.9177 19.992 48.3892 19.6377 49.1322C19.6149 49.1893 19.5234 49.395 19.3634 49.7494C19.2491 49.9781 19.1919 50.1095 19.1919 50.1438C19.1919 50.1781 19.169 50.2495 19.1233 50.3581C19.0775 50.4667 19.0375 50.5781 19.0032 50.6924C18.9119 50.8753 18.7661 51.1982 18.5661 51.661C18.3661 52.124 18.2661 52.3783 18.2661 52.4239C18.2661 52.5497 18.2375 52.6412 18.1803 52.6984C18.146 52.6984 18.1231 52.7241 18.1117 52.7755C18.1003 52.827 18.0947 52.8641 18.0947 52.8869C18.0947 53.0012 18.0032 53.3041 17.8203 53.7957L17.6661 54.2929C17.4488 55.0358 17.2973 55.5787 17.2117 55.9215C17.1259 56.2645 17.0831 56.556 17.0831 56.7961C17.0831 57.0475 17.043 57.2532 16.963 57.4131C16.883 57.5732 16.7915 57.6761 16.6887 57.7218ZM27.1129 57.0189C26.9415 57.0189 26.77 56.8903 26.5985 56.633C26.4271 56.3759 26.2928 56.0559 26.1957 55.673C26.0985 55.2901 26.0613 54.9215 26.0843 54.5672C26.0843 54.1557 26.1128 53.8127 26.1699 53.5384C26.227 53.2641 26.2613 53.0927 26.2728 53.0242C26.2957 52.9669 26.3186 52.8669 26.3414 52.724C26.3642 52.5812 26.4099 52.3783 26.4784 52.1154C26.5585 51.7839 26.6499 51.5382 26.7528 51.3781C26.9128 51.1496 27.1243 51.0353 27.3872 51.0353C27.5243 51.0353 27.6472 51.0725 27.7558 51.1468C27.8643 51.2211 27.9244 51.3268 27.9358 51.4639C28.0044 51.5325 28.0387 51.6982 28.0387 51.9611C28.0387 52.1555 28.0215 52.3441 27.9872 52.527C27.953 52.7098 27.9073 52.8412 27.8502 52.9211C27.8159 52.9898 27.7644 53.3213 27.6957 53.9157C27.6501 54.35 27.6158 54.63 27.5929 54.7557C27.5815 54.8014 27.5759 54.8643 27.5759 54.9443C27.5759 55.0929 27.6158 55.1672 27.6957 55.1672C27.8673 55.1672 28.1816 54.83 28.6387 54.1556C28.9474 53.6985 29.1502 53.3699 29.2474 53.1698C29.3446 52.9698 29.4675 52.664 29.6161 52.2526C29.7304 51.8982 29.8332 51.6696 29.9246 51.5668C30.0389 51.4067 30.199 51.3267 30.4048 51.3267C30.599 51.3267 30.7819 51.3896 30.9534 51.5154C31.1248 51.6868 31.2105 51.9096 31.2105 52.184C31.2105 52.3897 31.1534 52.6069 31.0391 52.8355C30.9019 53.1212 30.7762 53.4698 30.6619 53.8813C30.5476 54.2928 30.4904 54.63 30.4904 54.8929C30.4904 55.0986 30.5162 55.2272 30.5677 55.2787C30.619 55.3301 30.7019 55.3559 30.8162 55.3559C30.9419 55.3559 31.0648 55.3101 31.1847 55.2186C31.3048 55.1272 31.4962 54.95 31.7591 54.6872C31.9535 54.4929 32.2221 54.1271 32.5651 53.5898C32.9079 53.0526 33.0793 52.7326 33.0793 52.6298C33.0793 52.5612 33.1307 52.4641 33.2336 52.3383C33.2908 52.2583 33.3451 52.1897 33.3966 52.1326C33.448 52.0754 33.5251 52.0182 33.6279 51.9611C33.6966 51.9382 33.7537 51.9267 33.7994 51.9267C33.9594 51.9267 34.1024 51.9896 34.2281 52.1154C34.2738 52.1611 34.3137 52.2697 34.348 52.4411C34.3823 52.6127 34.3994 52.7727 34.3994 52.9211C34.1595 53.8127 33.9709 54.3328 33.8338 54.4814C33.6166 54.6529 33.4337 54.8644 33.2852 55.1158C33.0108 55.4473 32.7964 55.6787 32.6421 55.8101C32.4878 55.9416 32.3878 56.0302 32.3422 56.076C32.0906 56.3274 31.7991 56.5274 31.4676 56.676C31.1362 56.8246 30.8276 56.8989 30.5419 56.8989C30.3132 56.8989 30.1304 56.8474 29.9932 56.7445C29.639 56.5616 29.4618 56.253 29.4618 55.8187C29.4618 55.7387 29.4503 55.6644 29.4274 55.5958C29.4046 55.5272 29.3875 55.4815 29.376 55.4587C29.2046 55.4587 29.0675 55.5502 28.9646 55.733C28.8046 56.0073 28.5102 56.2901 28.0817 56.5816C27.653 56.8732 27.33 57.0189 27.1129 57.0189ZM36.5597 57.1732C36.5254 57.1047 36.4283 57.0132 36.2684 56.8989C36.1083 56.7846 36.0283 56.716 36.0283 56.693C36.0283 56.6474 36.0025 56.5817 35.951 56.496C35.8997 56.4102 35.8511 56.333 35.8054 56.2645C35.714 56.1731 35.7769 55.8759 35.994 55.3729C36.2112 54.87 36.5027 54.2757 36.8684 53.5898C36.937 53.5212 37.0255 53.4012 37.1341 53.2298C37.2427 53.0584 37.3141 52.9613 37.3484 52.9383C37.3484 52.8926 37.3655 52.8498 37.3998 52.8099C37.4341 52.7698 37.4741 52.7498 37.5199 52.7498L37.6571 52.4755C37.7027 52.3726 37.9256 52.1268 38.3258 51.7382C38.7258 51.3496 39.0401 51.0867 39.2688 50.9495C39.4859 50.8009 39.7202 50.7266 39.9716 50.7266C40.2459 50.7266 40.4802 50.8067 40.6745 50.9667L41.1375 51.3611C41.4804 51.6468 41.6747 51.8125 41.7204 51.8583L42.3548 52.4239L42.0633 53.2813C41.9604 53.5899 41.909 53.8814 41.909 54.1556C41.909 54.5899 42.029 54.9957 42.269 55.3729C42.3262 55.4987 42.4034 55.5959 42.5005 55.6644C42.5977 55.733 42.7263 55.7787 42.8862 55.8015C43.1377 55.8472 43.2634 55.973 43.2634 56.1788C43.2634 56.4303 43.2177 56.6188 43.1263 56.7445C43.0348 56.8702 42.9262 56.9503 42.8006 56.9846C42.6177 57.0075 42.492 57.0189 42.4234 57.0189C42.092 57.0189 41.789 56.9332 41.5147 56.7617C41.2403 56.5903 41.0003 56.2988 40.7946 55.8873C40.7488 55.8187 40.6888 55.693 40.6145 55.5102C40.5402 55.3273 40.4974 55.2016 40.486 55.133C40.406 55.2472 40.2746 55.3958 40.0917 55.5788C38.9144 56.7674 37.96 57.3617 37.2284 57.3617C36.9769 57.3617 36.754 57.2989 36.5597 57.1732ZM37.5027 55.7501C37.6855 55.773 38.0399 55.5673 38.5657 55.133C38.6229 55.0872 38.6858 55.033 38.7544 54.9701C38.8229 54.9072 38.8972 54.8414 38.9772 54.7729C39.2972 54.51 39.5458 54.2899 39.723 54.1128C39.9002 53.9357 40.0803 53.7214 40.2632 53.4699L40.6403 52.8527C40.526 52.6012 40.4231 52.4326 40.3316 52.3469C40.2402 52.2611 40.1488 52.2182 40.0573 52.2182C39.8287 52.2182 39.5429 52.4211 39.2001 52.8269C38.8572 53.2327 38.4457 53.847 37.9656 54.67C37.8399 54.8757 37.737 55.09 37.6571 55.3129C37.5771 55.5358 37.5256 55.6815 37.5027 55.7501ZM49.9156 51.2066C50.0642 51.3667 50.1728 51.501 50.2414 51.6096C50.3101 51.7182 50.3444 51.8468 50.3444 51.9954C50.3444 52.2354 50.253 52.5212 50.0701 52.8527C49.9786 53.1156 49.8786 53.3613 49.77 53.5898C49.6614 53.8184 49.5785 53.967 49.5213 54.0356L49.1271 54.9443C48.9556 55.3215 48.7441 55.7616 48.4927 56.2645C48.184 56.9046 47.9669 57.3789 47.8412 57.6875L47.6183 58.0476C47.0468 58.9619 46.6067 59.602 46.2982 59.9678C46.0466 60.1964 45.7494 60.4335 45.4066 60.6793C45.0637 60.9251 44.7894 61.0651 44.5837 61.0994C44.3664 61.1451 44.1264 61.168 43.8636 61.168C43.3949 61.168 42.9777 61.088 42.6119 60.9279C42.2462 60.7679 42.0347 60.5735 41.9776 60.3449L41.9432 60.1392C41.9432 59.9449 42.0204 59.7934 42.1747 59.6848C42.3291 59.5763 42.4977 59.522 42.6805 59.522C42.7948 59.522 42.8806 59.5506 42.9376 59.6078C42.9606 59.6192 43.052 59.682 43.212 59.7963C43.372 59.9106 43.5892 59.9678 43.8636 59.9678C44.3779 59.9678 44.8808 59.6306 45.3722 58.9563C45.8523 58.1904 46.2181 57.5789 46.4696 57.1218C46.241 56.9846 46.0181 56.7531 45.801 56.4273C45.5837 56.1016 45.4865 55.8758 45.5095 55.7501V55.5616C45.418 55.5616 45.3522 55.3901 45.3122 55.0472C45.2722 54.7043 45.2522 54.2813 45.2522 53.7785C45.2522 53.2298 45.2636 52.847 45.2866 52.6298C45.3323 52.4469 45.358 52.2212 45.3636 51.9525C45.3694 51.6839 45.3722 51.5096 45.3722 51.4295C45.3609 51.2696 45.3923 51.1296 45.4666 51.0096C45.5409 50.8895 45.6124 50.8066 45.6809 50.7609C45.8295 50.7038 45.9495 50.6752 46.0409 50.6752C46.5667 50.6752 46.8296 51.2353 46.8296 52.3555C46.8296 52.5726 46.8239 52.7384 46.8124 52.8527C46.7896 53.4013 46.7782 53.7899 46.7782 54.0186C46.7782 54.8986 46.8982 55.4701 47.1381 55.733C47.2411 55.493 47.3269 55.3215 47.3954 55.2186C47.5554 54.8872 47.6468 54.6757 47.6697 54.5842C47.6926 54.5043 47.7554 54.3729 47.8582 54.19L48.0811 53.727C48.104 53.6585 48.1783 53.4385 48.304 53.067C48.4298 52.6955 48.5556 52.3954 48.6813 52.1668C48.727 52.0754 48.7955 51.9411 48.887 51.7639C48.9784 51.5867 49.0527 51.4581 49.1099 51.3781C49.167 51.2982 49.2299 51.2468 49.2984 51.2238C49.3899 51.1438 49.4871 51.1038 49.5899 51.1038C49.6928 51.1038 49.8013 51.1381 49.9156 51.2066ZM53.7562 57.7905C53.4818 57.7905 53.1989 57.7333 52.9075 57.619C52.616 57.5047 52.3703 57.3646 52.1703 57.1988C51.9703 57.0332 51.8702 56.8817 51.8702 56.7445C51.8702 56.6073 51.9331 56.5216 52.0589 56.4874L52.1445 56.4187C52.1674 56.4074 52.2131 56.4017 52.2818 56.4017C52.3274 56.3902 52.3846 56.3931 52.4532 56.4103C52.5218 56.4274 52.5789 56.4359 52.6245 56.4359C52.7046 56.4588 52.8246 56.4816 52.9847 56.5046L53.4305 56.556C53.6591 56.556 53.8734 56.5331 54.0733 56.4874C54.2734 56.4416 54.3734 56.3902 54.3734 56.3331C54.3734 56.2988 54.3277 56.2417 54.2362 56.1616C54.1448 56.0816 54.0477 56.0416 53.9448 56.0416C53.9448 55.9958 53.7677 55.8416 53.4133 55.5788C53.2189 55.4302 53.0332 55.2816 52.856 55.133C52.6789 54.9844 52.5903 54.8758 52.5903 54.8071L52.6075 54.7729V54.6872C52.5275 54.6872 52.4532 54.5786 52.3846 54.3613C52.3161 54.1442 52.2818 53.9327 52.2818 53.727C52.2818 53.3384 52.4532 52.9097 52.796 52.4411C53.1389 51.9725 53.5647 51.5496 54.0733 51.1724C54.5819 50.7952 55.0649 50.538 55.5221 50.4009C55.6935 50.3209 55.945 50.2809 56.2764 50.2809C56.4937 50.2809 56.6423 50.3037 56.7222 50.3495L56.8594 50.3153C56.9966 50.3153 57.1737 50.4295 57.3909 50.658C57.608 50.8866 57.7452 51.0695 57.8024 51.2066C57.8024 51.5839 57.791 51.8868 57.7682 52.1154C57.7453 52.344 57.6881 52.4583 57.5967 52.4583C57.5853 52.4583 57.5681 52.4641 57.5453 52.4755C57.5224 52.4869 57.5109 52.5154 57.5109 52.5612C57.5109 52.7212 57.3709 52.8984 57.0909 53.0926C56.8108 53.2869 56.5565 53.3841 56.328 53.3841L56.2594 53.3669C56.1908 53.3556 56.0908 53.287 55.9593 53.1612C55.8279 53.0356 55.7622 52.9098 55.7622 52.7841C55.7622 52.7498 55.8307 52.6583 55.9679 52.5097C56.105 52.3612 56.2222 52.2154 56.3194 52.0726C56.4165 51.9297 56.4651 51.7783 56.4651 51.6182C56.4651 51.5611 56.4451 51.524 56.4051 51.5068C56.365 51.4896 56.2879 51.481 56.1736 51.481C55.5449 51.7668 55.0935 52.0354 54.8192 52.2869C54.7849 52.3554 54.7535 52.4069 54.7248 52.4411C54.6962 52.4754 54.6591 52.4926 54.6135 52.4926C54.6135 52.4926 54.6135 52.4897 54.6135 52.484C54.6135 52.4783 54.6078 52.4755 54.5963 52.4755C54.5734 52.4755 54.4991 52.5412 54.3734 52.6726C54.2477 52.804 54.1305 52.9555 54.0219 53.127C53.9133 53.2984 53.8476 53.4584 53.8248 53.607L53.7904 53.6584V53.7442C53.7791 53.7671 53.7734 53.8127 53.7734 53.8813C53.7734 53.9842 53.8191 54.0899 53.9105 54.1985C54.0019 54.307 54.1848 54.4585 54.4591 54.6528C54.9734 55.0415 55.3249 55.3301 55.5135 55.5188C55.7021 55.7073 55.8193 55.8758 55.865 56.0244C55.9679 56.2302 56.0193 56.4131 56.0193 56.5732C56.0193 56.9617 55.8164 57.2617 55.4107 57.4732C55.0049 57.6847 54.4534 57.7905 53.7562 57.7905ZM66.6492 57.7905C66.3749 57.7905 66.0921 57.7333 65.8006 57.619C65.509 57.5047 65.2633 57.3646 65.0633 57.1988C64.8633 57.0332 64.7632 56.8817 64.7632 56.7445C64.7632 56.6073 64.8261 56.5216 64.9519 56.4874L65.0375 56.4187C65.0605 56.4074 65.1062 56.4017 65.1748 56.4017C65.2205 56.3902 65.2777 56.3931 65.3462 56.4103C65.4148 56.4274 65.472 56.4359 65.5177 56.4359C65.5976 56.4588 65.7176 56.4816 65.8777 56.5046L66.3234 56.556C66.5521 56.556 66.7663 56.5331 66.9663 56.4874C67.1664 56.4416 67.2664 56.3902 67.2664 56.3331C67.2664 56.2988 67.2207 56.2417 67.1293 56.1616C67.0378 56.0816 66.9407 56.0416 66.8378 56.0416C66.8378 55.9958 66.6606 55.8416 66.3063 55.5788C66.112 55.4302 65.9263 55.2816 65.749 55.133C65.5719 54.9844 65.4833 54.8758 65.4833 54.8071L65.5005 54.7729V54.6872C65.4205 54.6872 65.3462 54.5786 65.2776 54.3613C65.2091 54.1442 65.1748 53.9327 65.1748 53.727C65.1748 53.3384 65.3462 52.9097 65.6892 52.4411C66.032 51.9725 66.4577 51.5496 66.9663 51.1724C67.475 50.7952 67.958 50.538 68.4151 50.4009C68.5866 50.3209 68.8381 50.2809 69.1696 50.2809C69.3867 50.2809 69.5353 50.3037 69.6153 50.3495L69.7524 50.3153C69.8896 50.3153 70.0667 50.4295 70.284 50.658C70.5012 50.8866 70.6383 51.0695 70.6954 51.2066C70.6954 51.5839 70.684 51.8868 70.6612 52.1154C70.6382 52.344 70.5811 52.4583 70.4897 52.4583C70.4782 52.4583 70.4611 52.4641 70.4383 52.4755C70.4154 52.4869 70.4039 52.5154 70.4039 52.5612C70.4039 52.7212 70.2639 52.8984 69.9839 53.0926C69.7039 53.2869 69.4496 53.3841 69.221 53.3841L69.1524 53.3669C69.0838 53.3556 68.9838 53.287 68.8523 53.1612C68.7209 53.0356 68.6552 52.9098 68.6552 52.7841C68.6552 52.7498 68.7237 52.6583 68.8609 52.5097C68.9981 52.3612 69.1153 52.2154 69.2124 52.0726C69.3095 51.9297 69.3581 51.7783 69.3581 51.6182C69.3581 51.5611 69.3381 51.524 69.298 51.5068C69.258 51.4896 69.1809 51.481 69.0667 51.481C68.4381 51.7668 67.9866 52.0354 67.7122 52.2869C67.6779 52.3554 67.6465 52.4069 67.618 52.4411C67.5894 52.4754 67.5522 52.4926 67.5065 52.4926C67.5065 52.4926 67.5065 52.4897 67.5065 52.484C67.5065 52.4783 67.5008 52.4755 67.4893 52.4755C67.4665 52.4755 67.3922 52.5412 67.2664 52.6726C67.1406 52.804 67.0235 52.9555 66.9149 53.127C66.8063 53.2984 66.7406 53.4584 66.7178 53.607L66.6836 53.6584V53.7442C66.6721 53.7671 66.6664 53.8127 66.6664 53.8813C66.6664 53.9842 66.7121 54.0899 66.8034 54.1985C66.8949 54.307 67.0779 54.4585 67.3522 54.6528C67.8666 55.0415 68.218 55.3301 68.4065 55.5188C68.5951 55.7073 68.7123 55.8758 68.758 56.0244C68.8609 56.2302 68.9123 56.4131 68.9123 56.5732C68.9123 56.9617 68.7094 57.2617 68.3036 57.4732C67.8979 57.6847 67.3464 57.7905 66.6492 57.7905ZM72.9585 56.8817C72.7528 56.8474 72.5643 56.7331 72.3929 56.5388C72.2213 56.3444 72.1356 56.1216 72.1356 55.8701C72.1356 55.5959 72.307 54.8929 72.65 53.7613C72.7071 53.4641 72.8328 53.0812 73.0271 52.6126C73.0957 52.4183 73.1357 52.304 73.1472 52.2697C73.3529 51.5839 73.6329 50.7438 73.9873 49.7494L74.1416 49.3379C74.5416 48.2521 74.7816 47.5892 74.8617 47.3491L75.136 46.5948C75.136 46.5033 75.2017 46.4147 75.3331 46.3291C75.4646 46.2433 75.576 46.2004 75.6674 46.2004C75.8503 46.2004 76.0275 46.3204 76.199 46.5604C76.3704 46.8005 76.4618 47.052 76.4733 47.3149C76.4733 47.452 76.4447 47.5777 76.3875 47.692C76.1247 48.2635 75.799 49.1493 75.4103 50.3495C75.2389 50.8524 75.0674 51.3296 74.8959 51.7811C74.7245 52.2326 74.5873 52.5555 74.4845 52.7498L74.2959 53.127L74.0558 54.0356C74.0558 54.0699 74.0501 54.0985 74.0387 54.1214C74.0273 54.1442 74.0215 54.1614 74.0215 54.1728C74.0215 54.2071 74.0273 54.2242 74.0387 54.2242L74.3302 53.9327C74.6617 53.6013 75.056 53.2641 75.5131 52.9211C75.8904 52.6583 76.0847 52.5098 76.0962 52.4755C76.1075 52.4411 76.1532 52.3897 76.2332 52.3211L76.4047 52.184C76.7704 51.9211 77.1648 51.7897 77.5878 51.7897C77.7134 51.7897 77.862 51.8526 78.0335 51.9783C78.2049 52.104 78.3507 52.2783 78.4707 52.5012C78.5908 52.724 78.6508 52.9612 78.6508 53.2126V53.3499V53.4699C78.6508 53.7556 78.5964 54.1299 78.4877 54.5928C78.3792 55.0558 78.3192 55.3216 78.3078 55.3901C78.3649 55.3901 78.4507 55.3787 78.565 55.3559C78.7364 55.3559 78.8592 55.373 78.9335 55.4073C79.0078 55.4416 79.0736 55.4873 79.1308 55.5444C79.1879 55.6016 79.2393 55.6359 79.285 55.6472C79.3079 55.6702 79.3193 55.7044 79.3193 55.7501C79.3193 56.013 79.1764 56.2416 78.8907 56.4359C78.605 56.6303 78.3307 56.7388 78.0678 56.7617C77.7477 56.7617 77.4906 56.6417 77.2962 56.4017C77.1019 56.1616 77.0047 55.8701 77.0047 55.5272C77.0047 55.3901 77.0105 55.2529 77.0219 55.1158C77.0334 54.9787 77.0448 54.8586 77.0562 54.7557C77.0904 54.5272 77.1076 54.3443 77.1076 54.207C77.1076 54.0585 77.0933 53.9585 77.0648 53.9071C77.0362 53.8556 76.9876 53.8299 76.9191 53.8299C76.6905 53.8299 76.2932 54.0385 75.7274 54.4557C75.1617 54.8728 74.5874 55.4129 74.0043 56.076C73.6386 56.6131 73.29 56.8817 72.9585 56.8817ZM83.6914 50.3667C83.5771 50.2867 83.4856 50.1837 83.4169 50.058C83.3484 49.9323 83.3084 49.8123 83.2971 49.698C83.2856 49.5837 83.297 49.5151 83.3313 49.4922C83.3998 49.4122 83.4684 49.3037 83.537 49.1664C83.6055 49.0293 83.657 48.9322 83.6914 48.8751C83.7828 48.6693 83.8571 48.5207 83.9143 48.4293C83.9942 48.2692 84.0685 48.1835 84.137 48.172C84.2285 48.1263 84.3028 48.1034 84.3599 48.1034C84.5085 48.1034 84.6714 48.1549 84.8487 48.2578C85.0258 48.3607 85.1601 48.4807 85.2515 48.6178C85.3315 48.8007 85.3715 48.9607 85.3715 49.098C85.3715 49.3722 85.24 49.6751 84.9771 50.0066C84.8628 50.1551 84.7257 50.2695 84.5658 50.3495C84.4057 50.4295 84.2457 50.4695 84.0856 50.4695C83.9256 50.4695 83.7943 50.4352 83.6914 50.3667ZM81.8397 57.2417C81.6796 57.0817 81.5996 56.796 81.5996 56.3845C81.5996 56.1674 81.6282 56.0016 81.6854 55.8873C81.6854 55.8301 81.6968 55.7615 81.7196 55.6816C81.7426 55.6016 81.754 55.5501 81.754 55.5272C81.7426 55.4586 81.7882 55.2701 81.8911 54.9615C82.0282 54.6529 82.2026 54.1785 82.4141 53.5384C82.6255 52.8984 82.7712 52.4412 82.8513 52.1668C82.8513 52.1097 82.8741 52.0612 82.9197 52.0212C82.9655 51.9811 83.0341 51.9554 83.1256 51.9439C83.2512 51.8982 83.4112 51.9525 83.6056 52.1068C83.7999 52.2611 83.9599 52.4355 84.0856 52.6298C84.1543 52.6984 84.1886 52.7898 84.1886 52.9041C84.1886 53.0755 84.1143 53.3156 83.9657 53.6242C83.9085 53.7499 83.8542 53.9041 83.8028 54.087C83.7514 54.2699 83.7085 54.4413 83.6742 54.6014C83.5371 54.91 83.4285 55.1958 83.3485 55.4587C83.3142 55.6073 83.2913 55.7216 83.2798 55.8015C83.1998 56.2245 83.1255 56.4988 83.057 56.6246C82.9884 56.9103 82.8912 57.1246 82.7655 57.2675C82.6398 57.4103 82.4969 57.4818 82.3369 57.4818C82.1425 57.4818 81.9768 57.4017 81.8397 57.2417ZM85.8517 61.528L85.6972 61.5452C85.5829 61.5452 85.4972 61.4938 85.4401 61.3909C85.4287 61.3794 85.3772 61.3108 85.2858 61.1851C85.1944 61.0594 85.1486 60.8765 85.1486 60.6364C85.1486 60.5907 85.1601 60.4992 85.183 60.3621C85.3087 59.8821 85.3715 59.5506 85.3715 59.3677C85.3715 59.3106 85.383 59.2278 85.4059 59.1192C85.4287 59.0106 85.4459 58.9106 85.4573 58.8191C85.503 58.7391 85.5458 58.6162 85.5858 58.4505C85.6258 58.2847 85.6458 58.139 85.6458 58.0134C85.6458 57.9561 85.6658 57.8904 85.7058 57.8161C85.7458 57.7418 85.7945 57.6818 85.8517 57.636C85.8517 57.5675 85.8688 57.4618 85.9031 57.3189C85.9374 57.176 85.9602 57.076 85.9715 57.0189C86.0288 56.7103 86.2516 55.9787 86.6402 54.8243C87.0289 53.6698 87.3604 52.7383 87.6346 52.0297C87.7719 51.7096 87.8862 51.4125 87.9775 51.1382C88.069 50.8638 88.1148 50.6695 88.1148 50.5552C88.1148 50.5094 88.1291 50.4666 88.1576 50.4267C88.1862 50.3867 88.2347 50.3323 88.3033 50.2637C88.3948 50.1723 88.5148 50.1266 88.6634 50.1266C88.8577 50.1266 89.0464 50.1895 89.2292 50.3153C89.3092 50.4409 89.3662 50.5495 89.4005 50.641C89.4349 50.7324 89.4521 50.8352 89.4521 50.9495C89.4521 50.9838 89.4407 51.0924 89.4177 51.2753C89.4177 51.5154 89.3492 51.7325 89.212 51.9267C89.0749 52.1211 89.012 52.2125 89.0234 52.201C89.5835 51.8582 90.1035 51.6868 90.5836 51.6868C91.0979 51.6868 91.5094 51.8668 91.8181 52.2268C92.1266 52.5869 92.2809 53.0126 92.2809 53.5042C92.2809 53.6985 92.1894 53.9871 92.0066 54.3699C91.8237 54.7529 91.6751 54.9958 91.5608 55.0986C91.4922 55.0986 91.4008 55.2186 91.2865 55.4587C91.1494 55.6416 90.8894 55.833 90.5065 56.033C90.1236 56.2331 89.8636 56.3102 89.7264 56.2645C89.715 56.2645 89.6978 56.2787 89.675 56.3073C89.6521 56.336 89.6406 56.3731 89.6406 56.4187C89.6406 56.4645 89.4691 56.5445 89.1262 56.6588C88.7834 56.7731 88.4863 56.8303 88.2348 56.8303C88.0976 56.8303 87.9947 56.8217 87.9261 56.8045C87.8576 56.7874 87.789 56.7503 87.7204 56.693C87.6404 56.7731 87.6004 56.8474 87.6004 56.9159C87.6004 57.0303 87.5432 57.2103 87.4289 57.4561C87.3146 57.7018 87.2232 57.8247 87.1546 57.8247C87.1432 57.8362 87.1289 57.859 87.1118 57.8933C87.0946 57.9276 87.1089 57.9676 87.1546 58.0134C87.1546 58.0476 87.1489 58.1276 87.1374 58.2533C87.1261 58.379 87.0975 58.4762 87.0518 58.5448C87.0518 58.6476 87.0346 58.7876 87.0003 58.9648C86.9661 59.142 86.926 59.2763 86.8803 59.3677C86.8803 59.5048 86.8603 59.6392 86.8203 59.7707C86.7803 59.9021 86.7374 59.9678 86.6916 59.9678C86.6231 59.9907 86.5888 60.1564 86.5888 60.465C86.5774 60.7393 86.4889 60.9851 86.3231 61.2022C86.1574 61.4194 86.0003 61.528 85.8517 61.528ZM88.0462 55.5272C88.2062 55.5272 88.5063 55.4386 88.9463 55.2615C89.3864 55.0843 89.7092 54.9101 89.9149 54.7386C90.1778 54.5215 90.3778 54.3215 90.515 54.1386C90.6522 53.9556 90.7208 53.7727 90.7208 53.5898C90.7208 53.4299 90.6693 53.2756 90.5664 53.127C90.4865 53.0012 90.3665 52.9383 90.2064 52.9383C89.8292 52.9383 89.3377 53.2298 88.732 53.8127C88.5262 54.03 88.3433 54.3015 88.1832 54.6272C88.0233 54.9529 87.9433 55.2015 87.9433 55.3729C87.9433 55.4758 87.9776 55.5272 88.0462 55.5272ZM93.704 61.528L93.5498 61.5452C93.4355 61.5452 93.3497 61.4938 93.2925 61.3909C93.2811 61.3794 93.2297 61.3108 93.1382 61.1851C93.0467 61.0594 93.001 60.8765 93.001 60.6364C93.001 60.5907 93.0124 60.4992 93.0354 60.3621C93.161 59.8821 93.2239 59.5506 93.2239 59.3677C93.2239 59.3106 93.2353 59.2278 93.2583 59.1192C93.2811 59.0106 93.2982 58.9106 93.3097 58.8191C93.3554 58.7391 93.3983 58.6162 93.4383 58.4505C93.4782 58.2847 93.4982 58.139 93.4982 58.0134C93.4982 57.9561 93.5182 57.8904 93.5582 57.8161C93.5982 57.7418 93.6468 57.6818 93.704 57.636C93.704 57.5675 93.7212 57.4618 93.7555 57.3189C93.7897 57.176 93.8126 57.076 93.8241 57.0189C93.8812 56.7103 94.1041 55.9787 94.4927 54.8243C94.8813 53.6698 95.2128 52.7383 95.4871 52.0297C95.6243 51.7096 95.7385 51.4125 95.8299 51.1382C95.9214 50.8638 95.9671 50.6695 95.9671 50.5552C95.9671 50.5094 95.9814 50.4666 96.01 50.4267C96.0385 50.3867 96.0871 50.3323 96.1556 50.2637C96.2471 50.1723 96.3672 50.1266 96.5158 50.1266C96.7101 50.1266 96.8987 50.1895 97.0816 50.3153C97.1616 50.4409 97.2188 50.5495 97.2531 50.641C97.2873 50.7324 97.3045 50.8352 97.3045 50.9495C97.3045 50.9838 97.293 51.0924 97.2701 51.2753C97.2701 51.5154 97.2015 51.7325 97.0644 51.9267C96.9273 52.1211 96.8644 52.2125 96.8757 52.201C97.4358 51.8582 97.9559 51.6868 98.436 51.6868C98.9503 51.6868 99.3618 51.8668 99.6704 52.2268C99.9791 52.5869 100.133 53.0126 100.133 53.5042C100.133 53.6985 100.042 53.9871 99.8591 54.3699C99.6762 54.7529 99.5276 54.9958 99.4133 55.0986C99.3448 55.0986 99.2533 55.2186 99.139 55.4587C99.0018 55.6416 98.7417 55.833 98.3589 56.033C97.976 56.2331 97.7159 56.3102 97.5788 56.2645C97.5673 56.2645 97.5502 56.2787 97.5274 56.3073C97.5044 56.336 97.493 56.3731 97.493 56.4187C97.493 56.4645 97.3216 56.5445 96.9787 56.6588C96.6358 56.7731 96.3386 56.8303 96.0872 56.8303C95.9499 56.8303 95.847 56.8217 95.7785 56.8045C95.7099 56.7874 95.6414 56.7503 95.5728 56.693C95.4928 56.7731 95.4527 56.8474 95.4527 56.9159C95.4527 57.0303 95.3956 57.2103 95.2813 57.4561C95.167 57.7018 95.0755 57.8247 95.007 57.8247C94.9956 57.8362 94.9813 57.859 94.9641 57.8933C94.9469 57.9276 94.9612 57.9676 95.007 58.0134C95.007 58.0476 95.0013 58.1276 94.9899 58.2533C94.9785 58.379 94.9499 58.4762 94.9041 58.5448C94.9041 58.6476 94.887 58.7876 94.8527 58.9648C94.8184 59.142 94.7784 59.2763 94.7327 59.3677C94.7327 59.5048 94.7126 59.6392 94.6726 59.7707C94.6326 59.9021 94.5898 59.9678 94.5442 59.9678C94.4755 59.9907 94.4411 60.1564 94.4411 60.465C94.4298 60.7393 94.3412 60.9851 94.1754 61.2022C94.0098 61.4194 93.8526 61.528 93.704 61.528ZM95.8985 55.5272C96.0586 55.5272 96.3586 55.4386 96.7987 55.2615C97.2387 55.0843 97.5616 54.9101 97.7673 54.7386C98.0302 54.5215 98.2303 54.3215 98.3675 54.1386C98.5046 53.9556 98.5732 53.7727 98.5732 53.5898C98.5732 53.4299 98.5218 53.2756 98.4189 53.127C98.3389 53.0012 98.2189 52.9383 98.0588 52.9383C97.6816 52.9383 97.1901 53.2298 96.5844 53.8127C96.3786 54.03 96.1957 54.3015 96.0358 54.6272C95.8757 54.9529 95.7957 55.2015 95.7957 55.3729C95.7957 55.4758 95.83 55.5272 95.8985 55.5272ZM104.128 50.3667C104.014 50.2867 103.922 50.1837 103.854 50.058C103.785 49.9323 103.745 49.8123 103.734 49.698C103.722 49.5837 103.734 49.5151 103.768 49.4922C103.837 49.4122 103.905 49.3037 103.974 49.1664C104.042 49.0293 104.094 48.9322 104.128 48.8751C104.22 48.6693 104.294 48.5207 104.351 48.4293C104.431 48.2692 104.505 48.1835 104.574 48.172C104.665 48.1263 104.74 48.1034 104.797 48.1034C104.945 48.1034 105.108 48.1549 105.285 48.2578C105.463 48.3607 105.597 48.4807 105.688 48.6178C105.768 48.8007 105.808 48.9607 105.808 49.098C105.808 49.3722 105.677 49.6751 105.414 50.0066C105.3 50.1551 105.163 50.2695 105.003 50.3495C104.843 50.4295 104.682 50.4695 104.522 50.4695C104.362 50.4695 104.231 50.4352 104.128 50.3667ZM102.276 57.2417C102.116 57.0817 102.036 56.796 102.036 56.3845C102.036 56.1674 102.065 56.0016 102.122 55.8873C102.122 55.8301 102.134 55.7615 102.156 55.6816C102.179 55.6016 102.191 55.5501 102.191 55.5272C102.179 55.4586 102.225 55.2701 102.328 54.9615C102.465 54.6529 102.639 54.1785 102.851 53.5384C103.062 52.8984 103.208 52.4412 103.288 52.1668C103.288 52.1097 103.311 52.0612 103.357 52.0212C103.402 51.9811 103.471 51.9554 103.562 51.9439C103.688 51.8982 103.848 51.9525 104.042 52.1068C104.237 52.2611 104.397 52.4355 104.522 52.6298C104.591 52.6984 104.625 52.7898 104.625 52.9041C104.625 53.0755 104.551 53.3156 104.403 53.6242C104.345 53.7499 104.291 53.9041 104.24 54.087C104.188 54.2699 104.145 54.4413 104.111 54.6014C103.974 54.91 103.865 55.1958 103.785 55.4587C103.751 55.6073 103.728 55.7216 103.717 55.8015C103.637 56.2245 103.562 56.4988 103.494 56.6246C103.425 56.9103 103.328 57.1246 103.202 57.2675C103.077 57.4103 102.934 57.4818 102.774 57.4818C102.579 57.4818 102.414 57.4017 102.276 57.2417ZM112.821 57.1218C112.101 57.0989 111.74 56.6931 111.74 55.9045C111.74 55.6873 111.758 55.4759 111.792 55.2701C111.815 55.0186 111.826 54.8415 111.826 54.7386V54.6528V54.4643C111.792 54.2357 111.718 54.1214 111.603 54.1214C111.398 54.1214 111.018 54.3185 110.463 54.7128C109.909 55.1071 109.329 55.5787 108.723 56.1274C108.54 56.3216 108.386 56.5045 108.26 56.676C108.146 56.8246 108.06 56.916 108.003 56.9503C107.946 56.9846 107.854 57.0018 107.729 57.0018C107.569 56.9788 107.386 56.8588 107.18 56.6416C106.974 56.4245 106.837 56.2302 106.768 56.0588C106.768 55.7388 106.826 55.433 106.94 55.1414C107.054 54.85 107.226 54.4814 107.454 54.0356C107.557 53.6928 107.689 53.3499 107.849 53.007C108.02 52.6069 108.143 52.3012 108.217 52.0898C108.292 51.8782 108.34 51.6582 108.363 51.4295C108.363 51.4182 108.36 51.4125 108.354 51.4125C108.349 51.4125 108.346 51.4125 108.346 51.4125C108.346 51.3668 108.363 51.3267 108.397 51.2925C108.432 51.2582 108.472 51.241 108.517 51.241C108.54 51.2068 108.609 51.1896 108.723 51.1896C109.02 51.1896 109.277 51.2696 109.495 51.4295C109.712 51.5896 109.82 51.8354 109.82 52.1668C109.82 52.3382 109.789 52.5011 109.726 52.6554C109.663 52.8097 109.546 53.0641 109.375 53.4185L109.186 53.7957C109.152 53.8642 109.1 53.9642 109.032 54.0956C108.963 54.2271 108.929 54.31 108.929 54.3443C109.214 54.15 109.552 53.8928 109.94 53.5728C110.512 53.1155 110.98 52.7612 111.346 52.5097C111.712 52.2583 111.981 52.1326 112.152 52.1326C112.301 52.1326 112.509 52.2154 112.778 52.3811C113.046 52.5469 113.204 52.6984 113.249 52.8355C113.249 52.9155 113.241 53.0356 113.223 53.1956C113.206 53.3556 113.192 53.4984 113.181 53.6242L113.198 54.1556C113.209 54.2471 113.215 54.3843 113.215 54.5672C113.215 54.9329 113.192 55.1901 113.146 55.3387C113.158 55.3501 113.169 55.3673 113.181 55.3901C113.192 55.4129 113.198 55.4301 113.198 55.4415L113.181 55.4758C113.192 55.5901 113.255 55.7729 113.369 56.0244C113.484 56.2759 113.541 56.4131 113.541 56.4359C113.541 56.5617 113.458 56.7017 113.292 56.8559C113.126 57.0102 112.969 57.0989 112.821 57.1218ZM121.702 52.4411C121.747 52.5326 121.77 52.6469 121.77 52.7841C121.77 53.047 121.685 53.2927 121.513 53.5213C121.479 53.5784 121.416 53.667 121.325 53.7871C121.233 53.9071 121.153 54.03 121.084 54.1556C121.016 54.2814 120.964 54.4243 120.93 54.5842C120.896 54.8015 120.83 55.0615 120.733 55.3643C120.636 55.6672 120.57 55.8701 120.536 55.973C120.444 56.213 120.342 56.5331 120.227 56.9331L119.953 57.9962C119.702 58.8648 119.41 59.5363 119.079 60.0108C118.747 60.4851 118.439 60.8022 118.153 60.9622C118.004 61.0194 117.861 61.048 117.724 61.048C117.473 61.048 117.213 60.9651 116.944 60.7993C116.675 60.6336 116.444 60.4079 116.25 60.122C116.124 59.9506 115.964 59.6278 115.77 59.1534C115.575 58.6791 115.512 58.4248 115.581 58.3905C115.627 58.2305 115.793 58.1504 116.078 58.1504C116.215 58.1504 116.341 58.1704 116.455 58.2104C116.57 58.2505 116.633 58.299 116.644 58.3561C116.747 58.6533 116.873 58.8819 117.021 59.042C117.113 59.1906 117.213 59.3049 117.321 59.3849C117.43 59.4649 117.535 59.505 117.638 59.505C117.707 59.505 117.753 59.4935 117.776 59.4706C117.958 59.3334 118.098 59.1677 118.196 58.9734C118.293 58.779 118.427 58.419 118.598 57.8933C118.861 56.9788 119.067 56.3273 119.216 55.9387C119.25 55.813 119.307 55.6701 119.387 55.5102L119.079 55.7501C118.964 55.8416 118.839 55.9359 118.701 56.033C118.564 56.1302 118.416 56.2131 118.256 56.2817C118.176 56.3845 117.976 56.4359 117.655 56.4359C117.416 56.4359 117.187 56.4016 116.97 56.3331C116.753 56.2188 116.59 56.0873 116.481 55.9387C116.372 55.7901 116.261 55.5673 116.147 55.2701C116.101 55.1787 116.078 55.0358 116.078 54.8415C116.078 54.35 116.193 53.8242 116.421 53.2641C116.638 52.8183 116.981 52.344 117.45 51.8411C117.918 51.3382 118.324 51.0353 118.667 50.9323C118.941 50.7952 119.227 50.7266 119.524 50.7266C119.65 50.7266 119.742 50.738 119.799 50.7609C119.982 50.7838 120.124 50.8238 120.227 50.8809C120.33 50.9381 120.502 51.0696 120.742 51.2753C121.29 51.8239 121.61 52.2125 121.702 52.4411ZM119.37 54.0528C119.576 53.7671 119.716 53.5099 119.79 53.2813C119.864 53.0526 119.89 52.8012 119.867 52.527C119.856 52.2411 119.73 52.0982 119.49 52.0982C119.25 52.0982 119.041 52.1668 118.864 52.3041C118.687 52.4412 118.456 52.6869 118.17 53.0412C117.998 53.2698 117.856 53.5441 117.741 53.8641C117.638 54.1499 117.587 54.3957 117.587 54.6014C117.587 54.8528 117.656 55.0072 117.793 55.0644C118.158 55.0529 118.444 54.99 118.65 54.8757C118.856 54.7614 119.096 54.4871 119.37 54.0528Z" fill="black"/>
</svg>
