<svg width="64" height="24" viewBox="0 0 64 24" fill="none" xmlns="http://www.w3.org/2000/svg">
<path d="M23.0495 19.0716C22.333 19.5462 21.6564 19.9146 21.0195 20.1769C20.3826 20.4391 19.6369 20.6659 18.7822 20.8572C18.5883 19.3898 18.3188 17.685 17.9737 15.7428C17.6287 13.8006 17.2439 11.7477 16.8193 9.58399C16.49 10.5852 16.2026 11.6069 15.9573 12.649C15.7119 13.6912 15.5085 14.754 15.3472 15.8373C15.0276 16.0135 14.6309 16.1621 14.1569 16.2832C13.6828 16.4043 13.2155 16.4715 12.7548 16.4849C12.1344 15.6515 11.4894 14.8423 10.8201 14.0572C10.1507 13.2721 9.45839 12.5184 8.74319 11.7959C9.12904 13.5196 9.60708 15.2039 10.1773 16.8488C10.7475 18.4937 11.3224 19.8422 11.902 20.8942C11.5429 21.0942 10.9811 21.3247 10.2168 21.5855C9.45254 21.8465 8.73564 22.0518 8.06614 22.2017C7.37773 20.3962 6.61643 18.0648 5.78225 15.2075C4.94807 12.3502 4.28383 9.81751 3.78955 7.60955C4.30642 7.0451 4.89816 6.5312 5.56475 6.06786C6.23141 5.60445 6.87568 5.25828 7.49754 5.02932C8.81973 6.12443 9.94905 7.14307 10.8855 8.08522C11.8219 9.02744 12.6487 9.96425 13.3658 10.8957C13.6265 9.52097 13.9525 8.18772 14.344 6.89589C14.7353 5.60407 15.1826 4.37829 15.6859 3.21858C16.2748 3.17644 16.8725 3.1735 17.479 3.20974C18.0855 3.24599 18.6722 3.32781 19.2392 3.4552C19.7759 5.38437 20.3832 7.74649 21.0612 10.5416C21.7394 13.3366 22.4021 16.18 23.0495 19.0716ZM28.1007 18.9424C26.5553 19.0197 25.3558 18.5608 24.5021 17.5658C23.6485 16.5708 23.1732 15.1038 23.0763 13.1648C23.0231 12.1005 23.0805 10.9832 23.2484 9.81285C23.4165 8.64252 23.5993 7.84047 23.7968 7.40671C24.1277 7.3025 24.4634 7.21993 24.8039 7.15902C25.1443 7.09818 25.4603 7.06047 25.7519 7.0459C26.2038 7.02325 26.5953 7.03289 26.9262 7.07484C27.2572 7.11672 27.5127 7.18433 27.6927 7.27768C27.6008 8.07147 27.5389 8.8784 27.5069 9.69847C27.4748 10.5186 27.4777 11.3077 27.5156 12.0658C27.5827 13.407 27.7152 14.4491 27.9131 15.192C28.1111 15.9347 28.3558 16.2989 28.6473 16.2843C28.9243 16.2704 29.1215 15.8294 29.2389 14.9612C29.3562 14.093 29.3803 12.9664 29.311 11.5813C29.2782 10.9253 29.215 10.2452 29.1213 9.54107C29.0276 8.83687 28.9447 8.34774 28.8725 8.07367C29.4149 7.81267 30.0908 7.59252 30.9003 7.41322C31.7098 7.23385 32.5009 7.12488 33.2736 7.0863C33.3632 7.41791 33.4394 7.84523 33.5021 8.36826C33.5648 8.89128 33.6115 9.45896 33.6422 10.0713C33.7821 12.8705 33.3856 15.0242 32.4525 16.5325C31.5194 18.0407 30.0688 18.844 28.1007 18.9424ZM46.6613 8.05114C46.0613 9.77291 45.2811 11.5453 44.3209 13.3684C43.3606 15.1914 42.3241 16.8761 41.2115 18.4226C40.8355 18.5373 40.3426 18.6054 39.7329 18.6269C39.1231 18.6485 38.3382 18.6186 37.3782 18.5372C37.1702 16.4979 36.8288 14.4766 36.354 12.4733C35.8792 10.47 35.2784 8.48529 34.5515 6.51916C35.2306 6.28374 35.9842 6.12055 36.8123 6.0296C37.6404 5.93866 38.4914 5.92293 39.3654 5.98241C39.6511 7.10536 39.8865 8.43279 40.0716 9.96471C40.2567 11.4966 40.3766 13.0633 40.4313 14.6647C40.9007 13.6205 41.3516 12.4062 41.7839 11.0218C42.2163 9.63739 42.5861 8.25504 42.8935 6.87472C43.5298 6.97266 44.1727 7.12238 44.8223 7.32389C45.4717 7.52546 46.0847 7.76788 46.6613 8.05114ZM51.7941 3.90553C52.2243 3.98781 52.6189 4.10041 52.9779 4.24333C53.337 4.38632 53.6333 4.54698 53.8666 4.72531C53.6801 5.00178 53.4524 5.41528 53.1837 5.96581C52.915 6.51628 52.7023 7.00691 52.5456 7.43769C52.0417 7.4305 51.4852 7.3873 50.8762 7.30806C50.2671 7.22877 49.584 7.10931 48.8269 6.94968C48.7868 6.61509 48.7719 6.28529 48.782 5.96028C48.7921 5.63526 48.8259 5.32219 48.8835 5.02107C48.9274 4.79166 48.9765 4.593 49.0309 4.42509C49.0852 4.25712 49.1476 4.10555 49.2181 3.97039C49.5835 3.84708 49.9787 3.78148 50.4038 3.77358C50.8289 3.76562 51.2923 3.8096 51.7941 3.90553ZM47.7686 8.75373C48.1996 8.59831 48.6841 8.5126 49.2222 8.49661C49.7604 8.48056 50.3305 8.53011 50.9327 8.64527C51.2194 8.7001 51.4999 8.76855 51.7739 8.85063C52.0481 8.93277 52.31 9.02003 52.5598 9.1124C52.0662 9.98399 51.5066 11.4152 50.8808 13.4059C50.255 15.3966 49.6675 17.5953 49.1183 20.002C48.787 20.1021 48.3795 20.1542 47.8957 20.1583C47.4119 20.1625 46.9191 20.1166 46.4172 20.0206C46.2022 19.9795 46.0172 19.9367 45.8622 19.8922C45.7073 19.8477 45.5752 19.8002 45.4659 19.7495C45.6428 17.6582 45.9258 15.6725 46.3149 13.7926C46.7041 11.9127 47.1886 10.2331 47.7686 8.75373ZM58.218 17.3281C58.6795 17.5197 59.1317 17.7846 59.5744 18.1227C60.0171 18.4607 60.3912 18.84 60.6968 19.2606C60.4099 20.2717 59.8508 21.0386 59.0197 21.5614C58.1885 22.0843 57.2112 22.1863 56.0878 21.8675C54.6694 21.4651 53.713 20.6512 53.2186 19.4259C52.7241 18.2007 52.7479 16.6332 53.2898 14.7234C53.4173 14.274 53.5568 13.8091 53.7083 13.3286C53.8598 12.8481 54.0323 12.347 54.2259 11.8254C53.957 11.7035 53.7041 11.5787 53.4673 11.4508C53.2305 11.3229 53.0218 11.2029 52.8411 11.0909C52.9686 10.6416 53.1323 10.2252 53.332 9.84188C53.5318 9.45854 53.7409 9.17645 53.9592 8.99559C54.0876 9.0776 54.2467 9.17205 54.4364 9.27892C54.626 9.38585 54.8623 9.50224 55.1453 9.62807C55.3929 9.07624 55.6232 8.59912 55.8359 8.19669C56.0488 7.79426 56.2521 7.4385 56.4461 7.12941C57.2887 7.36846 58.0917 7.65321 58.8552 7.98366C59.6188 8.31411 60.2224 8.63332 60.6661 8.94131C60.4862 9.25448 60.2883 9.60425 60.0725 9.99063C59.8566 10.377 59.6518 10.7779 59.4581 11.1933C60.0439 11.3746 60.6101 11.5315 61.1568 11.6639C61.7034 11.7963 62.1883 11.8921 62.6115 11.9515C62.5198 12.2745 62.3811 12.6296 62.1953 13.0169C62.0095 13.4043 61.8056 13.7485 61.5836 14.0497C61.2127 14.0203 60.7483 13.9454 60.1907 13.8251C59.6331 13.7048 59.0543 13.5519 58.4544 13.3666C58.2328 13.8803 58.0252 14.398 57.8316 14.9197C57.6381 15.4414 57.4736 15.9409 57.3381 16.4184C57.0034 17.598 56.8194 18.4069 56.7861 18.8451C56.7528 19.2833 56.8345 19.5302 57.0311 19.586C57.1574 19.6219 57.3305 19.4396 57.5504 19.0392C57.7702 18.6388 57.9928 18.0684 58.218 17.3281Z" fill="black" stroke="black" stroke-width="2.68933" stroke-linecap="round" stroke-linejoin="round"/>
<path d="M20.6486 17.6853C19.9322 18.1598 19.2555 18.5282 18.6186 18.7905C17.9817 19.0528 17.236 19.2795 16.3813 19.4709C16.1874 18.0034 15.9179 16.2986 15.5728 14.3565C15.2278 12.4143 14.843 10.3614 14.4184 8.19767C14.0891 9.19886 13.8018 10.2205 13.5564 11.2627C13.311 12.3049 13.1077 13.3677 12.9463 14.4509C12.6268 14.6271 12.23 14.7758 11.756 14.8969C11.282 15.0179 10.8146 15.0852 10.3539 15.0986C9.73348 14.2652 9.08857 13.4559 8.41919 12.6709C7.74981 11.8858 7.05751 11.1321 6.34231 10.4096C6.72817 12.1333 7.2062 13.8175 7.77641 15.4625C8.34662 17.1074 8.92153 18.4559 9.50113 19.5079C9.142 19.7079 8.58027 19.9383 7.81593 20.1992C7.05166 20.4601 6.33477 20.6655 5.66526 20.8154C4.97685 19.0099 4.21555 16.6785 3.38137 13.8212C2.54719 10.9638 1.88295 8.43119 1.38867 6.22323C1.90555 5.65878 2.49728 5.14488 3.16388 4.68154C3.83054 4.21813 4.4748 3.87195 5.09666 3.643C6.41885 4.73811 7.54817 5.75674 8.48463 6.6989C9.42102 7.64112 10.2478 8.57793 10.9649 9.50934C11.2256 8.13465 11.5517 6.8014 11.9431 5.50957C12.3344 4.21774 12.7818 2.99197 13.285 1.83226C13.874 1.79012 14.4717 1.78717 15.0781 1.82342C15.6846 1.85967 16.2713 1.94149 16.8384 2.06888C17.375 3.99805 17.9823 6.36016 18.6604 9.15523C19.3385 11.9503 20.0012 14.7936 20.6486 17.6853ZM25.6998 17.5561C24.1544 17.6333 22.9549 17.1745 22.1013 16.1794C21.2477 15.1845 20.7724 13.7175 20.6754 11.7785C20.6222 10.7142 20.6796 9.59685 20.8476 8.42652C21.0156 7.2562 21.1984 6.45415 21.396 6.02039C21.7269 5.91618 22.0625 5.83361 22.403 5.7727C22.7434 5.71185 23.0594 5.67415 23.351 5.65958C23.8029 5.63693 24.1944 5.64657 24.5253 5.68852C24.8563 5.7304 25.1118 5.79801 25.2918 5.89135C25.2 6.68514 25.138 7.49208 25.106 8.31215C25.0739 9.13228 25.0769 9.92138 25.1147 10.6794C25.1818 12.0207 25.3143 13.0628 25.5122 13.8056C25.7102 14.5484 25.9549 14.9125 26.2465 14.898C26.5235 14.8841 26.7206 14.4431 26.838 13.5748C26.9553 12.7067 26.9794 11.5801 26.9101 10.195C26.8774 9.53898 26.8141 8.85889 26.7204 8.15475C26.6267 7.45055 26.5438 6.96141 26.4716 6.68734C27.014 6.42635 27.6899 6.2062 28.4994 6.0269C29.3089 5.84753 30.1 5.73856 30.8727 5.69998C30.9623 6.03159 31.0385 6.45891 31.1013 6.98193C31.1639 7.50496 31.2106 8.07264 31.2413 8.68499C31.3812 11.4842 30.9847 13.6379 30.0517 15.1461C29.1186 16.6544 27.668 17.4577 25.6998 17.5561ZM44.2605 6.66482C43.6604 8.38658 42.8802 10.159 41.92 11.9821C40.9597 13.8051 39.9232 15.4898 38.8106 17.0363C38.4346 17.1509 37.9418 17.219 37.332 17.2406C36.7222 17.2621 35.9373 17.2322 34.9773 17.1509C34.7693 15.1115 34.4279 13.0902 33.9532 11.087C33.4784 9.08367 32.8775 7.09897 32.1506 5.13284C32.8297 4.89741 33.5834 4.73423 34.4115 4.64328C35.2396 4.55234 36.0906 4.5366 36.9645 4.59609C37.2502 5.71904 37.4856 7.04647 37.6708 8.57838C37.8558 10.1103 37.9757 11.677 38.0304 13.2784C38.4998 12.2342 38.9507 11.0199 39.3831 9.63546C39.8154 8.25107 40.1853 6.86872 40.4927 5.4884C41.129 5.58634 41.7719 5.73606 42.4214 5.93757C43.0708 6.13914 43.6838 6.38156 44.2605 6.66482ZM49.3932 2.51921C49.8234 2.60149 50.218 2.71408 50.577 2.85701C50.9362 3 51.2324 3.16066 51.4658 3.33899C51.2792 3.61546 51.0515 4.02896 50.7828 4.57949C50.5141 5.12996 50.3014 5.62058 50.1448 6.05136C49.6408 6.04418 49.0843 6.00097 48.4753 5.92174C47.8662 5.84245 47.1832 5.72299 46.426 5.56336C46.3859 5.22877 46.371 4.89897 46.3811 4.57395C46.3912 4.24894 46.4251 3.93587 46.4826 3.63475C46.5265 3.40534 46.5756 3.20668 46.63 3.03877C46.6844 2.8708 46.7468 2.71923 46.8172 2.58407C47.1826 2.46076 47.5778 2.39516 48.0029 2.38726C48.428 2.3793 48.8915 2.42328 49.3932 2.51921ZM45.3677 7.3674C45.7987 7.21199 46.2833 7.12628 46.8214 7.11029C47.3595 7.09424 47.9296 7.14379 48.5318 7.25895C48.8186 7.31377 49.099 7.38223 49.3731 7.4643C49.6472 7.54645 49.9091 7.63371 50.1589 7.72608C49.6654 8.59767 49.1057 10.0288 48.48 12.0196C47.8541 14.0103 47.2666 16.209 46.7174 18.6157C46.3862 18.7158 45.9786 18.7679 45.4948 18.772C45.011 18.7761 44.5182 18.7302 44.0164 18.6343C43.8013 18.5932 43.6163 18.5504 43.4614 18.5058C43.3064 18.4614 43.1743 18.4138 43.065 18.3632C43.2419 16.2718 43.5249 14.2862 43.914 12.4063C44.3032 10.5264 44.7878 8.84676 45.3677 7.3674ZM55.8171 15.9417C56.2786 16.1334 56.7308 16.3983 57.1735 16.7364C57.6162 17.0744 57.9904 17.4537 58.296 17.8742C58.009 18.8853 57.45 19.6523 56.6188 20.1751C55.7876 20.698 54.8103 20.8 53.6869 20.4812C52.2685 20.0787 51.3121 19.2649 50.8177 18.0396C50.3233 16.8144 50.347 15.2469 50.8889 13.337C51.0164 12.8877 51.1559 12.4228 51.3074 11.9423C51.4589 11.4618 51.6315 10.9607 51.825 10.439C51.5561 10.3172 51.3032 10.1923 51.0664 10.0644C50.8296 9.93653 50.6209 9.81658 50.4402 9.7046C50.5677 9.25524 50.7314 8.83889 50.9311 8.45556C51.131 8.07222 51.34 7.79013 51.5583 7.60927C51.6867 7.69128 51.8458 7.78572 52.0355 7.89259C52.2252 7.99953 52.4615 8.11591 52.7444 8.24175C52.9921 7.68992 53.2223 7.21279 53.4351 6.81036C53.6479 6.40794 53.8513 6.05218 54.0452 5.74309C54.8878 5.98214 55.6908 6.26689 56.4543 6.59734C57.2179 6.92779 57.8215 7.247 58.2652 7.55499C58.0853 7.86816 57.8874 8.21793 57.6716 8.60431C57.4558 8.99068 57.2509 9.39156 57.0572 9.80693C57.643 9.98831 58.2093 10.1452 58.7559 10.2776C59.3025 10.4099 59.7874 10.5058 60.2106 10.5652C60.1189 10.8882 59.9802 11.2433 59.7944 11.6306C59.6087 12.0179 59.4048 12.3622 59.1827 12.6634C58.8118 12.6339 58.3475 12.5591 57.7898 12.4388C57.2322 12.3185 56.6535 12.1656 56.0535 11.9802C55.8319 12.494 55.6243 13.0117 55.4308 13.5334C55.2372 14.055 55.0727 14.5546 54.9372 15.0321C54.6025 16.2116 54.4185 17.0205 54.3852 17.4588C54.352 17.8969 54.4336 18.1439 54.6302 18.1997C54.7566 18.2356 54.9296 18.0533 55.1495 17.6529C55.3694 17.2524 55.5919 16.6821 55.8171 15.9417Z" fill="black" stroke="black" stroke-width="2.68933" stroke-linecap="round" stroke-linejoin="round"/>
<path d="M20.6486 17.6853C19.9322 18.1598 19.2555 18.5282 18.6186 18.7905C17.9817 19.0528 17.236 19.2795 16.3813 19.4709C16.1874 18.0034 15.9179 16.2986 15.5728 14.3565C15.2278 12.4143 14.843 10.3614 14.4184 8.19767C14.0891 9.19886 13.8018 10.2205 13.5564 11.2627C13.311 12.3049 13.1077 13.3677 12.9463 14.4509C12.6268 14.6271 12.23 14.7758 11.756 14.8969C11.282 15.0179 10.8146 15.0852 10.3539 15.0986C9.73348 14.2652 9.08857 13.4559 8.41919 12.6709C7.74981 11.8858 7.05751 11.1321 6.34231 10.4096C6.72817 12.1333 7.2062 13.8175 7.77641 15.4625C8.34662 17.1074 8.92153 18.4559 9.50113 19.5079C9.142 19.7079 8.58027 19.9383 7.81593 20.1992C7.05166 20.4601 6.33477 20.6655 5.66526 20.8154C4.97685 19.0099 4.21555 16.6785 3.38137 13.8212C2.54719 10.9638 1.88295 8.43119 1.38867 6.22323C1.90555 5.65878 2.49728 5.14488 3.16388 4.68154C3.83054 4.21813 4.4748 3.87195 5.09666 3.643C6.41885 4.73811 7.54817 5.75674 8.48463 6.6989C9.42102 7.64112 10.2478 8.57793 10.9649 9.50934C11.2256 8.13465 11.5517 6.8014 11.9431 5.50957C12.3344 4.21774 12.7818 2.99197 13.285 1.83226C13.874 1.79012 14.4717 1.78717 15.0781 1.82342C15.6846 1.85967 16.2713 1.94149 16.8384 2.06888C17.375 3.99805 17.9823 6.36016 18.6604 9.15523C19.3385 11.9503 20.0012 14.7936 20.6486 17.6853ZM25.6998 17.5561C24.1544 17.6333 22.9549 17.1745 22.1013 16.1794C21.2477 15.1845 20.7724 13.7175 20.6754 11.7785C20.6222 10.7142 20.6796 9.59685 20.8476 8.42652C21.0156 7.2562 21.1984 6.45415 21.396 6.02039C21.7269 5.91618 22.0625 5.83361 22.403 5.7727C22.7434 5.71185 23.0594 5.67415 23.351 5.65958C23.8029 5.63693 24.1944 5.64657 24.5253 5.68852C24.8563 5.7304 25.1118 5.79801 25.2918 5.89135C25.2 6.68514 25.138 7.49208 25.106 8.31215C25.0739 9.13228 25.0769 9.92138 25.1147 10.6794C25.1818 12.0207 25.3143 13.0628 25.5122 13.8056C25.7102 14.5484 25.9549 14.9125 26.2465 14.898C26.5235 14.8841 26.7206 14.4431 26.838 13.5748C26.9553 12.7067 26.9794 11.5801 26.9101 10.195C26.8774 9.53898 26.8141 8.85889 26.7204 8.15475C26.6267 7.45055 26.5438 6.96141 26.4716 6.68734C27.014 6.42635 27.6899 6.2062 28.4994 6.0269C29.3089 5.84753 30.1 5.73856 30.8727 5.69998C30.9623 6.03159 31.0385 6.45891 31.1013 6.98193C31.1639 7.50496 31.2106 8.07264 31.2413 8.68499C31.3812 11.4842 30.9847 13.6379 30.0517 15.1461C29.1186 16.6544 27.668 17.4577 25.6998 17.5561ZM44.2605 6.66482C43.6604 8.38658 42.8802 10.159 41.92 11.9821C40.9597 13.8051 39.9232 15.4898 38.8106 17.0363C38.4346 17.1509 37.9418 17.219 37.332 17.2406C36.7222 17.2621 35.9373 17.2322 34.9773 17.1509C34.7693 15.1115 34.4279 13.0902 33.9532 11.087C33.4784 9.08367 32.8775 7.09897 32.1506 5.13284C32.8297 4.89741 33.5834 4.73423 34.4115 4.64328C35.2396 4.55234 36.0906 4.5366 36.9645 4.59609C37.2502 5.71904 37.4856 7.04647 37.6708 8.57838C37.8558 10.1103 37.9757 11.677 38.0304 13.2784C38.4998 12.2342 38.9507 11.0199 39.3831 9.63546C39.8154 8.25107 40.1853 6.86872 40.4927 5.4884C41.129 5.58634 41.7719 5.73606 42.4214 5.93757C43.0708 6.13914 43.6838 6.38156 44.2605 6.66482ZM49.3932 2.51921C49.8234 2.60149 50.218 2.71408 50.577 2.85701C50.9362 3 51.2324 3.16066 51.4658 3.33899C51.2792 3.61546 51.0515 4.02896 50.7828 4.57949C50.5141 5.12996 50.3014 5.62058 50.1448 6.05136C49.6408 6.04418 49.0843 6.00097 48.4753 5.92174C47.8662 5.84245 47.1832 5.72299 46.426 5.56336C46.3859 5.22877 46.371 4.89897 46.3811 4.57395C46.3912 4.24894 46.4251 3.93587 46.4826 3.63475C46.5265 3.40534 46.5756 3.20668 46.63 3.03877C46.6844 2.8708 46.7468 2.71923 46.8172 2.58407C47.1826 2.46076 47.5778 2.39516 48.0029 2.38726C48.428 2.3793 48.8915 2.42328 49.3932 2.51921ZM45.3677 7.3674C45.7987 7.21199 46.2833 7.12628 46.8214 7.11029C47.3595 7.09424 47.9296 7.14379 48.5318 7.25895C48.8186 7.31377 49.099 7.38223 49.3731 7.4643C49.6472 7.54645 49.9091 7.63371 50.1589 7.72608C49.6654 8.59767 49.1057 10.0288 48.48 12.0196C47.8541 14.0103 47.2666 16.209 46.7174 18.6157C46.3862 18.7158 45.9786 18.7679 45.4948 18.772C45.011 18.7761 44.5182 18.7302 44.0164 18.6343C43.8013 18.5932 43.6163 18.5504 43.4614 18.5058C43.3064 18.4614 43.1743 18.4138 43.065 18.3632C43.2419 16.2718 43.5249 14.2862 43.914 12.4063C44.3032 10.5264 44.7878 8.84676 45.3677 7.3674ZM55.8171 15.9417C56.2786 16.1334 56.7308 16.3983 57.1735 16.7364C57.6162 17.0744 57.9904 17.4537 58.296 17.8742C58.009 18.8853 57.45 19.6523 56.6188 20.1751C55.7876 20.698 54.8103 20.8 53.6869 20.4812C52.2685 20.0787 51.3121 19.2649 50.8177 18.0396C50.3233 16.8144 50.347 15.2469 50.8889 13.337C51.0164 12.8877 51.1559 12.4228 51.3074 11.9423C51.4589 11.4618 51.6315 10.9607 51.825 10.439C51.5561 10.3172 51.3032 10.1923 51.0664 10.0644C50.8296 9.93653 50.6209 9.81658 50.4402 9.7046C50.5677 9.25524 50.7314 8.83889 50.9311 8.45556C51.131 8.07222 51.34 7.79013 51.5583 7.60927C51.6867 7.69128 51.8458 7.78572 52.0355 7.89259C52.2252 7.99953 52.4615 8.11591 52.7444 8.24175C52.9921 7.68992 53.2223 7.21279 53.4351 6.81036C53.6479 6.40794 53.8513 6.05218 54.0452 5.74309C54.8878 5.98214 55.6908 6.26689 56.4543 6.59734C57.2179 6.92779 57.8215 7.247 58.2652 7.55499C58.0853 7.86816 57.8874 8.21793 57.6716 8.60431C57.4558 8.99068 57.2509 9.39156 57.0572 9.80693C57.643 9.98831 58.2093 10.1452 58.7559 10.2776C59.3025 10.4099 59.7874 10.5058 60.2106 10.5652C60.1189 10.8882 59.9802 11.2433 59.7944 11.6306C59.6087 12.0179 59.4048 12.3622 59.1827 12.6634C58.8118 12.6339 58.3475 12.5591 57.7898 12.4388C57.2322 12.3185 56.6535 12.1656 56.0535 11.9802C55.8319 12.494 55.6243 13.0117 55.4308 13.5334C55.2372 14.055 55.0727 14.5546 54.9372 15.0321C54.6025 16.2116 54.4185 17.0205 54.3852 17.4588C54.352 17.8969 54.4336 18.1439 54.6302 18.1997C54.7566 18.2356 54.9296 18.0533 55.1495 17.6529C55.3694 17.2524 55.5919 16.6821 55.8171 15.9417Z" fill="#FFBF00"/>
</svg>
