<svg width="78" height="55" viewBox="0 0 78 55" fill="none" xmlns="http://www.w3.org/2000/svg">
<rect x="0.5" y="0.5" width="77" height="54" rx="7.5" fill="white" stroke="#A1A1A1"/>
<path d="M34.9168 34.6667H42.0835C43.0689 34.6667 43.8752 33.8604 43.8752 32.875V23.9167H46.7239C48.3185 23.9167 49.1247 21.9817 47.996 20.8529L39.7722 12.6292C39.6065 12.4631 39.4096 12.3313 39.1929 12.2414C38.9761 12.1515 38.7438 12.1052 38.5091 12.1052C38.2745 12.1052 38.0421 12.1515 37.8254 12.2414C37.6086 12.3313 37.4118 12.4631 37.246 12.6292L29.0222 20.8529C27.8935 21.9817 28.6818 23.9167 30.2764 23.9167H33.1252V32.875C33.1252 33.8604 33.9314 34.6667 34.9168 34.6667ZM27.7502 38.25H49.2502C50.2356 38.25 51.0418 39.0563 51.0418 40.0417C51.0418 41.0271 50.2356 41.8334 49.2502 41.8334H27.7502C26.7647 41.8334 25.9585 41.0271 25.9585 40.0417C25.9585 39.0563 26.7647 38.25 27.7502 38.25Z" fill="black"/>
</svg>
