<svg width="150" height="134" viewBox="0 0 150 134" fill="none" xmlns="http://www.w3.org/2000/svg">
<path fill-rule="evenodd" clip-rule="evenodd" d="M53.5047 12.8177C53.559 13.1193 53.7216 13.3636 53.9933 13.5505C53.1403 13.7805 52.3259 14.1062 51.5507 14.5275C51.7133 14.6904 51.8765 14.8532 52.0392 15.0161C50.7715 15.1263 49.5502 15.3705 48.3753 15.7488C46.8521 19.389 45.5492 23.1343 44.4671 26.9848C44.1638 29.6824 43.9195 32.2878 43.7343 34.8011C44.6176 34.7967 45.4319 35.041 46.1769 35.5339C49.3357 37.6853 52.5922 39.721 55.9473 41.6404C55.409 41.9706 54.9205 42.296 54.4818 42.6174C52.2693 41.5935 50.1525 40.4538 48.131 39.1978C44.0773 36.6179 40.006 34.0126 35.918 31.3815C33.9825 31.2291 32.517 30.3334 31.5213 28.6946C30.6679 28.5227 29.8535 28.2784 29.0788 27.9618C26.4129 25.8633 23.5629 24.0721 20.5297 22.5881C20.3426 22.8597 20.0983 23.0226 19.7969 23.0766C20.3548 22.1323 21.1686 21.3995 22.2395 20.8783C29.3362 17.087 36.3382 13.1789 43.2458 9.15382C44.7114 8.82812 46.1769 8.82812 47.6425 9.15382C49.3777 10.7526 51.3318 11.9739 53.5047 12.8177Z" fill="#DADADF"/>
<path fill-rule="evenodd" clip-rule="evenodd" d="M53.5057 12.8174C60.2542 16.9778 67.0934 20.8859 74.0236 24.5419C74.7827 25.2231 74.6201 25.5488 73.5351 25.5189C70.2669 24.2468 68.1501 25.2238 67.1843 28.45C64.6337 30.2908 64.1452 32.5706 65.7187 35.2893C65.2512 36.4705 64.5995 37.5287 63.7647 38.4647C64.6543 39.6645 64.9801 41.0485 64.7417 42.6171C65.3875 42.534 65.9576 42.6967 66.4515 43.1056C66.6142 44.0827 66.7774 45.0597 66.94 46.0367C67.4613 46.3743 68.0314 46.6186 68.6499 46.7695C68.324 46.9322 67.9987 47.0954 67.6728 47.258C69.1946 48.3689 70.6601 49.5902 72.0695 50.9219C75.6152 52.6811 79.0348 54.6352 82.3284 56.7842C89.6547 52.8125 96.9825 48.7417 104.312 44.5712C104.638 44.0827 104.963 43.5941 105.289 43.1056C105.737 43.4119 106.225 43.5751 106.754 43.5941C108.892 44.6655 110.846 46.0494 112.617 47.7466C114.671 50.2058 116.788 52.5668 118.967 54.8301C119.285 54.0074 119.773 53.3562 120.433 52.876C120.696 54.1896 121.022 55.4925 121.41 56.7842C121.194 57.3894 120.868 57.878 120.433 58.2497C118.805 56.2956 117.013 54.5042 115.059 52.876C113.381 50.5448 111.264 48.7534 108.708 47.5023C108.261 47.5233 107.935 47.686 107.731 47.9908C100.537 51.9136 93.2097 55.5775 85.748 58.9825C84.9464 59.534 84.4579 60.2668 84.2825 61.1808C84.2781 62.0641 84.5224 62.8785 85.0153 63.6234C88.4002 68.9327 91.9014 74.1432 95.5184 79.2561C96.0245 80.1799 96.0245 81.0753 95.5184 81.9429C97.7275 84.3176 99.5184 87.0045 100.892 90.0035C100.811 90.1662 100.729 90.3294 100.648 90.492C99.4202 88.9312 98.2805 87.303 97.2283 85.6068C96.5194 84.6474 95.624 83.9962 94.5414 83.6528C89.0324 74.9649 83.4144 66.3342 77.6875 57.7612C75.5761 55.367 73.0519 54.0646 70.1154 53.853C69.94 52.939 69.4515 52.2062 68.6499 51.6547C66.7104 50.5252 64.919 49.2229 63.2761 47.7466C60.2283 46.1681 57.2971 44.4583 54.4828 42.6171C54.9215 42.2956 55.41 41.9703 55.9483 41.6401C52.5932 39.7207 49.3367 37.685 46.178 35.5336C45.433 35.0406 44.6186 34.7964 43.7354 34.8008C43.9205 32.2875 44.1648 29.682 44.4681 26.9845C45.5502 23.1339 46.8531 19.3887 48.3763 15.7485C49.5512 15.3702 50.7725 15.1259 52.0402 15.0157C51.8775 14.8529 51.7143 14.69 51.5517 14.5272C52.3269 14.1059 53.1413 13.7802 53.9943 13.5502C53.7226 13.3633 53.56 13.119 53.5057 12.8174Z" fill="#E6E6EA"/>
<path fill-rule="evenodd" clip-rule="evenodd" d="M74.0226 24.542C84.8726 31.0244 95.7827 37.3749 106.753 43.5943C106.224 43.5752 105.736 43.412 105.288 43.1057C104.962 43.5943 104.637 44.0828 104.311 44.5713C96.9815 48.7418 89.6538 52.8126 82.3274 56.7843C79.0338 54.6353 75.6142 52.6812 72.0685 50.9221C70.6591 49.5904 69.1936 48.3691 67.6718 47.2582C67.9977 47.0955 68.323 46.9323 68.6489 46.7696C68.0304 46.6187 67.4603 46.3744 66.9391 46.0369C66.7764 45.0598 66.6132 44.0828 66.4505 43.1057C65.9566 42.6969 65.3865 42.5342 64.7407 42.6172C64.9791 41.0486 64.6533 39.6646 63.7637 38.4648C64.5986 37.5288 65.2502 36.4707 65.7178 35.2894C64.1442 32.5707 64.6327 30.2909 67.1833 28.4502C68.1491 25.224 70.2659 24.2469 73.5341 25.519C74.6191 25.549 74.7817 25.2233 74.0226 24.542Z" fill="#F1F1F3"/>
<path fill-rule="evenodd" clip-rule="evenodd" d="M29.0791 27.9616C29.8539 28.2782 30.6683 28.5225 31.5217 28.6944C32.5173 30.3332 33.9829 31.2288 35.9184 31.3812C40.0063 34.0124 44.0776 36.6177 48.1314 39.1976C47.7323 40.0808 48.0581 40.8136 49.1084 41.3959C50.444 41.4985 51.6653 41.9059 52.7723 42.6172C52.8212 44.052 53.2281 45.3549 53.9936 46.5254C53.8202 47.0246 53.4943 47.3505 53.0166 47.5024C48.7156 43.67 47.0058 44.647 47.8871 50.4335C48.5481 52.3143 49.7694 53.6172 51.551 54.3417C50.4045 54.9572 49.509 54.6319 48.8642 53.3646C48.3869 54.4589 48.1426 55.5986 48.1314 56.7843C46.2559 56.839 46.2559 57.1648 48.1314 57.7613C48.7919 57.264 49.2804 56.6128 49.5969 55.8072C49.8935 55.8678 50.0561 56.0305 50.0855 56.2958C49.4621 56.7286 49.4621 57.2171 50.0855 57.7613C50.7762 58.3104 51.509 58.7989 52.2838 59.2269C52.5232 58.5952 52.6047 57.9435 52.5281 57.2728C52.8226 58.0984 53.3111 58.8312 53.9936 59.4711C53.0259 59.7667 52.8627 60.2552 53.5051 60.9367C53.0576 61.1194 52.6502 61.3637 52.2838 61.6695C51.0146 60.8732 50.1187 60.0588 49.5969 59.2269C48.8295 59.6221 48.0151 59.7853 47.1543 59.7154C46.9325 58.4257 46.3624 57.286 45.4445 56.2958C44.998 56.8595 44.5911 56.7779 44.2232 56.0515C44.489 55.7012 44.8148 55.457 45.2003 55.3187C45.9545 55.4179 46.6062 55.7437 47.1543 56.2958C47.6834 55.8732 47.7645 55.3847 47.3986 54.8302C46.6238 54.4023 45.891 53.9137 45.2003 53.3646C44.7674 53.7677 44.6047 54.2562 44.7117 54.8302C44.3258 54.2884 44.0815 53.6372 43.979 52.8761C43.8431 53.3236 43.5989 53.649 43.2462 53.8532C43.0942 54.3309 42.7684 54.6568 42.2691 54.8302C42.1065 54.5044 41.9433 54.179 41.7806 53.8532C41.064 53.9621 40.3312 54.1248 39.5823 54.3417C38.8192 53.6426 38.0864 52.9098 37.3839 52.1433C37.7513 51.8155 37.9145 51.4086 37.8725 50.922C38.5031 50.413 38.5031 49.8434 37.8725 49.2122C37.1001 48.8668 36.3673 48.4599 35.6741 47.9909C35.4382 48.454 35.3571 48.9426 35.4299 49.4565C34.7689 48.4721 35.0132 47.6578 36.1626 47.0139C36.4885 47.3397 36.8138 47.6651 37.1397 47.9909C37.5017 47.4335 37.9091 47.4335 38.361 47.9909C38.6477 47.6328 38.6477 47.1443 38.361 46.5254C38.8119 46.9176 39.3004 46.9992 39.8265 46.7696C39.209 45.8605 38.7205 44.8834 38.361 43.8385C39.7655 41.9846 39.6028 40.2748 37.8725 38.709C36.8954 38.0578 35.9184 37.4062 34.9413 36.755C34.4562 39.0119 34.2931 41.2914 34.4528 43.5942C34.127 43.4316 33.8016 43.2684 33.4758 43.1057C32.7196 40.1956 32.0684 37.2645 31.5217 34.3124C30.891 34.4281 30.4025 34.2655 30.0561 33.8238C29.8519 33.4711 29.5266 33.2269 29.0791 33.0911C29.4049 32.9282 29.7303 32.7654 30.0561 32.6025C29.4049 32.2769 29.4049 31.9512 30.0561 31.6255C29.7303 31.4627 29.4049 31.2998 29.0791 31.137C29.5676 30.6485 30.0561 30.1599 30.5447 29.6714C29.7811 29.3007 29.2926 28.7307 29.0791 27.9616Z" fill="#BEBFC5"/>
<path fill-rule="evenodd" clip-rule="evenodd" d="M30.0559 33.824C30.4022 34.2657 30.8907 34.4283 31.5214 34.3126C32.0681 37.2647 32.7193 40.1958 33.4755 43.1059C33.2776 43.6189 32.9523 43.6189 32.4985 43.1059C32.1726 42.2915 31.8473 41.4777 31.5214 40.6633C30.6626 40.3565 29.9298 39.868 29.3231 39.1978C29.1072 40.2622 28.6186 40.5876 27.8575 40.1748C27.7637 38.4909 28.0896 36.8626 28.8346 35.2896C29.0187 34.5851 29.4257 34.0966 30.0559 33.824Z" fill="#1E2124"/>
<path fill-rule="evenodd" clip-rule="evenodd" d="M30.0559 35.7778C31.0896 36.5535 31.2523 37.5306 30.5444 38.7089C30.0559 38.5462 29.7301 38.2204 29.5674 37.7319C29.9318 37.128 30.0945 36.4764 30.0559 35.7778Z" fill="#AAADAE"/>
<path fill-rule="evenodd" clip-rule="evenodd" d="M38.361 46.5253C38.1397 44.8023 37.4069 43.3368 36.1627 42.1287C36 43.1057 35.8368 44.0827 35.6741 45.0598C34.9819 44.7774 34.575 44.2889 34.4528 43.5942C34.2931 41.2913 34.4563 39.0119 34.9414 36.7549C35.9184 37.4061 36.8954 38.0578 37.8725 38.709C39.6028 40.2747 39.7655 41.9845 38.361 43.8385C38.7205 44.8834 39.2091 45.8605 39.8266 46.7696C39.3004 46.9992 38.8119 46.9176 38.361 46.5253Z" fill="#292A2E"/>
<path fill-rule="evenodd" clip-rule="evenodd" d="M35.9189 38.709C38.2761 39.9196 38.2761 40.7335 35.9189 41.1516C35.9189 40.3373 35.9189 39.5234 35.9189 38.709Z" fill="#ABACB1"/>
<path fill-rule="evenodd" clip-rule="evenodd" d="M29.0789 27.9615C29.2924 28.7307 29.7809 29.3006 30.5445 29.6714C30.056 30.1599 29.5674 30.6484 29.0789 31.1369C29.4048 31.2997 29.7301 31.4626 30.056 31.6254C29.4048 31.9511 29.4048 32.2768 30.056 32.6025C29.7301 32.7653 29.4048 32.9282 29.0789 33.091C29.5264 33.2268 29.8518 33.4711 30.056 33.8238C29.4258 34.0964 29.0188 34.5849 28.8347 35.2893C28.0897 36.8624 27.7638 38.4906 27.8576 40.1745C28.6187 40.5873 29.1073 40.262 29.3232 39.1975C29.9299 39.8678 30.6627 40.3563 31.5215 40.6631C31.8474 41.4774 32.1727 42.2913 32.4986 43.1057C32.9524 43.6186 33.2778 43.6186 33.4756 43.1057C33.8014 43.2683 34.1268 43.4315 34.4526 43.5942C34.5748 44.2889 34.9817 44.7774 35.6739 45.0597C35.8366 44.0827 35.9998 43.1057 36.1625 42.1286C37.4067 43.3367 38.1395 44.8023 38.3608 46.5253C37.6446 46.1115 37.2372 45.4603 37.1395 44.5712C36.9035 45.0343 36.8225 45.5229 36.8952 46.0368C36.2494 46.1198 35.6793 45.9572 35.1854 45.5483C34.9661 47.1057 34.3149 48.4085 33.2313 49.4564C33.0047 49.1662 32.9231 48.8404 32.9871 48.4794C31.8967 48.3597 30.9197 48.8482 30.056 49.9449C29.4771 49.284 28.8254 48.7139 28.1019 48.2351C25.1972 47.3475 22.4287 46.1262 19.7971 44.5712C19.459 44.8277 19.2147 45.1535 19.0643 45.5483C18.4131 44.8971 17.7614 44.2454 17.1102 43.5942C16.8689 44.3924 16.7878 45.2068 16.8659 46.0368C17.5367 45.9601 18.1884 46.0417 18.82 46.281C21.9368 48.1628 25.0306 50.0353 28.1019 51.899C28.0633 52.5976 28.226 53.2493 28.5904 53.8531C30.0179 55.5746 31.3207 57.366 32.4986 59.2268C31.9783 60.3763 32.0599 61.516 32.7428 62.6465C32.9055 62.4838 33.0687 62.3206 33.2313 62.1579C33.9734 62.9586 34.055 63.773 33.4756 64.6005C31.3823 62.8248 28.9397 62.0109 26.1478 62.1579C24.1849 61.771 22.2309 61.2009 20.2856 60.4481C20.0066 59.8594 19.6808 59.2893 19.3085 58.7383C17.6227 57.6929 15.9128 56.7158 14.1791 55.8072C13.9353 57.9181 13.8539 60.0348 13.9348 62.1579C13.4489 56.8717 13.2861 51.4979 13.4463 46.0368C14.2274 46.1677 14.8788 46.0045 15.4004 45.5483C15.6857 44.3255 16.0115 43.1042 16.3774 41.8844C16.1439 41.0822 15.6554 40.5121 14.9119 40.1745C14.5655 39.7329 14.077 39.5702 13.4463 39.686C15.289 34.0461 17.4057 28.5097 19.7971 23.0763C20.0985 23.0223 20.3427 22.8594 20.5298 22.5878C23.5631 24.0718 26.4131 25.8631 29.0789 27.9615Z" fill="#B3B6BD"/>
<path fill-rule="evenodd" clip-rule="evenodd" d="M21.2623 40.1744C23.1988 40.4773 24.1758 41.4543 24.1934 43.1055C23.379 42.6986 22.5651 42.2911 21.7508 41.8842C21.3419 41.3903 21.1792 40.8202 21.2623 40.1744Z" fill="#1B1D24"/>
<path fill-rule="evenodd" clip-rule="evenodd" d="M22.2405 30.4043C24.2029 30.3271 25.6684 31.1413 26.6372 32.8469C26.4745 33.0097 26.3113 33.1728 26.1486 33.3354C24.4593 31.1735 23.4823 31.4177 23.2175 34.0682C23.1799 36.3086 24.2385 37.6925 26.3929 38.2206C26.6816 38.7008 26.5184 39.0267 25.9044 39.1977C23.135 38.1449 21.7505 36.1092 21.752 33.0912C21.8477 32.1735 22.0104 31.2779 22.2405 30.4043Z" fill="#15171D"/>
<path fill-rule="evenodd" clip-rule="evenodd" d="M14.9119 40.1744C15.6554 40.5119 16.144 41.082 16.3775 41.8842C16.0116 43.104 15.6857 44.3253 15.4004 45.5481C14.9119 45.5481 14.4234 45.5481 13.9349 45.5481C13.6514 43.5212 13.9771 41.7298 14.9119 40.1744Z" fill="#C51916"/>
<path fill-rule="evenodd" clip-rule="evenodd" d="M13.4463 39.6861C14.077 39.5703 14.5655 39.733 14.9118 40.1746C13.977 41.7301 13.6513 43.5215 13.9348 45.5484C14.4233 45.5484 14.9118 45.5484 15.4004 45.5484C14.8788 46.0046 14.2274 46.1678 13.4463 46.0369C13.4463 43.9201 13.4463 41.8029 13.4463 39.6861Z" fill="#A83E3B"/>
<path fill-rule="evenodd" clip-rule="evenodd" d="M26.1475 42.6174C27.9784 43.1337 28.8744 44.2735 28.8343 46.037C27.1831 45.4332 26.2872 44.293 26.1475 42.6174Z" fill="#1A1C23"/>
<path fill-rule="evenodd" clip-rule="evenodd" d="M41.2925 41.6404C42.9349 41.4303 44.3189 41.9188 45.4449 43.106C45.781 43.5124 45.6995 43.8378 45.2007 44.083C44.3834 43.3082 43.4063 42.9824 42.2696 43.106C42.1152 44.805 42.3594 46.4337 43.0023 47.9911C43.4909 48.317 43.9794 48.6423 44.4679 48.9682C44.8372 47.8402 44.593 46.8632 43.7351 46.0371C43.8978 45.8744 44.061 45.7112 44.2236 45.5486C45.9017 46.6902 46.5529 48.3185 46.1777 50.4337C41.5148 49.2535 39.8861 46.3224 41.2925 41.6404Z" fill="#2C2D33"/>
<path fill-rule="evenodd" clip-rule="evenodd" d="M77.9315 71.9283C77.3009 71.8126 76.8123 71.9752 76.466 72.4169C76.1401 72.4169 75.8148 72.4169 75.4889 72.4169C69.6531 69.1081 63.8719 65.6885 58.1465 62.158C58.5036 58.8292 59.0737 55.5727 59.8563 52.3876C59.7835 52.9015 59.8646 53.39 60.1006 53.8531C60.4977 52.9073 60.742 51.9303 60.8333 50.922C64.5954 51.7979 68.0151 53.4261 71.0923 55.8072C73.1948 59.1306 75.3932 62.3876 77.6873 65.5776C77.931 67.6885 78.0126 69.8052 77.9315 71.9283Z" fill="#3A393F"/>
<path fill-rule="evenodd" clip-rule="evenodd" d="M107.731 47.9909C107.935 47.6861 108.261 47.5234 108.708 47.5024C111.264 48.7535 113.38 50.5449 115.059 52.8761C114.567 53.0901 114.567 53.4154 115.059 53.8531C115.634 54.6362 115.553 55.2874 114.815 55.8072C110.287 55.8424 105.891 56.8194 101.625 58.7383C98.9719 59.3588 96.285 59.7657 93.564 59.9596C91.2308 61.0295 88.8698 61.9249 86.4804 62.6465C86.1526 62.2791 85.7457 62.116 85.2591 62.158C85.1018 61.0725 85.4277 60.1765 86.2362 59.4711C93.8932 55.9679 101.384 52.2229 108.708 48.2352C108.418 48.0085 108.092 47.9269 107.731 47.9909Z" fill="#6F7074"/>
<path fill-rule="evenodd" clip-rule="evenodd" d="M70.1148 53.8532C71.5467 54.7134 72.768 55.8532 73.7787 57.2728C78.3092 64.5703 83.0313 71.7349 87.9458 78.7677C88.2819 79.1741 88.2003 79.4995 87.7015 79.7447C86.9546 79.1277 86.1407 78.6392 85.2589 78.2792C84.8818 76.2772 83.9047 74.649 82.3278 73.394C82.1065 72.9259 81.7811 72.5185 81.3508 72.1727C80.2223 71.9299 79.0826 71.8488 77.9311 71.9284C78.0122 69.8053 77.9306 67.6885 77.6869 65.5776C75.3928 62.3876 73.1944 59.1306 71.0918 55.8072C68.0147 53.4262 64.595 51.798 60.8329 50.922C60.7416 51.9303 60.4973 52.9074 60.1001 53.8532C59.8642 53.39 59.7831 52.9015 59.8559 52.3876C59.8085 51.0129 60.3781 50.0359 61.5657 49.4565C64.3806 50.986 67.2301 52.4516 70.1148 53.8532Z" fill="#17171C"/>
<path fill-rule="evenodd" clip-rule="evenodd" d="M115.058 53.8532C117.309 55.5303 119.1 57.566 120.432 59.9597C119.33 60.0144 118.271 59.7702 117.257 59.2269C113.042 60.8498 108.727 62.0711 104.311 62.8908C103.203 63.2611 102.144 63.1795 101.136 62.6466C98.1371 64.8962 94.7986 65.7106 91.121 65.0892C89.4928 64.438 87.8641 63.7863 86.2358 63.1351C85.7473 62.9724 85.4215 62.6466 85.2588 62.158C85.7454 62.116 86.1523 62.2792 86.4801 62.6466C88.8694 61.925 91.2305 61.0296 93.5636 59.9597C96.2847 59.7658 98.9715 59.3588 101.624 58.7384C105.89 56.8195 110.287 55.8425 114.814 55.8073C115.552 55.2875 115.633 54.6363 115.058 53.8532Z" fill="#626367"/>
<path fill-rule="evenodd" clip-rule="evenodd" d="M107.731 47.991C108.092 47.927 108.418 48.0085 108.708 48.2352C101.384 52.223 93.8934 55.968 86.2363 59.4712C85.4278 60.1766 85.102 61.0725 85.2593 62.158C84.9334 61.8322 84.6081 61.5068 84.2822 61.181C84.4576 60.267 84.9461 59.5342 85.7478 58.9826C93.2094 55.5777 100.537 51.9138 107.731 47.991Z" fill="#504F54"/>
<path fill-rule="evenodd" clip-rule="evenodd" d="M26.1485 62.1581C24.2614 63.2362 23.1217 64.8645 22.7289 67.0433C22.7499 67.4908 22.9126 67.8166 23.2174 68.0203C23.0235 68.521 22.6981 68.6026 22.2404 68.2646C20.1095 66.8752 17.9927 65.4912 15.8896 64.1121C15.0754 63.6236 14.4241 62.9724 13.9355 62.1581C13.8546 60.035 13.936 57.9182 14.1798 55.8073C15.9136 56.716 17.6234 57.693 19.3093 58.7384C19.6815 59.2895 20.0074 59.8596 20.2863 60.4483C22.2316 61.2011 24.1857 61.7712 26.1485 62.1581Z" fill="#8F939B"/>
<path fill-rule="evenodd" clip-rule="evenodd" d="M115.059 52.8761C117.013 54.5043 118.804 56.2957 120.432 58.2498C121.735 59.7154 123.038 61.1809 124.34 62.6465C123.948 63.4716 123.459 64.2855 122.875 65.0891C122.589 64.987 122.344 64.8238 122.142 64.6006C115.352 66.2879 108.431 67.265 101.38 67.5317C98.7806 67.1267 96.1753 66.7198 93.5637 66.3104C92.677 65.9406 91.8632 65.5336 91.1211 65.0891C94.7987 65.7105 98.1372 64.8961 101.136 62.6465C102.144 63.1795 103.203 63.2611 104.311 62.8908C108.727 62.071 113.042 60.8497 117.257 59.2269C118.271 59.7701 119.33 60.0143 120.432 59.9596C119.1 57.5659 117.309 55.5302 115.059 53.8531C114.567 53.4154 114.567 53.0901 115.059 52.8761Z" fill="#55565B"/>
<path fill-rule="evenodd" clip-rule="evenodd" d="M86.2363 63.1353C87.8646 63.7865 89.4933 64.4382 91.1215 65.0894C91.8636 65.5339 92.6775 65.9409 93.5641 66.3107C96.1758 66.7201 98.781 67.127 101.38 67.532C102.915 67.9331 104.544 68.1773 106.266 68.2648C105.94 68.4274 105.614 68.5906 105.289 68.7533C105.859 68.9976 106.266 69.4045 106.51 69.9746C106.861 69.51 107.268 69.4289 107.731 69.7303C108.89 71.2105 110.03 72.6761 111.151 74.127C112.35 74.9238 113.571 75.0049 114.815 74.3713C115.322 74.9624 115.892 75.4509 116.525 75.8368C110.537 79.6136 104.023 80.8349 96.9838 79.5007C93.8084 75.0225 90.633 70.5447 87.4576 66.0664C86.9095 65.1348 86.5026 64.1578 86.2363 63.1353Z" fill="#3D3D42"/>
<path fill-rule="evenodd" clip-rule="evenodd" d="M15.8894 64.1119C17.9924 65.491 20.1092 66.875 22.2401 68.2644C22.6979 68.6024 23.0232 68.5208 23.2172 68.0201C23.543 68.9971 23.8684 69.9742 24.1942 70.9512C24.5621 74.4534 25.8649 77.5472 28.1024 80.2331C22.2631 77.4329 16.6451 74.1759 11.2484 70.4627C10.9129 69.4524 10.9943 68.4754 11.4927 67.5316C12.7163 66.6752 14.019 65.9424 15.4008 65.3332C15.7682 65.0054 15.9314 64.5985 15.8894 64.1119Z" fill="#CCCCCD"/>
<path fill-rule="evenodd" clip-rule="evenodd" d="M28.1021 67.0433C27.1881 67.2187 26.4553 67.7072 25.9038 68.5089C25.1168 73.0677 26.3381 76.9759 29.5677 80.2333C29.2418 80.2333 29.0791 80.396 29.0791 80.7219C28.7533 80.5592 28.4279 80.396 28.1021 80.2333C25.8647 77.5475 24.5618 74.4537 24.1939 70.9515C24.0782 69.1083 24.3224 67.3169 24.9267 65.5777C26.0151 64.7898 27.2364 64.4639 28.5906 64.6007C28.5222 65.3941 28.8481 65.9637 29.5677 66.3105C28.9634 66.4239 28.4748 66.6681 28.1021 67.0433Z" fill="#25272B"/>
<path fill-rule="evenodd" clip-rule="evenodd" d="M124.34 62.6465C124.992 63.4609 125.643 64.2748 126.294 65.0891C124.622 70.0227 121.365 73.605 116.524 75.8366C115.892 75.4507 115.322 74.9621 114.814 74.371C113.571 75.0046 112.35 74.9235 111.15 74.1268C110.029 72.6759 108.889 71.2103 107.731 69.7301C107.267 69.4287 106.86 69.5098 106.509 69.9743C106.265 69.4042 105.858 68.9973 105.288 68.753C105.614 68.5904 105.939 68.4272 106.265 68.2645C104.543 68.1771 102.914 67.9328 101.38 67.5317C108.431 67.265 115.352 66.288 122.142 64.6006C122.344 64.8239 122.588 64.987 122.875 65.0891C123.459 64.2855 123.948 63.4717 124.34 62.6465Z" fill="#48494E"/>
<path fill-rule="evenodd" clip-rule="evenodd" d="M26.1482 62.1581C28.94 62.0111 31.3826 62.8249 33.476 64.6007C34.9547 65.7536 36.2576 67.0565 37.3841 68.5089C37.4979 69.2719 37.8238 69.9231 38.3611 70.4629C38.0353 70.6256 37.71 70.7888 37.3841 70.9515C36.4046 69.3403 35.1833 67.8748 33.7202 66.5548C33.6386 66.7175 33.5575 66.8806 33.476 67.0433C36.3504 70.5089 38.1418 74.417 38.8497 78.7678C38.9015 80.0277 38.5756 81.1674 37.8726 82.1874C36.8057 83.206 35.5028 83.6945 33.9645 83.653C32.0079 83.1654 30.3792 82.1884 29.0793 80.7219C29.0793 80.396 29.242 80.2333 29.5678 80.2333C35.4198 83.2651 37.7808 81.4742 36.6513 74.8596C35.5478 70.2514 32.6982 67.6461 28.1022 67.0433C28.475 66.6681 28.9635 66.4239 29.5678 66.3105C28.8482 65.9637 28.5224 65.3941 28.5908 64.6007C27.2366 64.4639 26.0153 64.7898 24.9269 65.5777C24.3226 67.3169 24.0783 69.1083 24.1941 70.9515C23.8682 69.9744 23.5429 68.9974 23.217 68.0203C22.9122 67.8166 22.7495 67.4908 22.7285 67.0433C23.1213 64.8645 24.261 63.2363 26.1482 62.1581Z" fill="#494B51"/>
<path fill-rule="evenodd" clip-rule="evenodd" d="M48.1319 39.1979C50.1534 40.4539 52.2702 41.5936 54.4827 42.6176C57.297 44.4588 60.2281 46.1686 63.276 47.747C64.9189 49.2233 66.7103 50.5257 68.6497 51.6552C69.4514 52.2067 69.9399 52.9395 70.1153 53.8535C67.2306 52.452 64.3811 50.9864 61.5662 49.4569C60.3786 50.0362 59.809 51.0133 59.8564 52.388C59.0738 55.5731 58.5037 58.8296 58.1466 62.1584C63.872 65.6889 69.6532 69.1085 75.489 72.4173C74.4792 74.7036 74.9678 76.495 76.9546 77.791C76.0728 78.4793 75.0958 78.7236 74.0235 78.5238C70.1339 76.2829 66.2257 74.0846 62.299 71.9288C61.9223 70.7749 61.5149 69.6347 61.0777 68.5091C60.5242 67.6733 59.7914 67.429 58.8793 67.7763C59.6937 68.5907 60.5076 69.4046 61.3219 70.2189C60.9961 70.3005 60.6707 70.3816 60.3449 70.4632C58.6673 69.6044 56.9575 68.79 55.2155 68.0206C55.0777 70.813 54.7523 73.5814 54.2384 76.3254C54.1558 73.0568 53.9116 69.7998 53.5056 66.555C45.0288 61.6659 36.5613 56.7807 28.1026 51.8995C25.0313 50.0357 21.9375 48.1633 18.8207 46.2815C18.1891 46.0421 17.5374 45.9605 16.8666 46.0372C16.7885 45.2072 16.8696 44.3929 17.1109 43.5946C17.7621 44.2458 18.4138 44.8975 19.065 45.5487C19.2155 45.154 19.4597 44.8281 19.7978 44.5717C22.4294 46.1266 25.1979 47.3479 28.1026 48.2356C28.8261 48.7143 29.4778 49.2844 30.0567 49.9454C30.9204 48.8486 31.8974 48.3601 32.9878 48.4798C32.9238 48.8408 33.0054 49.1667 33.2321 49.4569C34.3156 48.409 34.9668 47.1061 35.1861 45.5487C35.68 45.9576 36.2501 46.1203 36.896 46.0372C36.8232 45.5233 36.9043 45.0348 37.1402 44.5717C37.2379 45.4608 37.6453 46.112 38.3615 46.5257C38.6483 47.1447 38.6483 47.6332 38.3615 47.9913C37.9096 47.4339 37.5022 47.4339 37.1402 47.9913C36.8144 47.6655 36.489 47.3401 36.1632 47.0143C35.0137 47.6581 34.7694 48.4725 35.4304 49.4569C36.1461 50.0612 36.9604 50.5497 37.873 50.9224C37.915 51.409 37.7518 51.8159 37.3845 52.1437C38.087 52.9102 38.8197 53.643 39.5828 54.3421C40.3317 54.1251 41.0645 53.9625 41.7812 53.8535C41.9438 54.1794 42.107 54.5047 42.2697 54.8306C42.7689 54.6571 43.0948 54.3313 43.2467 53.8535C43.5994 53.6493 43.8437 53.324 43.9795 52.8765C44.0821 53.6376 44.3263 54.2888 44.7123 54.8306C45.0381 54.8306 45.2008 54.9932 45.2008 55.3191C44.8154 55.4573 44.4895 55.7016 44.2238 56.0519C44.5916 56.7783 44.9985 56.8599 45.4451 56.2961C46.363 57.2864 46.9331 58.4261 47.1549 59.7158C48.0156 59.7856 48.83 59.6225 49.5975 59.2272C50.1192 60.0592 51.0152 60.8736 52.2843 61.6698C52.6507 61.364 53.0581 61.1198 53.5056 60.9371C52.8632 60.2556 53.0264 59.7671 53.9942 59.4715C53.3117 58.8315 52.8232 58.0988 52.5286 57.2732C51.6571 57.0812 50.8432 56.7558 50.086 56.2961C50.0567 56.0309 49.894 55.8682 49.5975 55.8076C49.2809 56.6132 48.7924 57.2644 48.1319 57.7617C46.2565 57.1652 46.2565 56.8394 48.1319 56.7847C48.1432 55.599 48.3874 54.4593 48.8647 53.365C49.5095 54.6322 50.405 54.9576 51.5516 54.3421C52.7294 54.5194 53.4622 54.0309 53.7499 52.8765C54.0367 51.0152 53.7924 49.2238 53.0171 47.5028C53.4949 47.3508 53.8207 47.025 53.9942 46.5257C53.2286 45.3552 52.8217 44.0524 52.7729 42.6176C51.6659 41.9063 50.4446 41.4989 49.109 41.3963C48.0586 40.814 47.7328 40.0812 48.1319 39.1979Z" fill="#C8C9CE"/>
<path fill-rule="evenodd" clip-rule="evenodd" d="M50.0857 56.2957C50.8429 56.7554 51.6568 57.0807 52.5283 57.2727C52.605 57.9434 52.5234 58.5951 52.284 59.2268C51.5092 58.7988 50.7764 58.3103 50.0857 57.7612C49.4623 57.217 49.4623 56.7285 50.0857 56.2957Z" fill="#46464E"/>
<path fill-rule="evenodd" clip-rule="evenodd" d="M45.2 55.3191C45.2 54.9932 45.0374 54.8305 44.7115 54.8305C44.6045 54.2565 44.7672 53.768 45.2 53.365C45.8908 53.9141 46.6236 54.4026 47.3984 54.8305C47.7643 55.385 47.6832 55.8735 47.1541 56.2961C46.606 55.7441 45.9543 55.4182 45.2 55.3191Z" fill="#383840"/>
<path fill-rule="evenodd" clip-rule="evenodd" d="M53.0164 47.5026C53.7917 49.2237 54.0359 51.0151 53.7492 52.8763C53.4614 54.0307 52.7286 54.5192 51.5508 54.3419C49.7692 53.6174 48.5479 52.3146 47.8869 50.4338C47.0056 44.6472 48.7154 43.6702 53.0164 47.5026Z" fill="#3C3C42"/>
<path fill-rule="evenodd" clip-rule="evenodd" d="M43.2458 53.8532C41.8247 53.3911 40.685 52.5767 39.8262 51.4106C39.9888 51.0848 40.152 50.7594 40.3147 50.4336C41.0822 51.3691 42.0592 51.8576 43.2458 51.8992C43.2458 52.5504 43.2458 53.202 43.2458 53.8532Z" fill="#36363D"/>
<path fill-rule="evenodd" clip-rule="evenodd" d="M37.8727 50.9222C36.9602 50.5495 36.1458 50.0609 35.4301 49.4566C35.3573 48.9427 35.4384 48.4542 35.6744 47.9911C36.3676 48.4601 37.1004 48.867 37.8727 49.2124C38.5034 49.8436 38.5034 50.4132 37.8727 50.9222Z" fill="#292931"/>
<path fill-rule="evenodd" clip-rule="evenodd" d="M49.1089 47.0141C51.975 47.3575 53.0332 48.9858 52.2843 51.8993C51.0781 52.9472 50.1011 52.6218 49.3531 50.9223C49.1103 49.6296 49.0288 48.3268 49.1089 47.0141Z" fill="#BEBFC4"/>
<path fill-rule="evenodd" clip-rule="evenodd" d="M32.9868 48.4795C32.3689 48.0013 31.7172 47.5127 31.0328 47.014C30.4886 46.4165 30.407 45.7653 30.7885 45.0599C31.6815 45.8322 32.6586 46.4839 33.7196 47.014C34.0738 47.8234 33.8295 48.312 32.9868 48.4795Z" fill="#212229"/>
<path fill-rule="evenodd" clip-rule="evenodd" d="M37.3837 70.9516C38.5806 73.4089 39.0691 76.0146 38.8493 78.7679C38.1414 74.4172 36.35 70.509 33.4756 67.0435C33.5572 66.8808 33.6383 66.7176 33.7198 66.5549C35.183 67.8749 36.4043 69.3405 37.3837 70.9516Z" fill="#7E7F86"/>
<path fill-rule="evenodd" clip-rule="evenodd" d="M28.1022 51.8989C36.5609 56.7802 45.0285 61.6654 53.5053 66.5545C53.9112 69.7993 54.1555 73.0562 54.238 76.3249C54.752 73.5809 55.0773 70.8125 55.2151 68.0201C56.9571 68.7895 58.667 69.6039 60.3445 70.4627C60.6704 70.3811 60.9957 70.3 61.3216 70.2184C60.5072 69.4041 59.6933 68.5902 58.879 67.7758C59.791 67.4285 60.5238 67.6727 61.0773 68.5086C61.5145 69.6341 61.922 70.7744 62.2986 71.9282C66.2253 74.0841 70.1335 76.2824 74.0231 78.5233C75.0954 78.7231 76.0724 78.4788 76.9542 77.7905C76.9156 78.4891 77.0783 79.1407 77.4427 79.7446C76.0666 81.2853 76.3924 82.4251 78.4198 83.1642C79.3939 82.681 80.3709 82.1925 81.3509 81.6986C81.3089 82.1852 81.472 82.5921 81.8394 82.9199C85.1716 84.7538 88.4281 86.6263 91.6098 88.5379C90.0695 88.7841 88.5224 88.9468 86.9689 89.0264C85.6787 88.8296 84.539 88.341 83.5492 87.5609C82.3015 88.1818 80.9176 88.5076 79.3968 88.5379C75.6455 88.2521 71.9 87.9263 68.1609 87.5609C66.4408 87.3997 64.9752 86.6669 63.7642 85.3625C60.7178 83.8603 57.6235 82.4764 54.4823 81.2101C54.5551 81.724 54.474 82.2126 54.238 82.6757C53.8291 81.2761 53.4222 79.8921 53.0167 78.5233C51.3475 77.6473 49.8003 76.5892 48.3758 75.3479C46.3558 74.683 44.4833 73.4617 42.7578 71.684C41.6758 71.174 40.536 70.8486 39.3382 70.7069C39.5009 70.5443 39.664 70.3811 39.8267 70.2184C38.9674 69.726 38.3973 68.9932 38.1169 68.0201C37.9298 68.2917 37.6855 68.4544 37.3841 68.5086C36.2576 67.0562 34.9547 65.7533 33.4759 64.6004C34.0553 63.7729 33.9737 62.9585 33.2317 62.1578C33.069 62.3205 32.9058 62.4837 32.7432 62.6464C32.0602 61.5159 31.9786 60.3762 32.4989 59.2267C31.3211 57.366 30.0182 55.5745 28.5907 53.853C28.2263 53.2492 28.0636 52.5975 28.1022 51.8989Z" fill="#BABBC1"/>
<path fill-rule="evenodd" clip-rule="evenodd" d="M28.1025 67.0431C32.6985 67.6459 35.548 70.2512 36.6516 74.8594C37.7811 81.474 35.42 83.2649 29.5681 80.2331C26.3385 76.9757 25.1172 73.0675 25.9042 68.5087C26.4557 67.707 27.1885 67.2185 28.1025 67.0431Z" fill="#C6C7CB"/>
<path fill-rule="evenodd" clip-rule="evenodd" d="M26.6367 69.9744C27.793 70.6441 28.6069 71.6212 29.0793 72.9055C28.3246 73.3706 27.5102 73.5332 26.6367 73.394C26.6367 72.2543 26.6367 71.1141 26.6367 69.9744Z" fill="#25262A"/>
<path fill-rule="evenodd" clip-rule="evenodd" d="M32.01 69.4857C33.5645 70.3127 34.3784 71.6151 34.4526 73.3938C33.6495 73.4984 32.9167 73.3352 32.2543 72.9053C32.0115 71.7768 31.9304 70.6371 32.01 69.4857Z" fill="#484A4E"/>
<path fill-rule="evenodd" clip-rule="evenodd" d="M28.1023 68.0203C30.4853 68.0374 31.1365 69.1771 30.0564 71.4399C28.4364 70.6798 27.7852 69.54 28.1023 68.0203Z" fill="#323638"/>
<path fill-rule="evenodd" clip-rule="evenodd" d="M77.931 71.9286C79.0825 71.849 80.2222 71.9301 81.3507 72.1729C81.781 72.5187 82.1064 72.9262 82.3277 73.3942C83.0409 74.3341 82.8778 75.1485 81.8392 75.8368C80.0834 76.2891 78.2925 76.4518 76.4655 76.3253C76.1079 74.9741 76.1079 73.6717 76.4655 72.4171C76.8118 71.9755 77.3003 71.8128 77.931 71.9286Z" fill="#C6C8CD"/>
<path fill-rule="evenodd" clip-rule="evenodd" d="M38.3608 70.4628C39.2055 72.1828 39.8567 73.9738 40.3149 75.8365C40.0946 77.5971 40.5831 79.0627 41.7805 80.2332C40.5895 81.0964 39.2866 81.7481 37.8723 82.1872C38.5753 81.1672 38.9011 80.0275 38.8493 78.7676C39.0692 76.0143 38.5807 73.4085 37.3838 70.9513C37.7096 70.7886 38.035 70.6254 38.3608 70.4628Z" fill="#1C1C24"/>
<path fill-rule="evenodd" clip-rule="evenodd" d="M33.4756 74.8594C34.2899 74.8594 35.1038 74.8594 35.9182 74.8594C35.9983 76.172 35.9167 77.4749 35.6739 78.7675C34.3012 77.812 33.5684 76.5091 33.4756 74.8594Z" fill="#4F5055"/>
<path fill-rule="evenodd" clip-rule="evenodd" d="M84.2813 61.1812C84.6072 61.5071 84.9325 61.8324 85.2583 62.1583C85.421 62.6468 85.7469 62.9726 86.2354 63.1353C86.5016 64.1578 86.9086 65.1348 87.4567 66.0664C90.6321 70.5447 93.8074 75.0224 96.9828 79.5007C104.022 80.8349 110.536 79.6136 116.524 75.8368C121.365 73.6052 124.621 70.0229 126.294 65.0894C128.15 67.4367 128.231 69.8793 126.538 72.4172C119.357 80.6204 110.319 84.1211 99.4254 82.9203C97.8661 81.9296 96.5632 80.7083 95.5173 79.2564C91.9003 74.1436 88.399 68.933 85.0141 63.6238C84.5212 62.8788 84.2769 62.0645 84.2813 61.1812Z" fill="#0D0D11"/>
<path fill-rule="evenodd" clip-rule="evenodd" d="M27.6133 75.348C30.4149 75.0163 31.2293 76.1565 30.0559 78.7676C28.6641 78.029 27.8497 76.8893 27.6133 75.348Z" fill="#343539"/>
<path fill-rule="evenodd" clip-rule="evenodd" d="M32.01 76.8136C32.969 77.5268 33.8645 78.3412 34.6969 79.2562C34.9983 79.7198 34.9172 80.1267 34.4526 80.4775C33.6651 80.8292 32.9324 80.7481 32.2543 80.2332C32.0115 79.1048 31.9304 77.965 32.01 76.8136Z" fill="#4B4A4F"/>
<path fill-rule="evenodd" clip-rule="evenodd" d="M75.4889 72.4169C75.8148 72.4169 76.1401 72.4169 76.466 72.4169C76.1084 73.6714 76.1084 74.9738 76.466 76.325C78.293 76.4516 80.0839 76.2889 81.8397 75.8365C82.8783 75.1482 83.0414 74.3338 82.3282 73.3939C83.9051 74.6489 84.8822 76.2772 85.2593 78.2791C84.2583 79.7691 82.9555 80.9088 81.3512 81.6987C80.3712 82.1926 79.3941 82.6812 78.42 83.1643C76.3927 82.4252 76.0668 81.2855 77.443 79.7447C77.0786 79.1409 76.9159 78.4892 76.9545 77.7906C74.9677 76.4945 74.4791 74.7031 75.4889 72.4169Z" fill="#9C9EA5"/>
<path fill-rule="evenodd" clip-rule="evenodd" d="M94.5402 83.6529C94.8382 84.0882 95.0009 84.5767 95.0288 85.1185C94.1118 85.6847 93.8676 86.499 94.296 87.5611C94.9101 88.6256 95.6428 89.6026 96.4943 90.4922C96.0718 91.0213 95.5832 91.1024 95.0288 90.7365C93.8573 89.992 92.7176 89.2592 91.6091 88.5381C88.4274 86.6265 85.1709 84.754 81.8387 82.9201C81.4714 82.5923 81.3082 82.1854 81.3502 81.6988C82.9545 80.9089 84.2574 79.7692 85.2584 78.2792C86.1402 78.6392 86.954 79.1278 87.701 79.7448C88.1997 79.4995 88.2813 79.1742 87.9452 78.7677C83.0307 71.735 78.3087 64.5704 73.7782 57.2728C72.7674 55.8532 71.5461 54.7135 70.1143 53.8532C73.0508 54.0647 75.5749 55.3671 77.6863 57.7614C83.4132 66.3344 89.0312 74.9651 94.5402 83.6529Z" fill="#C1C1C7"/>
<path fill-rule="evenodd" clip-rule="evenodd" d="M41.7802 80.233C55.9727 87.5745 69.9766 95.3097 83.7929 103.438C84.7387 103.835 85.7157 104.079 86.724 104.171C87.4905 109.208 89.9331 113.197 94.0518 116.139C95.6278 116.725 97.256 116.969 98.937 116.872C99.8496 116.499 100.664 116.011 101.38 115.406C102.516 114.162 103.493 114.243 104.311 115.651C105.406 116.206 106.546 116.613 107.73 116.872C110.336 118.175 112.941 118.175 115.547 116.872C124.333 112.885 132.801 108.244 140.95 102.949C141.317 102.621 141.48 102.214 141.438 101.728C141.764 101.077 142.089 100.425 142.415 99.7738C142.387 100.938 142.551 102.079 142.904 103.193C142.72 104.113 142.232 104.846 141.438 105.392C134.841 109.261 128.164 113.006 121.409 116.628C109.134 121.477 97.2467 120.663 85.747 114.185C68.3801 104.12 51.1187 93.9429 33.9639 83.6527C35.5022 83.6942 36.8051 83.2057 37.872 82.1871C39.2863 81.7479 40.5892 81.0962 41.7802 80.233Z" fill="#CBCBCD"/>
<path fill-rule="evenodd" clip-rule="evenodd" d="M68.1605 87.5611C71.0125 90.4638 74.4321 92.6622 78.4194 94.1561C78.0091 94.9699 78.2533 95.0515 79.1522 94.4003C80.7448 95.8156 82.5362 96.3041 84.5259 95.8659C84.6642 97.4497 85.0716 97.6128 85.7472 96.3544C86.0809 96.5317 86.4067 96.6944 86.7243 96.8429C86.6105 97.606 86.2846 98.2572 85.7472 98.797C85.0438 99.7193 84.2294 100.045 83.3046 99.774C81.9329 99.0559 80.4673 98.649 78.908 98.5527C71.0081 93.8698 63.0291 89.31 54.9705 84.8742C54.0164 83.1058 52.714 81.6402 51.0623 80.4775C48.1918 79.1956 45.4238 77.7301 42.7575 76.0808C41.9593 75.8395 41.1449 75.7584 40.3149 75.8366C39.8567 73.9739 39.2055 72.1829 38.3608 70.4629C37.8235 69.923 37.4976 69.2719 37.3838 68.5088C37.6852 68.4546 37.9295 68.2919 38.1166 68.0203C38.397 68.9934 38.9671 69.7262 39.8264 70.2186C39.6637 70.3813 39.5005 70.5444 39.3379 70.7071C40.5357 70.8488 41.6754 71.1741 42.7575 71.6842C44.483 73.4619 46.3555 74.6832 48.3755 75.3481C49.8 76.5894 51.3471 77.6475 53.0164 78.5234C53.4219 79.8923 53.8288 81.2762 54.2377 82.6759C54.4737 82.2127 54.5548 81.7242 54.482 81.2103C57.6232 82.4765 60.7174 83.8605 63.7639 85.3627C64.9749 86.6671 66.4405 87.3998 68.1605 87.5611Z" fill="#A5A8AE"/>
<path fill-rule="evenodd" clip-rule="evenodd" d="M40.315 75.8365C41.145 75.7583 41.9594 75.8394 42.7576 76.0808C45.424 77.73 48.1919 79.1956 51.0625 80.4774C52.7142 81.6401 54.0165 83.1057 54.9706 84.8741C63.0292 89.3099 71.0082 93.8697 78.9081 98.5527C80.4674 98.6489 81.933 99.0558 83.3048 99.774C84.2295 100.045 85.0439 99.7193 85.7474 98.7969C85.3424 100.247 85.2613 101.713 85.5031 103.194C85.8309 103.561 86.2378 103.724 86.7244 103.682C86.7244 103.845 86.7244 104.008 86.7244 104.171C85.7161 104.079 84.7391 103.835 83.7933 103.438C69.977 95.3099 55.9731 87.5747 41.7806 80.2332C40.5832 79.0627 40.0947 77.5971 40.315 75.8365Z" fill="#8E8F94"/>
<path fill-rule="evenodd" clip-rule="evenodd" d="M138.019 79.2562C135.077 76.9817 134.1 77.6334 135.088 81.2103C135.11 83.9958 134.133 86.3569 132.157 88.2938C130.589 89.1561 129.124 90.1331 127.76 91.225C124.61 92.583 121.353 93.6417 117.99 94.4003C116.687 94.0745 115.385 93.7491 114.082 93.4233C111.563 94.0154 109.12 94.8297 106.754 95.8659C108.673 95.8498 110.627 96.1756 112.616 96.8429C113.532 96.7794 114.428 96.6167 115.303 96.3544C115.951 96.989 116.603 97.6402 117.257 98.3085C117.279 99.693 117.687 100.914 118.478 101.972C118.213 102.323 117.887 102.567 117.501 102.705C116.98 102.249 116.329 102.086 115.547 102.217C115.547 101.077 115.547 99.9367 115.547 98.797C115.059 98.797 114.57 98.797 114.082 98.797C113.951 100.076 114.114 101.298 114.57 102.461C113.772 102.702 112.958 102.783 112.128 102.705C112.107 100.991 112.433 99.3627 113.105 97.82C110.62 97.8464 108.177 97.7648 105.777 97.5757C106.166 99.4052 106.411 101.278 106.51 103.194C106.838 101.469 107.896 100.818 109.685 101.24C109.711 102.414 109.548 103.553 109.197 104.659C107.57 104.171 105.942 103.683 104.311 103.194C104.311 102.542 104.311 101.891 104.311 101.24C105.37 102.48 105.858 102.155 105.777 100.263C105.908 99.4814 105.745 98.8302 105.288 98.3085C105.137 97.8307 104.811 97.5049 104.311 97.3315C103.833 98.5948 103.67 99.8976 103.823 101.24C102.043 95.2367 99.1116 89.863 95.0295 85.1185C95.0017 84.5767 94.839 84.0882 94.541 83.6529C95.6236 83.9963 96.519 84.6475 97.2279 85.607C98.2801 87.3031 99.4199 88.9314 100.648 90.4922C100.729 90.3295 100.81 90.1663 100.892 90.0037C99.5181 87.0046 97.7271 84.3178 95.5181 81.9431C96.0242 81.0755 96.0242 80.18 95.5181 79.2562C96.564 80.7081 97.8669 81.9294 99.4262 82.9201C110.32 84.1209 119.358 80.6202 126.539 72.4169C128.232 69.8791 128.151 67.4365 126.295 65.0891C125.644 64.2748 124.992 63.4609 124.341 62.6465C123.038 61.181 121.735 59.7154 120.433 58.2499C120.868 57.8781 121.194 57.3896 121.41 56.7843C121.021 55.4927 120.695 54.1898 120.433 52.8761C121.109 52.2406 121.841 52.2406 122.631 52.8761C122.794 55.3187 122.957 57.7613 123.119 60.2039C126.261 64.0408 129.518 67.7858 132.89 71.4399C134.913 73.8644 136.623 76.4697 138.019 79.2562Z" fill="#C7CAD0"/>
<path fill-rule="evenodd" clip-rule="evenodd" d="M99.9143 102.216C99.5049 102.383 99.3417 102.709 99.4258 103.193C98.3999 101.921 97.2602 100.7 96.0061 99.5296C95.6803 99.2037 95.3549 99.2037 95.0291 99.5296C98.2582 102.322 100.294 105.824 101.136 110.033C101.375 109.401 101.457 108.749 101.38 108.079C101.852 110.605 101.852 113.048 101.38 115.406C100.664 116.011 99.8498 116.499 98.9372 116.872C97.9851 115.864 96.8454 115.213 95.5176 114.918C99.374 114.886 100.758 112.932 99.67 109.056C98.5767 105.064 96.2157 102.133 92.5865 100.262C92.2401 99.8207 91.7516 99.658 91.1209 99.7738C91.1209 99.2853 91.1209 98.7968 91.1209 98.3083C87.7326 98.445 86.267 100.236 86.7243 103.682C86.2377 103.724 85.8307 103.561 85.503 103.193C85.2611 101.713 85.3422 100.247 85.7472 98.7968C86.2846 98.257 86.6104 97.6058 86.7243 96.8427C88.6715 95.2985 90.7887 95.0542 93.075 96.1099C95.8908 97.5906 98.1703 99.6263 99.9143 102.216Z" fill="#4E5157"/>
<path fill-rule="evenodd" clip-rule="evenodd" d="M142.904 93.4232C142.862 95.5516 142.699 97.6684 142.416 99.7739C142.09 100.425 141.765 101.077 141.439 101.728C141.113 101.565 140.788 101.402 140.462 101.239C141.13 100.437 141.293 99.6234 140.95 98.7969C140.247 99.5062 139.433 99.9947 138.508 100.262C136.928 100.45 135.382 100.45 133.867 100.262C133.704 100.588 133.541 100.914 133.378 101.239C133.242 100.792 132.998 100.467 132.646 100.262C136.131 98.1105 139.551 95.8306 142.904 93.4232Z" fill="#373A3F"/>
<path fill-rule="evenodd" clip-rule="evenodd" d="M99.426 103.194C100.346 104.71 100.998 106.339 101.38 108.079C101.457 108.75 101.375 109.402 101.136 110.033C100.294 105.824 98.2584 102.323 95.0293 99.53C95.3551 99.2042 95.6805 99.2042 96.0063 99.53C97.2604 100.701 98.4001 101.922 99.426 103.194Z" fill="#83848A"/>
<path fill-rule="evenodd" clip-rule="evenodd" d="M92.5862 100.263C96.2154 102.134 98.5764 105.065 99.6697 109.056C100.758 112.932 99.3737 114.886 95.5173 114.918C90.2549 112.378 87.8939 108.144 88.4337 102.217C89.359 100.583 90.743 99.9314 92.5862 100.263Z" fill="#C4C5CB"/>
<path fill-rule="evenodd" clip-rule="evenodd" d="M94.5407 103.193C95.9848 103.66 96.9618 104.637 97.4718 106.125C94.8211 107.033 93.8441 106.056 94.5407 103.193Z" fill="#42444A"/>
<path fill-rule="evenodd" clip-rule="evenodd" d="M89.1667 103.682C90.6108 104.149 91.5878 105.126 92.0978 106.613C89.4471 107.522 88.4701 106.545 89.1667 103.682Z" fill="#2B2C32"/>
<path fill-rule="evenodd" clip-rule="evenodd" d="M90.6328 101.728C91.4472 101.728 92.261 101.728 93.0754 101.728C93.1462 105.934 92.3319 105.934 90.6328 101.728Z" fill="#2D3035"/>
<path fill-rule="evenodd" clip-rule="evenodd" d="M138.019 79.2563C139.832 81.4527 139.913 83.7321 138.264 86.0956C137.215 91.6735 138.355 92.4874 141.683 88.5382C142.308 90.1117 142.715 91.7399 142.905 93.4234C139.551 95.8308 136.131 98.1107 132.646 100.263C130.038 101.566 127.433 102.869 124.829 104.171C123.839 104.092 122.862 104.173 121.898 104.415C118.699 105.971 115.443 107.437 112.128 108.812C110.835 109.055 109.532 109.136 108.22 109.056C107.348 108.864 106.534 108.539 105.777 108.079C104.612 107.689 103.471 107.201 102.358 106.613C101.634 105.088 100.819 103.623 99.9149 102.217C98.1709 99.6266 95.8915 97.5909 93.0756 96.1102C90.7894 95.0545 88.6721 95.2988 86.7249 96.843C86.4073 96.6945 86.0815 96.5318 85.7478 96.3545C85.0722 97.6129 84.6648 97.4497 84.5265 95.866C82.5368 96.3042 80.7454 95.8156 79.1528 94.4004C78.254 95.0516 78.0097 94.97 78.42 94.1561C74.4328 92.6623 71.0131 90.4639 68.1611 87.5611C71.9003 87.9265 75.6457 88.2524 79.3971 88.5382C80.9179 88.5079 82.3018 88.182 83.5495 87.5611C84.5392 88.3413 85.679 88.8298 86.9691 89.0267C88.5226 88.9471 90.0698 88.7844 91.6101 88.5382C92.7185 89.2592 93.8583 89.992 95.0297 90.7365C95.5842 91.1024 96.0727 91.0213 96.4953 90.4922C95.6438 89.6027 94.911 88.6256 94.2969 87.5611C93.8685 86.4991 94.1128 85.6847 95.0297 85.1185C99.1118 89.863 102.043 95.2367 103.823 101.24C103.986 101.24 104.149 101.24 104.312 101.24C104.312 101.891 104.312 102.543 104.312 103.194C105.942 103.683 107.571 104.171 109.197 104.659C112.139 104.735 114.907 104.083 117.502 102.705C117.887 102.567 118.213 102.323 118.479 101.972C117.687 100.914 117.279 99.693 117.257 98.3086C116.603 97.6403 115.951 96.9891 115.303 96.3545C114.428 96.6168 113.532 96.7795 112.616 96.843C110.628 96.1757 108.674 95.8498 106.754 95.866C109.12 94.8298 111.563 94.0155 114.082 93.4234C115.385 93.7492 116.687 94.0746 117.99 94.4004C121.354 93.6417 124.61 92.5831 127.761 91.225C129.124 90.1332 130.59 89.1561 132.157 88.2939C134.133 86.3569 135.11 83.9959 135.088 81.2104C134.1 77.6334 135.077 76.9817 138.019 79.2563Z" fill="#B1B5BC"/>
<path fill-rule="evenodd" clip-rule="evenodd" d="M117.501 102.705C114.906 104.083 112.138 104.735 109.196 104.659C109.547 103.553 109.71 102.413 109.685 101.239C107.896 100.818 106.837 101.469 106.509 103.194C106.41 101.278 106.166 99.4051 105.776 97.5756C108.176 97.7646 110.619 97.8462 113.104 97.8198C112.432 99.3626 112.107 100.991 112.127 102.705C112.957 102.783 113.771 102.702 114.57 102.461C114.113 101.298 113.95 100.076 114.081 98.7969C114.57 98.7969 115.058 98.7969 115.547 98.7969C115.547 99.9366 115.547 101.077 115.547 102.216C116.328 102.086 116.979 102.249 117.501 102.705Z" fill="#E8E8EA"/>
<path fill-rule="evenodd" clip-rule="evenodd" d="M104.312 99.7739C104.747 100.072 105.235 100.235 105.777 100.262C105.858 102.154 105.37 102.48 104.312 101.239C104.312 100.751 104.312 100.262 104.312 99.7739Z" fill="#C7402E"/>
<path fill-rule="evenodd" clip-rule="evenodd" d="M105.288 98.3085C105.745 98.8302 105.908 99.4814 105.777 100.263C105.235 100.235 104.746 100.072 104.311 99.774C104.206 98.9538 104.532 98.4653 105.288 98.3085Z" fill="#F19529"/>
<path fill-rule="evenodd" clip-rule="evenodd" d="M105.288 98.3085C104.531 98.4653 104.206 98.9539 104.311 99.7741C104.311 100.263 104.311 100.751 104.311 101.24C104.148 101.24 103.985 101.24 103.822 101.24C103.669 99.8977 103.832 98.5948 104.311 97.3315C104.81 97.5049 105.136 97.8307 105.288 98.3085Z" fill="#D0845A"/>
<path fill-rule="evenodd" clip-rule="evenodd" d="M132.646 90.4923C133.031 90.6306 133.357 90.8748 133.623 91.2251C133.77 92.2222 133.607 93.2808 133.134 94.4005C131.443 95.6555 129.652 96.7957 127.76 97.8201C127.556 97.4674 127.231 97.2231 126.783 97.0873C127.363 96.5895 127.852 96.0194 128.249 95.3775C127.596 95.4532 126.945 95.1274 126.295 94.4005C128.401 93.1147 130.518 91.8118 132.646 90.4923Z" fill="#3F4247"/>
<path fill-rule="evenodd" clip-rule="evenodd" d="M126.294 94.4001C126.945 95.1271 127.596 95.4529 128.249 95.3772C127.851 96.0191 127.363 96.5892 126.783 97.087C127.23 97.2228 127.556 97.4671 127.76 97.8198C125.921 98.831 124.13 99.8896 122.386 100.995C119.708 101.243 118.893 100.104 119.944 97.5755C122.074 96.5106 124.19 95.4519 126.294 94.4001Z" fill="#272A31"/>
<path fill-rule="evenodd" clip-rule="evenodd" d="M133.134 94.4004C133.607 93.2807 133.77 92.2221 133.623 91.225C133.357 90.8747 133.031 90.6305 132.646 90.4922C133.601 89.6002 134.74 89.3559 136.065 89.7594C137.709 92.7785 136.732 94.3256 133.134 94.4004Z" fill="#595C63"/>
<path fill-rule="evenodd" clip-rule="evenodd" d="M132.646 100.263C132.998 100.467 133.243 100.792 133.378 101.24C133.541 100.914 133.704 100.589 133.867 100.263C135.382 100.45 136.928 100.45 138.508 100.263C131.722 105.101 124.394 108.846 116.524 111.499C117.294 111.116 117.946 110.546 118.478 109.789C118.153 109.626 117.827 109.463 117.501 109.3C117.895 108.757 118.221 108.187 118.478 107.591C120.518 106.326 122.634 105.187 124.829 104.171C127.433 102.869 130.038 101.567 132.646 100.263Z" fill="#242427"/>
<path fill-rule="evenodd" clip-rule="evenodd" d="M140.462 101.239C135.018 104.696 129.481 108.034 123.852 111.254C122.061 111.987 120.27 112.72 118.478 113.452C117.875 113.088 117.223 112.925 116.524 112.964C116.524 112.475 116.524 111.987 116.524 111.498C124.394 108.845 131.722 105.1 138.508 100.262C139.433 99.9947 140.247 99.5062 140.95 98.7969C141.293 99.6235 141.13 100.437 140.462 101.239Z" fill="#050509"/>
<path fill-rule="evenodd" clip-rule="evenodd" d="M124.829 104.171C122.634 105.186 120.518 106.326 118.479 107.59C116.624 108.181 114.832 108.914 113.105 109.789C111.639 110.114 110.174 110.114 108.708 109.789C108.437 109.601 108.274 109.357 108.22 109.056C109.532 109.136 110.835 109.054 112.128 108.812C115.442 107.437 118.699 105.971 121.898 104.415C122.862 104.173 123.839 104.091 124.829 104.171Z" fill="#707277"/>
<path fill-rule="evenodd" clip-rule="evenodd" d="M92.5864 100.263C90.7432 99.9313 89.3592 100.583 88.434 102.217C87.8941 108.144 90.2552 112.378 95.5175 114.918C96.8453 115.213 97.985 115.864 98.9371 116.872C97.2561 116.969 95.6279 116.725 94.0519 116.139C89.9332 113.198 87.4906 109.208 86.7241 104.171C86.7241 104.008 86.7241 103.845 86.7241 103.682C86.2669 100.237 87.7324 98.4453 91.1208 98.3085C91.1208 98.797 91.1208 99.2855 91.1208 99.774C91.7515 99.6583 92.24 99.8209 92.5864 100.263Z" fill="#2D2D32"/>
<path fill-rule="evenodd" clip-rule="evenodd" d="M96.0068 108.567C96.9839 108.567 97.9609 108.567 98.938 108.567C98.6566 112.859 97.6795 112.859 96.0068 108.567Z" fill="#54545C"/>
<path fill-rule="evenodd" clip-rule="evenodd" d="M99.9142 102.217C100.818 103.623 101.633 105.088 102.357 106.613C103.471 107.201 104.611 107.689 105.776 108.079C106.163 108.937 106.815 109.589 107.731 110.033C108.095 110.637 108.258 111.289 108.219 111.987C107.705 111.914 107.217 111.995 106.754 112.231C107.079 113.208 107.731 113.86 108.708 114.186C108.382 114.348 108.056 114.511 107.731 114.674C108.943 115.555 108.943 116.288 107.731 116.872C106.546 116.613 105.407 116.206 104.311 115.651C103.493 114.243 102.516 114.162 101.38 115.407C101.852 113.048 101.852 110.606 101.38 108.079C100.998 106.338 100.346 104.71 99.4257 103.194C99.3417 102.709 99.5049 102.384 99.9142 102.217Z" fill="#26282E"/>
<path fill-rule="evenodd" clip-rule="evenodd" d="M90.6328 109.056C91.4472 109.056 92.261 109.056 93.0754 109.056C93.1462 113.262 92.3319 113.262 90.6328 109.056Z" fill="#2D2E33"/>
<path fill-rule="evenodd" clip-rule="evenodd" d="M140.461 101.24C140.787 101.403 141.113 101.566 141.439 101.728C141.481 102.215 141.317 102.622 140.95 102.95C132.801 108.244 124.333 112.885 115.547 116.873C114.657 116.491 114.331 115.921 114.57 115.163C115.465 114.797 116.279 114.309 117.013 113.697C116.741 113.51 116.578 113.266 116.524 112.964C117.223 112.926 117.874 113.088 118.478 113.453C120.269 112.72 122.06 111.987 123.852 111.255C129.481 108.035 135.017 104.696 140.461 101.24Z" fill="#232327"/>
<path fill-rule="evenodd" clip-rule="evenodd" d="M94.5408 110.521C96.2242 111.065 97.2013 112.204 97.4719 113.941C94.831 114.315 93.8539 113.175 94.5408 110.521Z" fill="#4A4A50"/>
<path fill-rule="evenodd" clip-rule="evenodd" d="M118.478 107.59C118.22 108.187 117.894 108.756 117.501 109.3C117.827 109.463 118.152 109.626 118.478 109.788C117.945 110.546 117.294 111.116 116.524 111.498C116.524 111.987 116.524 112.475 116.524 112.964C116.578 113.265 116.741 113.509 117.012 113.697C116.279 114.308 115.465 114.797 114.57 115.162C114.331 115.92 114.657 116.49 115.547 116.872C112.941 118.175 110.336 118.175 107.73 116.872C108.942 116.288 108.942 115.555 107.73 114.674C108.056 114.511 108.382 114.348 108.707 114.185C107.73 113.859 107.079 113.208 106.753 112.231C107.217 111.995 107.705 111.914 108.219 111.987C108.258 111.288 108.095 110.636 107.73 110.033C106.814 109.589 106.163 108.937 105.776 108.079C106.534 108.538 107.347 108.864 108.219 109.056C108.273 109.357 108.436 109.601 108.707 109.788C110.173 110.114 111.639 110.114 113.104 109.788C114.832 108.913 116.623 108.181 118.478 107.59Z" fill="#3D3F44"/>
<path d="M19.3321 26.5581L59.0642 49.5884L56.407 65.2976L19.9357 42.2672L19.3321 26.5581Z" fill="url(#paint0_linear_262_62243)"/>
<g clip-path="url(#clip0_262_62243)">
<mask id="mask0_262_62243" style="mask-type:luminance" maskUnits="userSpaceOnUse" x="24" y="34" width="5" height="11">
<path d="M24.6299 34.4015L28.6895 36.7453L28.6895 44.0681L24.6299 41.7242L24.6299 34.4015Z" fill="white"/>
</mask>
<g mask="url(#mask0_262_62243)">
<path d="M26.0556 39.5708L24.8875 40.2452C24.5648 40.4311 24.5648 41.0351 24.8875 41.5939C25.2099 42.1523 25.7329 42.4543 26.0556 42.2683L28.3914 40.9194C28.7141 40.7331 28.7141 40.1295 28.3914 39.5706L26.0556 35.5244C25.7329 34.9655 25.2099 34.6635 24.8875 34.85C24.5648 35.0363 24.5648 35.6403 24.8875 36.1988L26.0556 38.222C26.378 38.7807 26.378 39.3843 26.0556 39.5708Z" fill="#358C9C"/>
</g>
<path d="M24.8525 38.4584L24.4081 38.7145C24.2858 38.7855 24.2858 39.0151 24.4081 39.2273C24.5307 39.4396 24.7299 39.5546 24.8525 39.4838L25.7402 38.9709C25.8628 38.9001 25.8628 38.6705 25.7402 38.4582L24.8525 36.9202C24.7299 36.7079 24.5307 36.5929 24.4081 36.6637C24.2858 36.7347 24.2858 36.9642 24.4081 37.1764L24.8525 37.9457C24.9747 38.1578 24.9747 38.3874 24.8525 38.4584Z" fill="#358C9C"/>
<path d="M24.6308 39.4614C24.6093 39.449 24.5876 39.4339 24.5664 39.4167C24.6243 39.4361 24.6794 39.4352 24.7242 39.4093L25.6122 38.8966C25.7345 38.8256 25.7345 38.5961 25.6122 38.3839L24.7242 36.8458C24.6794 36.7685 24.6243 36.7037 24.5664 36.6566C24.5876 36.6638 24.6093 36.6738 24.6308 36.6862C24.7114 36.7328 24.7917 36.8143 24.853 36.9201L25.7407 38.4581C25.802 38.5643 25.8328 38.6747 25.8328 38.7678C25.8328 38.8605 25.802 38.9354 25.7407 38.9708L24.853 39.4837C24.7917 39.5191 24.7114 39.5079 24.6308 39.4614Z" fill="#2C7380"/>
<path d="M27.9917 41.1509L26.8277 39.1351C26.5053 38.5764 26.5053 37.9724 26.8277 37.7859L27.2279 37.5552L28.3916 39.5709C28.5531 39.8502 28.6337 40.1411 28.6337 40.385C28.6337 40.629 28.5531 40.8264 28.3916 40.9197L27.9917 41.1509Z" fill="#2C7380"/>
<path d="M29.4178 38.988L30.5859 38.3133C30.9085 38.1273 30.9085 37.5234 30.5859 36.9648C30.2632 36.406 29.7404 36.1042 29.4178 36.2905L27.0816 37.6392C26.7593 37.8254 26.7593 38.4293 27.0816 38.9877L29.4178 43.034C29.7404 43.5929 30.2632 43.8947 30.5859 43.7084C30.9085 43.5225 30.9085 42.9182 30.5859 42.3596L29.4178 40.3365C29.0954 39.7781 29.0954 39.1741 29.4178 38.988Z" fill="#4F96D5"/>
<mask id="mask1_262_62243" style="mask-type:luminance" maskUnits="userSpaceOnUse" x="29" y="38" width="3" height="5">
<path d="M29.6309 38.3723L31.1552 39.2523L31.1552 42.0638L29.6309 41.1837L29.6309 38.3723Z" fill="white"/>
</mask>
<g mask="url(#mask1_262_62243)">
<path d="M30.6206 40.1005L31.0646 39.8441C31.1872 39.7733 31.1872 39.5437 31.0646 39.3314C30.942 39.1191 30.7432 39.0043 30.6206 39.075L29.7326 39.5878C29.61 39.6585 29.61 39.8881 29.7326 40.1005L30.6206 41.6386C30.7432 41.8509 30.942 41.9657 31.0646 41.895C31.1872 41.8242 31.1872 41.5946 31.0646 41.3822L30.6206 40.6132C30.498 40.4008 30.498 40.1712 30.6206 40.1005Z" fill="#4F96D5"/>
</g>
<mask id="mask2_262_62243" style="mask-type:luminance" maskUnits="userSpaceOnUse" x="30" y="38" width="2" height="5">
<path d="M30.3809 38.8054L31.155 39.2523L31.155 42.0638L30.3809 41.6168L30.3809 38.8054Z" fill="white"/>
</mask>
<g mask="url(#mask2_262_62243)">
<path d="M30.8433 41.8726C30.8215 41.8601 30.8001 41.8452 30.7786 41.8274C30.8365 41.8468 30.8912 41.8457 30.9364 41.8204C31.059 41.7496 31.059 41.52 30.9364 41.3076L30.4923 40.5386C30.3697 40.3262 30.3697 40.0967 30.4923 40.0259L30.9364 39.7695C31.059 39.6987 31.059 39.4691 30.9364 39.2568C30.8912 39.1787 30.8365 39.1147 30.7786 39.0673C30.8001 39.0746 30.8215 39.0845 30.8433 39.0971C30.9093 39.1352 30.9753 39.197 31.031 39.2769C31.0428 39.2942 31.0543 39.3123 31.0649 39.331C31.1262 39.4372 31.157 39.5477 31.157 39.6403C31.157 39.7334 31.1262 39.8083 31.0649 39.8437L30.6208 40.1001C30.5595 40.1355 30.5291 40.2105 30.5291 40.3032C30.5291 40.3963 30.5595 40.5066 30.6208 40.6128L31.0649 41.3818C31.1262 41.488 31.157 41.5985 31.157 41.6912C31.157 41.7839 31.1262 41.8592 31.0649 41.8946C31.0537 41.9014 31.0409 41.9059 31.0285 41.9098C30.9734 41.9244 30.908 41.91 30.8433 41.8726Z" fill="#358C9C"/>
</g>
<path d="M32.995 43.5755L34.5408 44.468L34.5408 45.3706L32.1523 43.9916L32.1523 39.5134L34.4798 40.8571L34.4798 41.7525L32.995 40.8952L32.995 41.7776L34.3354 42.5515L34.3354 43.4282L32.995 42.6543L32.995 43.5755Z" fill="#3E94E0"/>
<path d="M37.3219 43.5143L37.9256 43.8628L37.9256 47.3192L37.2883 46.9513L37.2224 46.6057C37.0929 46.6585 36.9461 46.6739 36.7818 46.6517C36.6175 46.6294 36.4411 46.5642 36.2528 46.4555C35.9532 46.2825 35.6853 46.0477 35.4488 45.7513C35.2123 45.4549 35.0256 45.1297 34.8887 44.7754C34.7524 44.4219 34.6846 44.0705 34.6846 43.7206C34.6846 43.3749 34.7524 43.1036 34.8887 42.9071C35.0256 42.7113 35.2123 42.6024 35.4488 42.5809C35.6853 42.5593 35.9532 42.6349 36.2528 42.8079C36.4445 42.9186 36.6231 43.0591 36.7892 43.2298C36.956 43.4008 37.1041 43.5898 37.2336 43.7967L37.3219 43.5143ZM36.3188 45.6097C36.4737 45.6992 36.6131 45.7394 36.737 45.7304C36.8605 45.7206 36.9576 45.6645 37.0282 45.5623C37.0985 45.4602 37.134 45.318 37.134 45.1347C37.134 44.9558 37.0985 44.7744 37.0282 44.5908C36.9576 44.4063 36.8605 44.2374 36.737 44.0834C36.6131 43.9286 36.4737 43.8064 36.3188 43.717C36.1601 43.6253 36.0201 43.5862 35.8981 43.5991C35.7761 43.6113 35.6797 43.6685 35.6093 43.7716C35.5396 43.8743 35.5048 44.0152 35.5048 44.1941C35.5048 44.3773 35.5396 44.5591 35.6093 44.7402C35.6797 44.9217 35.7761 45.0895 35.8981 45.2432C36.0201 45.3963 36.1601 45.5181 36.3188 45.6097Z" fill="#3E94E0"/>
<path d="M39.4495 48.3011C39.1987 48.1563 38.9793 47.9782 38.791 47.7671C38.6025 47.5559 38.4556 47.3274 38.3505 47.0816C38.245 46.835 38.1924 46.5879 38.1924 46.3407L38.979 46.7949C38.9821 46.9501 39.03 47.0927 39.1221 47.2225C39.2148 47.3529 39.3337 47.4596 39.4781 47.5429C39.5926 47.6091 39.6922 47.6378 39.7768 47.6292C39.8614 47.6205 39.9037 47.5588 39.9037 47.4438C39.9037 47.3241 39.8471 47.207 39.7345 47.0931C39.6225 46.9796 39.4868 46.8617 39.3275 46.7388C39.2096 46.6499 39.0866 46.5491 38.9591 46.437C38.8321 46.3257 38.7151 46.2028 38.6081 46.0691C38.5011 45.9347 38.413 45.7837 38.3442 45.6164C38.2761 45.4488 38.2422 45.2625 38.2422 45.0574C38.2422 44.84 38.2926 44.6776 38.394 44.5702C38.4961 44.4624 38.6367 44.4142 38.8159 44.4257C38.9952 44.4372 39.2061 44.513 39.4495 44.6535C39.69 44.7924 39.9 44.9618 40.0792 45.1608C40.2585 45.3602 40.3979 45.5755 40.4974 45.8061C40.597 46.0361 40.6468 46.2667 40.6468 46.4974L39.8764 46.0526C39.8764 45.9157 39.8365 45.7903 39.7569 45.6761C39.6778 45.5625 39.5683 45.4651 39.4283 45.3843C39.302 45.3114 39.2036 45.2859 39.1333 45.3074C39.0636 45.3286 39.0288 45.3879 39.0288 45.4856C39.0288 45.6006 39.0838 45.7114 39.1943 45.8183C39.3054 45.9249 39.4386 46.0377 39.5938 46.1568C39.7158 46.2531 39.8415 46.3569 39.971 46.4679C40.1004 46.5793 40.2202 46.7031 40.3307 46.8394C40.4417 46.9754 40.5313 47.1274 40.5995 47.295C40.6683 47.4623 40.7028 47.6507 40.7028 47.8606C40.7028 48.0945 40.6508 48.2689 40.5472 48.3844C40.4433 48.499 40.2974 48.5502 40.1091 48.5382C39.9205 48.5249 39.7009 48.4462 39.4495 48.3011Z" fill="#3E94E0"/>
<path d="M43.0458 46.8263L43.9108 47.3257L42.6027 49.9809C42.4848 50.224 42.365 50.4056 42.243 50.5249C42.121 50.6441 41.9823 50.7013 41.8273 50.6973C41.672 50.6928 41.4816 50.6256 41.256 50.4954L40.9237 50.3035L40.9237 49.4585L41.2062 49.6216C41.3357 49.6963 41.4381 49.7382 41.5137 49.7474C41.5899 49.7576 41.6546 49.7324 41.7078 49.6712C41.7617 49.611 41.8198 49.5117 41.8821 49.3723L41.8933 49.3528L40.625 45.4286L41.5062 45.9374L42.304 48.5222L43.0458 46.8263Z" fill="#3E94E0"/>
<path d="M45.7569 49.5051L47.8243 50.6987C47.8199 51.0497 47.7698 51.3463 47.6737 51.5875C47.5781 51.8285 47.4425 52.007 47.2667 52.1229C47.0915 52.2395 46.8827 52.2885 46.6406 52.2702C46.3982 52.2517 46.1316 52.1588 45.8403 51.9907C45.5556 51.8263 45.2914 51.6163 45.0475 51.3605C44.8035 51.1039 44.5898 50.8181 44.4065 50.5032C44.2239 50.189 44.0829 49.8604 43.9833 49.5173C43.8838 49.1745 43.834 48.8361 43.834 48.5027C43.834 48.1664 43.8828 47.8848 43.9809 47.6576C44.0786 47.4294 44.2173 47.262 44.3966 47.1546C44.5758 47.0475 44.7874 47.0058 45.0313 47.0296C45.2753 47.0525 45.5391 47.146 45.8229 47.3098C46.1446 47.4956 46.4421 47.7402 46.7153 48.0435C46.9891 48.3464 47.2181 48.6787 47.4023 49.0409C47.5872 49.4034 47.7091 49.7706 47.7683 50.1417L46.9032 49.6423C46.8226 49.3526 46.686 49.0815 46.4938 48.8296C46.3021 48.5781 46.0843 48.3819 45.8403 48.2411C45.6113 48.1089 45.4097 48.0535 45.2354 48.0744C45.0618 48.0959 44.9261 48.184 44.8284 48.3381C44.7304 48.4924 44.6816 48.7103 44.6816 48.992C44.6816 49.2701 44.7295 49.5421 44.826 49.8083C44.9221 50.0747 45.0568 50.3178 45.2305 50.5377C45.4038 50.7578 45.607 50.9347 45.8403 51.0694C46.0908 51.2141 46.3158 51.2735 46.5149 51.2477C46.7147 51.2221 46.85 51.1145 46.9207 50.9243L45.7569 50.2524L45.7569 49.5051Z" fill="#309EB2"/>
<path d="M49.5252 54.1181C49.2147 53.9388 48.9378 53.6988 48.6938 53.3981C48.4499 53.0973 48.2576 52.7689 48.1176 52.4129C47.9772 52.057 47.9072 51.7061 47.9072 51.3601C47.9072 51.0106 47.9772 50.7388 48.1176 50.5446C48.2576 50.3505 48.4499 50.2449 48.6938 50.2277C48.9378 50.2104 49.2147 50.2913 49.5252 50.4705C49.8314 50.6473 50.1065 50.8852 50.3504 51.1841C50.5944 51.483 50.7864 51.8105 50.9267 52.1664C51.0667 52.5225 51.137 52.8753 51.137 53.2249C51.137 53.5709 51.0667 53.8407 50.9267 54.0347C50.7864 54.2289 50.5944 54.3355 50.3504 54.3545C50.1065 54.3735 49.8314 54.2949 49.5252 54.1181ZM49.5252 53.2414C49.7574 53.3754 49.9475 53.3982 50.0953 53.309C50.2428 53.2188 50.3168 53.033 50.3168 52.7513C50.3168 52.4696 50.2428 52.1991 50.0953 51.9393C49.9475 51.6787 49.7574 51.4812 49.5252 51.3472C49.2888 51.2107 49.0965 51.1873 48.949 51.2775C48.8012 51.3668 48.7274 51.552 48.7274 51.8337C48.7274 52.1154 48.8012 52.3865 48.949 52.6471C49.0965 52.9069 49.2888 53.1049 49.5252 53.2414Z" fill="#309EB2"/>
</g>
<g clip-path="url(#clip1_262_62243)">
<mask id="mask3_262_62243" style="mask-type:luminance" maskUnits="userSpaceOnUse" x="38" y="18" width="17" height="11">
<path d="M48.1543 18.5547L54.6366 22.2274L44.6046 28.1276L38.1223 24.455L48.1543 18.5547Z" fill="white"/>
</mask>
<g mask="url(#mask3_262_62243)">
<path d="M44.4777 23.3467L40.7647 23.3767C39.7396 23.3847 38.9121 23.8714 38.9169 24.4635C38.9217 25.055 39.7569 25.5282 40.7821 25.5202L48.2075 25.4598C49.2331 25.4515 50.0601 24.9652 50.0553 24.3731L50.0211 20.0864C50.0163 19.4943 49.1811 19.0211 48.1559 19.0297C47.1303 19.038 46.3029 19.5246 46.3081 20.1164L46.3255 22.2599C46.3298 22.8517 45.5028 23.3381 44.4777 23.3467Z" fill="#358C9C"/>
</g>
<path d="M43.1296 21.9216L41.7178 21.9328C41.3286 21.9362 41.014 22.1212 41.0154 22.3459C41.0172 22.5709 41.3352 22.751 41.7248 22.7479L44.5471 22.7247C44.9368 22.7216 45.2514 22.5366 45.2495 22.3116L45.2369 20.6823C45.235 20.4573 44.9171 20.2772 44.5274 20.2803C44.1382 20.2838 43.8236 20.4688 43.825 20.6934L43.8321 21.5085C43.8334 21.7332 43.5188 21.9182 43.1296 21.9216Z" fill="#358C9C"/>
<path d="M41.2248 22.6323C41.1905 22.6129 41.1591 22.5911 41.1322 22.5679C41.2439 22.609 41.3766 22.6325 41.519 22.6313L44.3418 22.6085C44.731 22.6051 45.0455 22.4201 45.0442 22.1954L45.031 20.5658C45.0299 20.4838 44.9872 20.4074 44.9135 20.344C44.9542 20.3591 44.9924 20.3768 45.0267 20.3962C45.1554 20.4691 45.2353 20.5701 45.2367 20.6823L45.2494 22.3116C45.2503 22.4241 45.1725 22.5267 45.045 22.6017C44.918 22.6763 44.7418 22.7232 44.547 22.7247L41.7247 22.7479C41.5299 22.7494 41.3534 22.7052 41.2248 22.6323Z" fill="#2C7380"/>
<path d="M46.9357 25.4706L46.9179 23.3348C46.9136 22.743 47.7411 22.2563 48.7662 22.2478L50.0377 22.2378L50.055 24.3733C50.0579 24.6693 49.8518 24.9391 49.5176 25.1356C49.1834 25.3322 48.7205 25.4559 48.2072 25.46L46.9357 25.4706Z" fill="#2C7380"/>
<path d="M53.3055 24.3549L57.0189 24.3245C58.0441 24.3165 58.8715 23.8299 58.8662 23.2381C58.8615 22.6459 58.0268 22.173 57.0011 22.1813L49.5752 22.2414C48.5505 22.2497 47.7231 22.7364 47.7279 23.3279L47.7626 27.6149C47.7674 28.207 48.6021 28.6799 49.6277 28.6716C50.6529 28.6636 51.4808 28.1767 51.4755 27.5848L51.4582 25.4413C51.4534 24.8498 52.2808 24.3632 53.3055 24.3549Z" fill="#4F96D5"/>
<mask id="mask4_262_62243" style="mask-type:luminance" maskUnits="userSpaceOnUse" x="50" y="23" width="8" height="5">
<path d="M54.6572 23.9524L57.0913 25.3314L53.2396 27.5967L50.8056 26.2177L54.6572 23.9524Z" fill="white"/>
</mask>
<g mask="url(#mask4_262_62243)">
<path d="M54.6532 25.7799L56.0646 25.7685C56.4543 25.7653 56.7688 25.5803 56.767 25.3554C56.7652 25.1304 56.4477 24.9505 56.058 24.9537L53.2352 24.9765C52.8455 24.9797 52.531 25.1647 52.5328 25.3896L52.546 27.0192C52.5478 27.2442 52.8653 27.4241 53.255 27.4209C53.6447 27.4178 53.9592 27.2328 53.9574 27.0078L53.9508 26.193C53.949 25.968 54.2635 25.783 54.6532 25.7799Z" fill="#4F96D5"/>
</g>
<mask id="mask5_262_62243" style="mask-type:luminance" maskUnits="userSpaceOnUse" x="52" y="24" width="6" height="4">
<path d="M55.8545 24.6309L57.0906 25.3313L53.239 27.5966L52.0029 26.8962L55.8545 24.6309Z" fill="white"/>
</mask>
<g mask="url(#mask5_262_62243)">
<path d="M52.7564 27.3057C52.7216 27.286 52.6908 27.2645 52.6639 27.2408C52.7755 27.2818 52.9077 27.305 53.0502 27.3045C53.4399 27.3013 53.7544 27.1163 53.7526 26.8914L53.746 26.0766C53.7442 25.8516 54.0587 25.6666 54.4484 25.6634L55.8598 25.652C56.2495 25.6489 56.564 25.4639 56.5622 25.2389C56.5615 25.1561 56.5184 25.0805 56.4451 25.0169C56.4863 25.0322 56.524 25.0496 56.5588 25.0693C56.6641 25.129 56.737 25.2078 56.7605 25.2967C56.7651 25.3158 56.7677 25.3355 56.7674 25.3552C56.7683 25.4677 56.6905 25.5702 56.5635 25.6449C56.436 25.7199 56.2598 25.7667 56.065 25.7683L54.6536 25.7797C54.4587 25.7813 54.283 25.8284 54.156 25.9031C54.0286 25.978 53.9503 26.0803 53.9512 26.1928L53.9578 27.0076C53.9587 27.1201 53.8809 27.2226 53.7539 27.2973C53.6269 27.372 53.4502 27.4191 53.2554 27.4207C53.2193 27.4213 53.1826 27.4193 53.1475 27.417C52.9961 27.4045 52.8597 27.3642 52.7564 27.3057Z" fill="#358C9C"/>
</g>
<path d="M55.5601 29.6232L58.0285 31.0216L56.792 31.7489L52.9782 29.5881L59.1133 25.9799L62.8297 28.0854L61.603 28.8068L59.2321 27.4636L58.0232 28.1746L60.1636 29.3872L58.9626 30.0936L56.8222 28.8809L55.5601 29.6232Z" fill="#3E94E0"/>
<path d="M65.9778 31.4757L66.9417 32.0218L62.2065 34.8067L61.189 34.2302L61.505 33.9227C61.1236 33.9084 60.7518 33.8563 60.39 33.7661C60.0282 33.676 59.6963 33.5459 59.3957 33.3756C58.9173 33.1045 58.5992 32.7976 58.4407 32.4549C58.2821 32.1121 58.2818 31.7681 58.4402 31.4225C58.5992 31.0777 58.9186 30.7648 59.398 30.4828C59.8715 30.2043 60.4051 30.0155 60.9998 29.9171C61.595 29.8195 62.1899 29.8138 62.7841 29.9004C63.3782 29.9869 63.9143 30.1656 64.3928 30.4367C64.6988 30.6101 64.9328 30.8017 65.0957 31.0123C65.2597 31.2234 65.3544 31.4407 65.38 31.6644L65.9778 31.4757ZM60.7119 32.7231C60.9593 32.8633 61.2371 32.957 61.5451 33.0042C61.8536 33.0505 62.1621 33.048 62.4708 32.9967C62.7785 32.9454 63.0581 32.8463 63.3092 32.6987C63.5543 32.5545 63.7182 32.3927 63.8018 32.2139C63.8859 32.0342 63.8854 31.8555 63.8014 31.6771C63.7179 31.4979 63.5524 31.3383 63.3049 31.1981C63.0516 31.0545 62.7709 30.9614 62.4619 30.9182C62.1539 30.8745 61.8454 30.8781 61.5362 30.9303C61.229 30.9825 60.9528 31.0806 60.7077 31.2248C60.4567 31.3724 60.2908 31.5342 60.2092 31.7108C60.1285 31.8879 60.1289 32.0655 60.2095 32.243C60.2911 32.4199 60.4585 32.5796 60.7119 32.7231Z" fill="#3E94E0"/>
<path d="M64.4995 36.2673C64.099 36.0404 63.8191 35.8006 63.6588 35.5477C63.498 35.2947 63.4604 35.046 63.546 34.8018C63.632 34.5567 63.8448 34.3345 64.1835 34.1354L65.4395 34.847C65.2343 34.9734 65.1533 35.1094 65.1955 35.2544C65.2383 35.4002 65.3759 35.5384 65.6064 35.669C65.7892 35.7726 65.9876 35.8395 66.2015 35.8698C66.4154 35.9 66.6011 35.8688 66.7586 35.7762C66.9225 35.6798 66.9478 35.5605 66.8349 35.4193C66.7229 35.2786 66.5605 35.124 66.3484 34.955C66.1887 34.8315 66.0333 34.6963 65.8822 34.5499C65.7317 34.4043 65.6207 34.2539 65.5482 34.0992C65.4767 33.9439 65.4734 33.7834 65.5384 33.6185C65.6053 33.4535 65.7795 33.2885 66.0606 33.1232C66.3584 32.948 66.7012 32.8393 67.0906 32.7973C67.482 32.7553 67.8837 32.7783 68.2959 32.8664C68.7081 32.9544 69.108 33.1082 69.4965 33.3283C69.8806 33.5459 70.15 33.7747 70.3052 34.0139C70.46 34.2533 70.498 34.488 70.4197 34.7176C70.3424 34.9466 70.1453 35.1544 69.8293 35.3402L68.5991 34.6432C68.7867 34.5329 68.8633 34.4144 68.8297 34.2873C68.7965 34.1611 68.6684 34.0345 68.4448 33.9079C68.2431 33.7936 68.0433 33.7298 67.8458 33.7163C67.6504 33.7027 67.4859 33.7352 67.352 33.8139C67.1945 33.9066 67.1742 34.0201 67.2915 34.1547C67.4108 34.2894 67.5742 34.4388 67.7818 34.603C67.9411 34.7342 68.099 34.8731 68.256 35.0195C68.4125 35.1661 68.5289 35.3185 68.6059 35.4769C68.6848 35.6353 68.6906 35.7971 68.6236 35.9621C68.5587 36.1271 68.383 36.2941 68.0955 36.4632C67.7751 36.6516 67.4121 36.7693 67.0064 36.8169C66.6012 36.8636 66.1827 36.8407 65.7497 36.7483C65.3176 36.6547 64.9009 36.4947 64.4995 36.2673Z" fill="#3E94E0"/>
<path d="M75.1076 36.6595L76.4888 37.4421L69.7279 39.0066C69.1134 39.1506 68.5785 39.2443 68.1239 39.2868C67.6692 39.3293 67.2596 39.3144 66.895 39.2431C66.5304 39.1712 66.1678 39.0334 65.8076 38.8293L65.277 38.5287L66.4347 37.8478L66.8858 38.1034C67.0925 38.2205 67.2796 38.2992 67.4476 38.3398C67.6156 38.3816 67.8045 38.3898 68.0155 38.3638C68.2265 38.3389 68.5015 38.2845 68.8411 38.1995L68.8944 38.1888L71.2422 34.4695L72.6492 35.2667L71.0131 37.7L75.1076 36.6595Z" fill="#3E94E0"/>
<path d="M77.9093 40.0091L81.2103 41.8793C80.719 42.1602 80.1931 42.3772 79.633 42.5294C79.0748 42.6815 78.5063 42.7657 77.9278 42.7818C77.3497 42.7988 76.784 42.7466 76.2311 42.6254C75.6777 42.504 75.1682 42.3119 74.7032 42.0485C74.2486 41.7909 73.9055 41.5056 73.6735 41.1923C73.4425 40.8784 73.3236 40.5541 73.3175 40.2198C73.3118 39.8864 73.4254 39.5597 73.6577 39.2395C73.8895 38.9196 74.2343 38.625 74.6911 38.3563C75.1518 38.0854 75.6541 37.88 76.1995 37.74C76.7453 37.5991 77.3061 37.5252 77.8812 37.5174C78.4558 37.5099 79.0181 37.5693 79.5681 37.6956C80.1191 37.8213 80.6211 38.0125 81.0743 38.2693C81.588 38.5603 81.9631 38.8882 82.1999 39.2526C82.4388 39.617 82.5303 39.9854 82.474 40.3582C82.4186 40.7315 82.2068 41.081 81.8395 41.406L80.4583 40.6234C80.6628 40.3545 80.7081 40.0761 80.594 39.7886C80.4809 39.5018 80.2295 39.248 79.84 39.0273C79.4743 38.8201 79.0687 38.6869 78.6241 38.6271C78.18 38.5682 77.7355 38.5795 77.291 38.6608C76.8456 38.742 76.4304 38.8961 76.0445 39.1231C75.6635 39.3472 75.4053 39.5874 75.2709 39.8443C75.1355 40.1012 75.1242 40.3563 75.2376 40.6097C75.3499 40.8632 75.5926 41.0951 75.9653 41.3062C76.3652 41.5328 76.8209 41.6796 77.3318 41.7463C77.8438 41.8135 78.3144 41.7863 78.7436 41.664L76.8855 40.6112L77.9093 40.0091Z" fill="#309EB2"/>
<path d="M80.5865 45.3821C80.0907 45.1012 79.7583 44.7861 79.5878 44.4366C79.4173 44.087 79.408 43.7379 79.5615 43.3895C79.714 43.0411 80.0275 42.7276 80.5015 42.4489C80.9804 42.1672 81.5199 41.9789 82.1211 41.8841C82.7212 41.7893 83.325 41.7887 83.9312 41.882C84.5373 41.9754 85.0877 42.1622 85.5836 42.4431C86.0725 42.7201 86.4034 43.0326 86.5763 43.3807C86.7493 43.7288 86.759 44.077 86.6066 44.4254C86.4531 44.7739 86.1376 45.0891 85.6587 45.3707C85.1847 45.6495 84.6471 45.836 84.047 45.9308C83.4459 46.0256 82.8415 46.0271 82.233 45.9352C81.6244 45.8434 81.0754 45.6591 80.5865 45.3821ZM81.7876 44.6757C82.1582 44.8857 82.5809 44.9876 83.0561 44.9807C83.5318 44.9728 83.9631 44.8557 84.349 44.6287C84.7349 44.4018 84.9288 44.1512 84.9325 43.8771C84.9367 43.6021 84.7532 43.3595 84.3826 43.1495C84.005 42.9356 83.5778 42.8322 83.1021 42.8401C82.6269 42.8471 82.1971 42.9639 81.8112 43.1909C81.4253 43.4178 81.23 43.6687 81.2258 43.9436C81.222 44.2178 81.41 44.4618 81.7876 44.6757Z" fill="#309EB2"/>
</g>
<defs>
<linearGradient id="paint0_linear_262_62243" x1="8.47276" y1="29.3817" x2="57.7025" y2="54.2706" gradientUnits="userSpaceOnUse">
<stop offset="0.238528" stop-color="#ACB3BD"/>
<stop offset="1" stop-color="#C8C7CF"/>
</linearGradient>
<clipPath id="clip0_262_62243">
<rect width="34.4921" height="34.4921" fill="white" transform="matrix(0.866025 0.5 -4.82349e-10 1 22.7939 20.5883)"/>
</clipPath>
<clipPath id="clip1_262_62243">
<rect width="54.8201" height="54.8201" fill="white" transform="matrix(0.870062 0.492943 -0.86197 0.506959 62.6963 6.61859)"/>
</clipPath>
</defs>
</svg>
